<svg width="304" height="266" viewBox="0 0 304 266" fill="none" xmlns="http://www.w3.org/2000/svg">
<g clip-path="url(#clip0_310_284)">
<path d="M143.341 66.7285L135 71.5663M135 71.5663L130.308 74.2876C129.942 74.6014 129.488 75.1985 129.502 75.8516M135 71.5663C135 71.8652 135 72.5673 135 72.9843C135 73.4014 142.472 77.6762 146.208 79.7615C146.408 79.8113 146.681 79.8712 146.99 79.9263M135 71.5663L134.739 76.6336C138.562 78.9505 146.365 83.5843 146.99 83.5843M281.229 164.475C282.098 164.997 284.513 165.831 287.224 164.997C287.563 164.892 288.001 164.714 288.515 164.475M281.229 164.475V170.21M281.229 164.475C233.769 137.095 140.653 83.3283 131.09 77.6322M288.515 164.475V170.327M288.515 164.475C291.799 162.955 298.211 159.012 302.082 156.543M281.229 170.21C281.924 170.558 283.627 171.253 284.878 171.253C286.001 171.253 287.628 170.693 288.515 170.327M281.229 170.21C279.792 169.38 278.314 168.525 276.798 167.649M131.09 77.6322C130.639 77.3636 130.374 77.2018 130.308 77.1549C129.727 76.7398 129.512 76.2835 129.502 75.8516M131.09 77.6322V83.5843M290.092 145.708C292.163 146.913 295.464 148.833 298.172 150.412M298.172 150.412C300.347 151.68 302.139 152.728 302.603 153.007C303.646 153.632 303.385 155.179 303.124 155.874C302.804 156.081 302.455 156.305 302.082 156.543M298.172 150.412V151.964M279.926 139.713L260.637 128.691M260.637 128.691L252.557 124.073M260.637 128.691V130.59M242.13 117.818L228.055 109.824M228.055 109.824L221.017 105.827M228.055 109.824V111.823M212.415 100.875L199.122 93.2553M199.122 93.2553L198.079 92.6577M199.122 93.2553V95.4009M191.041 88.6238L198.079 92.6577M198.079 92.6577V95.4009M180.876 82.6287L161.848 71.7555M161.848 71.7555L153.507 66.9892M161.848 71.7555C161.803 71.9025 161.733 72.0533 161.648 72.2024M129.502 75.8516V81.8467C129.684 82.2811 130.099 83.15 130.308 83.15C130.319 83.15 130.586 83.2985 131.09 83.5843M131.09 83.5843C132.476 84.3695 135.651 86.1908 140.213 88.8145M288.515 170.327C288.617 170.285 288.708 170.246 288.788 170.21L293.141 167.649M276.798 167.649C276.111 167.252 275.415 166.851 274.713 166.445M276.798 167.649V182.982C277.155 183.849 278.152 185.224 279.926 186.213M302.082 162.39C302.429 162.303 303.177 161.869 303.385 160.826C303.594 159.784 303.472 155.7 303.385 153.788M302.082 162.39V156.543M302.082 162.39L293.141 167.649M293.141 167.649L293.219 182.982C292.826 183.818 291.808 185.128 290.092 186.107M140.213 88.8145V97.4862M140.213 88.8145C146.36 92.3501 155.024 97.3429 165.216 103.221M146.99 79.9263C147.758 80.0632 148.741 80.1708 149.336 80.0221M146.99 79.9263V83.5843M146.99 83.5843C147.616 83.5843 148.815 83.5843 149.336 83.5843M149.336 80.0221C150.17 79.8136 157.156 75.5909 160.544 73.5057C160.817 73.2717 161.337 72.7482 161.648 72.2024M149.336 80.0221V83.5843M161.648 72.2024L161.326 76.3729L149.336 83.5843M180.876 88.6238L173.317 93.055L172.535 93.5763C172.535 94.0108 172.535 94.9318 172.535 95.1403M172.535 95.1403C172.535 95.3488 180.354 99.5715 184.264 101.657H184.786M172.535 95.1403V98.0075L184.264 104.785H184.786M184.786 101.657H187.132M184.786 101.657V104.785M184.786 104.785H187.132L199.122 98.0075V95.4009M187.132 101.657L198.079 95.4009M187.132 101.657V104.524M198.079 95.4009H199.122M212.415 105.045C211.546 105.219 209.6 105.723 208.766 106.349C207.724 107.131 205.638 108.173 205.378 110.519C205.309 111.136 205.257 111.863 205.219 112.604M205.219 112.604C205.14 114.121 205.117 115.698 205.117 116.514L214.24 121.467M205.219 112.604L214.24 117.818M214.24 121.467H219.714C222.407 121.119 227.846 119.486 228.055 115.732C228.263 111.979 228.142 111.562 228.055 111.823M214.24 121.467V117.818M228.055 111.823C226.491 114.95 225.188 115.732 222.581 117.036C220.496 118.078 216.151 117.991 214.24 117.818M212.415 108.173C211.546 108.521 209.809 109.581 209.809 111.041C209.809 112.865 212.676 115.472 216.325 115.472C219.974 115.472 222.842 112.865 223.363 111.823C223.884 110.78 223.102 109.216 220.756 108.434M242.391 124.334L234.05 129.026V130.59M234.05 130.59L245.519 137.367H246.301M234.05 130.59V133.718L245.78 140.495H248.647M246.301 137.367H248.647M246.301 137.367V140.234M248.647 140.495V137.367M248.647 140.495L260.637 133.718V130.59M248.647 137.367L258.552 131.633L260.637 130.59M279.926 146.229L271.585 150.921V152.485M271.585 152.485L283.836 159.002M271.585 152.485V155.352L283.836 162.39M283.836 159.002H285.921M283.836 159.002V162.39M283.836 162.39H286.182M285.921 159.002L298.172 151.964M285.921 159.002L286.182 162.39M298.172 151.964V155.352L286.182 162.39M165.216 103.221V107.652C164.528 109.65 162.473 113.908 159.762 114.95M165.216 103.221C169.217 105.529 173.455 107.973 177.867 110.519M177.867 110.519V125.481M177.867 110.519C182.927 113.439 188.217 116.492 193.648 119.626M135.521 101.136L142.82 96.4436L143.602 97.2256L143.862 104.524M135.521 101.136L133.436 99.8321H130.047L115.994 91.7517M135.521 101.136L177.867 125.481M143.862 104.524L142.82 104.785M143.862 104.524L158.72 113.386L159.241 114.95M115.994 91.7517L109.195 87.8419C108.76 87.5176 107.318 87.0637 105.024 87.8419C102.73 88.62 34.5596 128.308 0.760875 148.054C0.646121 148.131 0.531367 148.301 0.52782 148.575M115.994 91.7517C116.334 91.578 117.171 91.2825 117.796 91.4911C118.422 91.6996 126.398 96.4436 130.308 98.7895L133.175 98.5288L134.479 98.7895C134.565 98.9633 134.739 99.5193 134.739 100.354M115.994 91.7517C144.05 108.086 188.692 134.009 220.756 152.462M177.867 125.481L186.35 130.358M158.459 240.588L112.583 214.261L111.28 215.043L112.323 215.825C110.846 216.781 107.683 218.745 106.849 218.953C106.015 219.162 105.459 219.04 105.285 218.953L85.4748 207.622M158.459 240.588C158.98 240.935 160.44 241.422 162.108 240.588M158.459 240.588V263.786M85.4748 207.622V214.783L84.9535 215.304L84.1715 215.043L79.4797 209.309H76.3518M85.4748 207.622L81.9849 205.626M162.108 240.588C163.777 239.754 231.617 200.62 265.329 181.158C265.763 180.897 266.632 180.219 266.632 179.594M162.108 240.588V264.308M158.459 263.786C160.127 265.037 161.587 264.655 162.108 264.308M158.459 263.786C156.791 262.535 52.4581 202.445 0.500244 172.556L0.52782 148.575M266.632 179.594C266.632 179.323 263.859 177.509 260.116 175.186M266.632 179.594V203.574L252.557 211.753M162.108 264.308L242.391 217.66M260.116 175.186C255.219 172.148 248.662 168.241 244.476 165.779M260.116 175.186L274.713 166.445M252.557 211.753L242.391 217.66M252.557 211.753V223.906M244.476 165.779L245.78 163.433H246.822L246.301 165.518L254.783 170.341M244.476 165.779L243.173 164.997M254.783 170.341L259.595 173.077C259.855 173.338 260.22 173.963 259.595 174.381M254.783 170.341C254.91 170.298 255.58 169.949 257.249 168.907C258.917 167.864 260.377 164.128 260.898 162.39L261.158 158.613M0.52782 148.575C0.523309 148.924 0.698574 149.439 1.28219 150.139C2.32482 151.39 31.6055 168.212 46.1154 176.466L45.3335 176.987C45.0728 176.726 44.1866 176.362 42.7269 176.987C41.2672 177.613 39.1645 179.159 38.2957 179.854V180.636L75.3092 201.807M193.648 119.626V126.159C193.214 127.481 191.146 130.172 186.35 130.358M193.648 119.626C201.441 124.125 209.523 128.791 217.629 133.471M186.35 130.358L212.415 145.344M217.629 133.471C218.671 134.073 219.714 134.675 220.756 135.277M217.629 133.471C214.084 134.108 212.676 133.206 212.415 132.675M212.415 145.344L220.756 150.139V147.011M212.415 145.344V144.926M212.415 130.59V132.675M212.415 132.675V136.846M220.756 147.011V143.102M220.756 147.011C219.505 148.345 218.671 148.61 218.411 148.575M212.415 144.926V141.095M212.415 144.926C213.806 145.621 217.42 146.229 220.756 143.102M220.756 135.277C216.586 139.027 213.458 137.885 212.415 136.846M220.756 135.277V139.192M220.756 135.277C226.972 138.867 233.181 142.453 239.263 145.966M212.415 136.846V141.095M220.756 139.192C217.628 142.737 213.892 141.937 212.415 141.095M220.756 139.192V143.102M239.263 145.966C246.836 150.339 254.211 154.6 261.158 158.613M239.263 145.966V149.879M274.713 166.445C270.444 163.978 265.901 161.353 261.158 158.613M279.926 186.213C281.175 186.909 282.81 187.413 284.878 187.413C287.05 187.413 288.776 186.857 290.092 186.107M279.926 186.213V243.976M290.092 186.107V245.28M279.926 243.976V249.971C280.534 250.927 282.376 252.839 284.878 252.839C287.381 252.839 289.396 250.927 290.092 249.971V245.28M279.926 243.976C278.188 243.542 274.608 243.038 274.191 244.498M290.092 245.28L294.001 247.886M242.391 217.66V222.602M75.3092 201.807V209.309L80.001 215.565H82.3469L83.1289 215.043L82.6076 213.74H80.001L76.3518 209.309M75.3092 201.807L78.8538 203.835M242.391 222.602V228.597C242.642 228.932 243.171 229.44 243.955 229.9M242.391 222.602C241.088 222.255 238.168 221.768 236.917 222.602C236.804 222.678 236.718 222.779 236.657 222.901M252.557 223.906L256.206 226.251M252.557 223.906V228.597C251.949 229.466 250.054 231.152 247.344 230.943C245.938 230.835 244.799 230.395 243.955 229.9M243.955 229.9L240.827 231.986M236.657 222.901C236.044 224.12 237.897 227.46 239.003 229.119L238.221 230.422M236.657 222.901L236.396 226.773L238.221 230.297M238.221 230.422V233.55L239.003 233.98M238.221 230.422L240.827 231.986M239.003 233.98V236.417C239.35 237.199 240.358 238.919 241.609 239.545M239.003 233.98L240.827 234.984M240.827 231.986L243.434 233.55M240.827 231.986V234.984M243.434 236.417L244.998 236.157M243.434 236.417V233.55M243.434 236.417L241.609 235.414M244.998 236.157L254.903 237.72H255.163M244.998 236.157V233.029M243.434 233.55L244.998 232.768C247.865 233.289 253.704 234.332 254.121 234.332C254.313 234.332 254.682 234.474 255.163 234.548M241.609 235.414V239.545M241.609 235.414L240.827 234.984M255.163 237.72H256.727L258.291 236.938V233.289M255.163 237.72V234.548M255.163 237.72C254.903 238.329 253.599 239.701 250.471 240.327C246.562 241.109 243.173 240.327 241.609 239.545M256.206 226.251L255.163 227.294L256.443 229.64M256.206 226.251L256.443 229.64M256.443 229.64L258.291 233.029V233.289M258.291 233.289C257.139 234.606 255.987 234.676 255.163 234.548M274.191 244.498C273.774 245.957 275.755 249.624 276.798 251.275L275.755 252.057M274.191 244.498L273.931 248.929L275.755 252.057M275.755 252.057V255.185L276.537 255.669M275.755 252.057L278.492 253.49M276.537 255.669C276.45 256.534 276.381 258.378 276.798 258.834C277.319 259.403 278.883 262.222 282.532 262.483C286.182 262.744 289.831 262.382 292.437 259.355M276.537 255.669L278.492 256.879M278.492 253.49L281.229 254.924M278.492 253.49V256.879M278.492 253.49L281.49 251.796M281.229 258.573L282.532 257.791L282.793 257.832M281.229 258.573V254.924M281.229 258.573L279.144 257.282M282.793 257.832L292.437 259.355M282.793 257.832V254.924M281.229 254.924L282.793 254.663L291.655 256.227C291.986 256.264 292.474 256.307 292.959 256.328M279.144 257.282L278.492 256.879M279.144 257.282V260.658M292.437 259.355C292.582 259.373 292.762 259.391 292.959 259.403M292.959 259.403C293.708 259.45 294.714 259.425 295.044 259.094C295.461 258.677 295.913 258.052 296.087 257.791L295.85 255.185M292.959 259.403V256.328M294.001 247.886L292.959 248.929L294.001 251.109M294.001 247.886V251.109M294.001 251.109L295.826 254.924L295.85 255.185M295.85 255.185C295.581 255.445 294.94 256.019 294.523 256.227C294.282 256.348 293.623 256.358 292.959 256.328M76.3518 209.309L76.3146 208.527M78.8538 203.835H76.0911L76.3146 208.527M78.8538 203.835L79.3095 204.096M76.3146 208.527H79.3095V204.096M79.3095 204.096L80.6766 204.878M80.6766 204.878V208.787L83.9109 212.437L84.4322 212.176V208.266L81.9849 205.626M80.6766 204.878L81.9849 205.626" stroke="black" stroke-opacity="0.8"/>
<path d="M211.373 41.9661V45.3546C211.582 45.6237 211.937 45.9853 212.415 46.344M212.415 46.344C213.327 47.0277 214.684 47.7005 216.325 47.7005C218 47.7005 219.613 47 220.757 46.3021M212.415 46.344V49.0038M222.06 41.9661V45.3546C221.772 45.6132 221.322 45.9573 220.757 46.3021M220.757 46.3021V56.5629M212.415 49.0038C213.197 49.8905 215.908 51.1317 220.496 49.0038M212.415 49.0038V53.6957M220.757 56.5629C216.794 60.1079 213.719 58.7351 212.676 57.6056M220.757 56.5629V60.2121M212.415 53.6957C213.458 54.6514 216.534 55.8331 220.496 52.9137M212.415 53.6957V61.7761M212.415 61.7761C213.806 62.7318 217.42 63.7571 220.757 60.2121M212.415 61.7761V65.686M220.757 60.2121V64.3827M212.415 65.686C213.632 66.6417 217.003 67.7191 220.757 64.3827M212.415 65.686V69.5958M220.757 64.3827V68.2925M212.415 69.5958C213.892 70.6385 217.629 71.8375 220.757 68.2925M212.415 69.5958V73.7664M220.757 68.2925V71.9418M212.415 73.7664C214.153 74.7221 218.254 75.6952 220.757 71.9418M212.415 73.7664V77.6762M220.757 71.9418V75.8516M212.415 77.6762C213.806 78.632 217.42 79.6051 220.757 75.8516M212.415 77.6762V81.5861M220.757 75.8516V79.7615M212.415 81.5861C213.892 82.5419 217.629 83.515 220.757 79.7615M212.415 81.5861V85.496M220.757 79.7615V83.6714M212.415 85.496C213.719 86.5386 217.212 87.6334 220.757 83.6714M212.415 85.496V89.4059M220.757 83.6714V87.5813M212.415 89.4059C213.979 90.3616 217.837 91.3347 220.757 87.5813M212.415 89.4059V93.0551M220.757 87.5813V91.7518M212.415 93.0551C213.545 94.2715 216.794 95.7138 220.757 91.7518M212.415 93.0551V97.2256M220.757 91.7518V95.6617M212.415 97.2256C213.719 98.3551 217.212 99.6237 220.757 95.6617M212.415 97.2256V101.135M220.757 95.6617V99.5715M212.415 101.135C213.892 102.178 217.629 103.325 220.757 99.5715M212.415 101.135V105.045M220.757 99.5715V103.742M212.415 105.045C213.719 106.175 217.212 107.496 220.757 103.742M212.415 105.045V108.695M220.757 103.742V107.391M212.415 108.695V110.519C212.763 111.475 214.032 113.386 216.325 113.386C218.619 113.386 220.235 111.475 220.757 110.519V107.391M212.415 108.695C213.545 109.911 216.794 111.353 220.757 107.391" stroke="black" stroke-opacity="0.8"/>
<path d="M143.341 2.86743V72.7238C144.036 73.5927 146 75.3304 148.294 75.3304C150.587 75.3304 152.725 73.5927 153.507 72.7238V2.86743" stroke="black" stroke-opacity="0.8"/>
<path d="M180.875 24.7627V94.6191C181.571 95.4879 183.534 97.2257 185.828 97.2257C188.122 97.2257 190.259 95.4879 191.041 94.6191V24.7627" stroke="black" stroke-opacity="0.8"/>
<path d="M242.391 60.2119V130.068C243.086 130.937 245.05 132.675 247.344 132.675C249.637 132.675 251.775 130.937 252.557 130.068V60.2119" stroke="black" stroke-opacity="0.8"/>
<path d="M279.926 82.1074V151.964C280.621 152.833 282.584 154.57 284.878 154.57C287.172 154.57 289.309 152.833 290.091 151.964V82.1074" stroke="black" stroke-opacity="0.8"/>
<path d="M148.293 0.5C149.741 0.5 151.026 0.807985 151.932 1.28223C152.861 1.76894 153.267 2.35467 153.267 2.86719C153.267 3.37972 152.861 3.96542 151.932 4.45215C151.026 4.9264 149.741 5.23438 148.293 5.23438C146.846 5.23435 145.56 4.92645 144.655 4.45215C143.725 3.96543 143.32 3.37971 143.32 2.86719C143.32 2.35467 143.725 1.76893 144.655 1.28223C145.56 0.807925 146.846 0.500027 148.293 0.5Z" stroke="black" stroke-opacity="0.8"/>
<path d="M185.828 22.3955C187.275 22.3955 188.561 22.7035 189.467 23.1777C190.396 23.6644 190.801 24.2502 190.802 24.7627C190.802 25.2752 190.396 25.8609 189.467 26.3476C188.561 26.8219 187.275 27.1299 185.828 27.1299C184.381 27.1298 183.095 26.8219 182.189 26.3476C181.26 25.8609 180.854 25.2752 180.854 24.7627C180.854 24.2502 181.26 23.6644 182.189 23.1777C183.095 22.7034 184.381 22.3955 185.828 22.3955Z" stroke="black" stroke-opacity="0.8"/>
<path d="M216.586 39.5989C218.033 39.5989 219.319 39.9068 220.224 40.3811C221.154 40.8678 221.559 41.4535 221.559 41.966C221.559 42.4786 221.154 43.0643 220.224 43.551C219.319 44.0253 218.033 44.3332 216.586 44.3332C215.138 44.3332 213.853 44.0253 212.947 43.551C212.018 43.0643 211.612 42.4786 211.612 41.966C211.612 41.4535 212.018 40.8678 212.947 40.3811C213.853 39.9068 215.138 39.5989 216.586 39.5989Z" stroke="black" stroke-opacity="0.8"/>
<path d="M216.846 41.1626C217.344 41.1626 217.77 41.2895 218.056 41.4683C218.349 41.6515 218.432 41.8411 218.432 41.9663C218.432 42.0916 218.349 42.2804 218.056 42.4634C217.77 42.6422 217.344 42.7691 216.846 42.7691C216.35 42.769 215.923 42.6421 215.637 42.4634C215.345 42.2804 215.262 42.0916 215.261 41.9663C215.261 41.841 215.344 41.6515 215.637 41.4683C215.923 41.2896 216.35 41.1627 216.846 41.1626Z" stroke="black" stroke-opacity="0.8"/>
<path d="M247.344 57.8447C248.791 57.8447 250.077 58.1527 250.982 58.627C251.911 59.1137 252.317 59.6994 252.317 60.2119C252.317 60.7245 251.911 61.3102 250.982 61.7969C250.077 62.2712 248.791 62.5791 247.344 62.5791C245.896 62.5791 244.61 62.2712 243.705 61.7969C242.776 61.3102 242.37 60.7245 242.37 60.2119C242.37 59.6994 242.776 59.1137 243.705 58.627C244.61 58.1527 245.896 57.8448 247.344 57.8447Z" stroke="black" stroke-opacity="0.8"/>
<path d="M284.878 79.7402C286.325 79.7402 287.611 80.0482 288.517 80.5225C289.446 81.0092 289.852 81.5949 289.852 82.1074C289.852 82.62 289.446 83.2057 288.517 83.6924C287.611 84.1666 286.325 84.4746 284.878 84.4746C283.431 84.4746 282.145 84.1667 281.24 83.6924C280.31 83.2057 279.905 82.6199 279.905 82.1074C279.905 81.5949 280.31 81.0092 281.24 80.5225C282.145 80.0482 283.431 79.7403 284.878 79.7402Z" stroke="black" stroke-opacity="0.8"/>
<path d="M239.002 223.102C239.435 223.102 239.803 223.203 240.045 223.341C240.301 223.488 240.327 223.614 240.327 223.645C240.327 223.677 240.3 223.802 240.045 223.948C239.803 224.086 239.435 224.187 239.002 224.187C238.569 224.187 238.202 224.086 237.96 223.948C237.705 223.802 237.678 223.677 237.678 223.645C237.678 223.614 237.704 223.488 237.96 223.341C238.202 223.203 238.569 223.102 239.002 223.102Z" stroke="black" stroke-opacity="0.8"/>
<path d="M255.684 232.486C256.117 232.486 256.485 232.587 256.727 232.725C256.983 232.871 257.009 232.998 257.009 233.029C257.009 233.06 256.982 233.186 256.727 233.332C256.485 233.47 256.117 233.571 255.684 233.571C255.251 233.571 254.884 233.47 254.642 233.332C254.387 233.186 254.36 233.06 254.36 233.029C254.36 232.998 254.386 232.871 254.642 232.725C254.884 232.587 255.251 232.486 255.684 232.486Z" stroke="black" stroke-opacity="0.8"/>
<path d="M276.537 244.998C276.97 244.998 277.338 245.099 277.58 245.237C277.835 245.383 277.862 245.509 277.862 245.541C277.862 245.572 277.834 245.698 277.58 245.843C277.338 245.981 276.97 246.083 276.537 246.083C276.104 246.082 275.736 245.981 275.495 245.843C275.24 245.698 275.213 245.572 275.212 245.541C275.212 245.509 275.239 245.383 275.495 245.237C275.736 245.099 276.104 244.998 276.537 244.998Z" stroke="black" stroke-opacity="0.8"/>
<path d="M293.219 254.381C293.652 254.381 294.02 254.482 294.262 254.62C294.518 254.767 294.544 254.893 294.544 254.924C294.544 254.956 294.517 255.081 294.262 255.227C294.02 255.365 293.652 255.466 293.219 255.466C292.786 255.466 292.419 255.365 292.177 255.227C291.922 255.081 291.895 254.956 291.895 254.924C291.895 254.893 291.921 254.767 292.177 254.62C292.419 254.482 292.786 254.381 293.219 254.381Z" stroke="black" stroke-opacity="0.8"/>
<path d="M245.258 154.049C245.05 154.258 239.611 157.438 236.917 159.002C236.754 159.056 236.445 159.125 236.135 159.116V168.755C236.477 168.773 236.857 168.753 237.178 168.646C237.804 168.437 242.826 165.431 245.258 163.954L245.355 153.879C245.337 153.943 245.307 154.001 245.258 154.049Z" fill="#7EB769"/>
<path fill-rule="evenodd" clip-rule="evenodd" d="M230.662 145.187C230.036 144.978 229.532 145.1 229.358 145.187L220.757 150.139C220.757 150.188 220.766 150.238 220.782 150.286C220.833 150.446 220.951 150.594 221.017 150.66C225.709 153.354 235.197 158.793 235.614 159.002C235.769 159.079 235.952 159.111 236.135 159.116C236.445 159.125 236.754 159.056 236.917 159.002C239.611 157.438 245.05 154.258 245.258 154.049C245.307 154.001 245.337 153.943 245.355 153.879C245.413 153.668 245.325 153.401 245.258 153.267C240.654 150.66 231.287 145.395 230.662 145.187ZM233.529 149.618V151.182C233.616 151.79 233.737 153.111 233.529 153.528C233.268 154.049 232.747 154.049 231.965 154.31C231.339 154.518 230.314 154.049 229.88 153.788V151.182V150.4V149.618L230.662 148.836L231.704 148.575L232.747 148.836L233.529 149.618Z" fill="#7EB769"/>
<path d="M235.614 159.002C235.197 158.793 225.709 153.354 221.017 150.66C220.951 150.594 220.833 150.446 220.782 150.286L220.768 155.874L224.176 157.492L225.709 158.22V161.087L220.76 159.002L220.757 160.305L235.353 168.646C235.523 168.688 235.811 168.739 236.135 168.755V159.116C235.952 159.111 235.769 159.079 235.614 159.002Z" fill="#7EB769"/>
<path d="M229.88 151.182L230.401 151.703H232.486L233.529 151.182V149.618L232.747 148.836L231.704 148.575L230.662 148.836L229.88 149.618V150.4V151.182Z" fill="#7EB769"/>
<path d="M230.401 151.703L229.88 151.182V153.788C230.314 154.049 231.339 154.518 231.965 154.31C232.747 154.049 233.268 154.049 233.529 153.528C233.737 153.111 233.616 151.79 233.529 151.182L232.486 151.703H230.401Z" fill="#7EB769"/>
<path d="M225.709 161.087V158.22L224.176 157.492L220.768 155.874L220.76 159.002L225.709 161.087Z" fill="#7EB769"/>
<path d="M220.782 150.286C220.833 150.446 220.951 150.594 221.017 150.66C225.709 153.354 235.197 158.793 235.614 159.002C235.769 159.079 235.952 159.111 236.135 159.116M220.782 150.286C220.766 150.238 220.757 150.188 220.757 150.139L229.358 145.187C229.532 145.1 230.036 144.978 230.662 145.187C231.287 145.395 240.654 150.66 245.258 153.267C245.325 153.401 245.413 153.668 245.355 153.879M220.782 150.286L220.768 155.874M236.135 159.116C236.445 159.125 236.754 159.056 236.917 159.002C239.611 157.438 245.05 154.258 245.258 154.049C245.307 154.001 245.337 153.943 245.355 153.879M236.135 159.116V168.755M245.355 153.879L245.258 163.954C242.826 165.431 237.804 168.437 237.178 168.646C236.857 168.753 236.477 168.773 236.135 168.755M220.768 155.874L220.76 159.002M220.768 155.874L224.176 157.492M236.135 168.755C235.811 168.739 235.523 168.688 235.353 168.646L220.757 160.305L220.76 159.002M220.76 159.002L225.709 161.087V158.22L224.176 157.492M229.88 149.618L226.752 147.793L222.581 150.139L236.135 158.22L240.306 155.874L233.79 151.703M229.88 149.618L230.662 148.836L231.704 148.575L232.747 148.836L233.529 149.618V151.182M229.88 149.618V150.4M233.529 151.182L232.486 151.703H230.401L229.88 151.182M233.529 151.182C233.616 151.79 233.737 153.111 233.529 153.528C233.268 154.049 232.747 154.049 231.965 154.31C231.339 154.518 230.314 154.049 229.88 153.788M229.88 150.4V151.182M229.88 150.4V153.788M229.88 151.182V153.788M224.176 157.492C224.188 157.492 224.199 157.492 224.21 157.492M224.176 157.492C223.456 157.506 221.633 157.975 221.017 159.002" stroke="black"/>
</g>
<defs>
<clipPath id="clip0_310_284">
<rect width="304" height="266" fill="white"/>
</clipPath>
</defs>
</svg>
