<svg width="45" height="45" viewBox="0 0 45 45" fill="none" xmlns="http://www.w3.org/2000/svg">
<path d="M1.70151 31.1977C2.64141 31.1977 3.40303 31.9603 3.40303 32.8992V38.0989C3.40303 39.0266 3.77158 39.9164 4.4276 40.5724C5.08362 41.2284 5.97338 41.597 6.90114 41.597H12.1008C12.552 41.597 12.9848 41.7762 13.3039 42.0953C13.623 42.4144 13.8023 42.8472 13.8023 43.2985C13.8023 43.7498 13.623 44.1825 13.3039 44.5016C12.9848 44.8207 12.552 45 12.1008 45H6.90114C5.07084 45 3.31551 44.2729 2.0213 42.9787C0.727082 41.6845 0 39.9292 0 38.0989V32.8992C0 31.9594 0.762611 31.1977 1.70151 31.1977ZM43.2985 31.1977C44.2384 31.1977 45 31.9603 45 32.8992V38.0989C45 39.9292 44.2729 41.6845 42.9787 42.9787C41.6845 44.2729 39.9292 45 38.0989 45H32.8992C32.448 45 32.0152 44.8207 31.6961 44.5016C31.377 44.1825 31.1977 43.7498 31.1977 43.2985C31.1977 42.8472 31.377 42.4144 31.6961 42.0953C32.0152 41.7762 32.448 41.597 32.8992 41.597H38.0989C39.0266 41.597 39.9164 41.2284 40.5724 40.5724C41.2284 39.9164 41.597 39.0266 41.597 38.0989V32.8992C41.597 31.9594 42.3596 31.1977 43.2985 31.1977ZM12.1008 0C12.552 0 12.9848 0.179266 13.3039 0.498362C13.623 0.817458 13.8023 1.25024 13.8023 1.70151C13.8023 2.15278 13.623 2.58557 13.3039 2.90467C12.9848 3.22376 12.552 3.40303 12.1008 3.40303H6.90114C5.97338 3.40303 5.08362 3.77158 4.4276 4.4276C3.77158 5.08362 3.40303 5.97338 3.40303 6.90114V12.1008C3.40303 12.552 3.22376 12.9848 2.90467 13.3039C2.58557 13.623 2.15278 13.8023 1.70151 13.8023C1.25024 13.8023 0.817458 13.623 0.498362 13.3039C0.179266 12.9848 0 12.552 0 12.1008V6.90114C0 5.07084 0.727082 3.31551 2.0213 2.0213C3.31551 0.727082 5.07084 0 6.90114 0H12.1008ZM38.0989 0C39.9292 0 41.6845 0.727082 42.9787 2.0213C44.2729 3.31551 45 5.07084 45 6.90114V12.1008C45 12.552 44.8207 12.9848 44.5016 13.3039C44.1825 13.623 43.7498 13.8023 43.2985 13.8023C42.8472 13.8023 42.4144 13.623 42.0953 13.3039C41.7762 12.9848 41.597 12.552 41.597 12.1008V6.90114C41.597 5.97338 41.2284 5.08362 40.5724 4.4276C39.9164 3.77158 39.0266 3.40303 38.0989 3.40303H32.8992C32.448 3.40303 32.0152 3.22376 31.6961 2.90467C31.377 2.58557 31.1977 2.15278 31.1977 1.70151C31.1977 1.25024 31.377 0.817458 31.6961 0.498362C32.0152 0.179266 32.448 0 32.8992 0H38.0989Z" fill="url(#paint0_linear_473_345)"/>
<path d="M32.2383 33.6367C32.933 34.9682 31.9667 36.5625 30.4648 36.5625H14.8291C13.3272 36.5625 12.361 34.9683 13.0557 33.6367L14.7451 30.3975C16.9839 31.7626 19.6296 32.5527 22.4648 32.5527C25.4164 32.5527 28.1625 31.6965 30.458 30.2266L32.2383 33.6367ZM22.5283 5.625C29.5339 5.625 35.2137 11.3041 35.2139 18.3096C35.2139 25.3152 29.534 30.9951 22.5283 30.9951C15.5228 30.995 9.84375 25.3151 9.84375 18.3096C9.84389 11.3041 15.5229 5.62514 22.5283 5.625ZM22.5283 11.3066C18.6607 11.3067 15.5255 14.442 15.5254 18.3096C15.5254 22.1772 18.6607 25.3124 22.5283 25.3125C26.396 25.3125 29.5312 22.1773 29.5312 18.3096C29.5312 14.4419 26.396 11.3066 22.5283 11.3066ZM23.3623 7.15039C22.4641 7.15039 21.7354 7.87821 21.7354 8.77637C21.7355 9.67443 22.4642 10.4023 23.3623 10.4023C24.2602 10.4021 24.9882 9.67428 24.9883 8.77637C24.9883 7.87836 24.2603 7.15063 23.3623 7.15039Z" fill="url(#paint1_linear_473_345)"/>
<path d="M22.4647 22.3468C24.8804 22.3468 26.8387 20.5516 26.8387 18.3372C26.8387 16.1228 24.8804 14.3276 22.4647 14.3276C20.0489 14.3276 18.0906 16.1228 18.0906 18.3372C18.0906 20.5516 20.0489 22.3468 22.4647 22.3468Z" fill="url(#paint2_linear_473_345)"/>
<defs>
<linearGradient id="paint0_linear_473_345" x1="22.5" y1="45" x2="22.5" y2="5.16397e-07" gradientUnits="userSpaceOnUse">
<stop offset="0.07" stop-color="#2570EC"/>
<stop offset="0.66" stop-color="#7EB6FF"/>
</linearGradient>
<linearGradient id="paint1_linear_473_345" x1="22.5288" y1="36.5625" x2="22.5288" y2="5.625" gradientUnits="userSpaceOnUse">
<stop offset="0.07" stop-color="#2570EC"/>
<stop offset="0.66" stop-color="#7EB6FF"/>
</linearGradient>
<linearGradient id="paint2_linear_473_345" x1="22.4647" y1="22.3468" x2="22.4647" y2="14.3276" gradientUnits="userSpaceOnUse">
<stop offset="0.07" stop-color="#2570EC"/>
<stop offset="0.66" stop-color="#7EB6FF"/>
</linearGradient>
</defs>
</svg>
