<svg width="29" height="21" viewBox="0 0 29 21" fill="none" xmlns="http://www.w3.org/2000/svg">
<path d="M21.6 4.41602C21.12 4.32 20.64 4.032 20.352 3.648C18.912 1.44 16.416 0 13.536 0C9.6 0 6.336 2.688 5.568 6.24002C5.472 6.81602 5.088 7.29602 4.512 7.58402C1.824 8.64002 0 11.04 0 13.824C0 17.472 3.168 20.544 7.2 20.736H20.736C25.248 20.736 28.8 17.088 28.8 12.576C28.8 8.44802 25.632 5.08802 21.6 4.41602ZM25.152 14.496C24.864 15.168 24.48 15.744 23.904 16.32C22.848 17.376 21.408 17.952 19.968 17.952H8.064C6.72 17.856 5.472 17.376 4.608 16.512C3.744 15.648 3.264 14.592 3.264 13.44C3.264 12.48 3.648 11.52 4.224 10.752C4.512 10.368 4.896 9.98402 5.376 9.69602C5.856 9.40802 6.336 9.21602 6.912 9.02402C7.584 8.83202 8.064 8.25602 8.064 7.58402C8.16 6.24002 8.736 4.99202 9.792 4.128C10.848 3.168 12.192 2.688 13.632 2.688C14.688 2.688 15.744 2.976 16.704 3.552C17.568 4.128 18.24 4.80002 18.72 5.66402C19.008 6.14402 19.488 6.52802 20.064 6.52802C21.6 6.62402 23.04 7.29602 24.096 8.35202C25.152 9.40802 25.728 10.752 25.728 12.288C25.632 13.056 25.536 13.824 25.152 14.496Z" fill="#444444"/>
</svg>
