<svg width="188" height="67" viewBox="0 0 188 67" fill="none" xmlns="http://www.w3.org/2000/svg">
<path d="M60.9094 35.8762H63.051V19H64.7678V35.4551H64.7885V35.8479H66.9094L63.8999 40L60.9094 35.8762Z" fill="black" stroke="black"/>
<path d="M0.909424 53.1419H2.33717V66H3.48168V53.4627H3.49545V53.1635H4.90942L2.90307 50L0.909424 53.1419Z" fill="black" stroke="black"/>
<path d="M85.4094 33.4375H92.6284V35.4062H90.6594L86.0654 40H84.7534L80.1594 35.4062H78.1904V33.4375H85.4094Z" fill="black"/>
<path d="M95.9094 22.2812V20.3125H92.6284V19H85.4094H78.1904V20.3125H74.9094V22.2812H78.1904V24.25H74.9094V26.2187H78.1904V28.1875H74.9094V30.1562H78.1904V32.125H92.6284V30.1562H95.9094V28.1875H92.6284V26.2187H95.9094V24.25H92.6284V22.2812H95.9094Z" fill="black"/>
<path d="M110.409 28.9375H117.628V30.9062H115.659L111.065 35.5H109.753L105.159 30.9062H103.19V28.9375H110.409Z" fill="black"/>
<path d="M120.909 17.7812V15.8125H117.628V14.5H110.409H103.19V15.8125H99.9094V17.7812H103.19V19.75H99.9094V21.7187H103.19V23.6875H99.9094V25.6562H103.19V27.625H117.628V25.6562H120.909V23.6875H117.628V21.7187H120.909V19.75H117.628V17.7812H120.909Z" fill="black"/>
<path d="M187.409 0.5H11.4094V14.5H187.409V0.5Z" stroke="black"/>
<path d="M10.9094 63.0001H186.909M10.9094 63.0001V66.0001H186.909V63.0001M10.9094 63.0001L18.9094 54.5H177.909L186.909 63.0001" stroke="black"/>
<path d="M85.9094 62C90.3277 62 93.9094 60.6569 93.9094 59C93.9094 57.3431 90.3277 56 85.9094 56C81.4911 56 77.9094 57.3431 77.9094 59C77.9094 60.6569 81.4911 62 85.9094 62Z" fill="black" fill-opacity="0.3"/>
<path d="M85.9094 61C89.2231 61 91.9094 60.1046 91.9094 59C91.9094 57.8954 89.2231 57 85.9094 57C82.5957 57 79.9094 57.8954 79.9094 59C79.9094 60.1046 82.5957 61 85.9094 61Z" fill="black" fill-opacity="0.5"/>
<path d="M85.9094 60C88.1186 60 89.9094 59.5523 89.9094 59C89.9094 58.4477 88.1186 58 85.9094 58C83.7003 58 81.9094 58.4477 81.9094 59C81.9094 59.5523 83.7003 60 85.9094 60Z" fill="black"/>
<rect x="79.9094" y="14" width="11" height="6" fill="black"/>
</svg>
