<svg width="189" height="67" viewBox="0 0 189 67" fill="none" xmlns="http://www.w3.org/2000/svg">
<path d="M119.5 35.8762H121.642V19H123.358V35.4551H123.379V35.8479H125.5L122.49 40L119.5 35.8762Z" fill="black" stroke="black"/>
<path d="M183.5 53.1419H184.928V66H186.072V53.4627H186.086V53.1635H187.5L185.494 50L183.5 53.1419Z" fill="black" stroke="black"/>
<path d="M75 28.9375H82.219V30.9062H80.25L75.656 35.5H74.344L69.75 30.9062H67.781V28.9375H75Z" fill="black"/>
<path d="M85.5 17.7812V15.8125H82.219V14.5H75H67.781V15.8125H64.5V17.7812H67.781V19.75H64.5V21.7187H67.781V23.6875H64.5V25.6562H67.781V27.625H82.219V25.6562H85.5V23.6875H82.219V21.7187H85.5V19.75H82.219V17.7812H85.5Z" fill="black"/>
<path d="M100 33.9375H107.219V35.9062H105.25L100.656 40.5H99.344L94.75 35.9062H92.781V33.9375H100Z" fill="black"/>
<path d="M110.5 22.7812V20.8125H107.219V19.5H100H92.781V20.8125H89.5V22.7812H92.781V24.75H89.5V26.7187H92.781V28.6875H89.5V30.6562H92.781V32.625H107.219V30.6562H110.5V28.6875H107.219V26.7187H110.5V24.75H107.219V22.7812H110.5Z" fill="black"/>
<path d="M177 0.5H1V14.5H177V0.5Z" stroke="black"/>
<path d="M0.5 63.0001H176.5M0.5 63.0001V66.0001H176.5V63.0001M0.5 63.0001L8.5 54.5H167.5L176.5 63.0001" stroke="black"/>
<path d="M100.5 62C104.918 62 108.5 60.6569 108.5 59C108.5 57.3431 104.918 56 100.5 56C96.0817 56 92.5 57.3431 92.5 59C92.5 60.6569 96.0817 62 100.5 62Z" fill="black" fill-opacity="0.3"/>
<path d="M100.5 61C103.814 61 106.5 60.1046 106.5 59C106.5 57.8954 103.814 57 100.5 57C97.1863 57 94.5 57.8954 94.5 59C94.5 60.1046 97.1863 61 100.5 61Z" fill="black" fill-opacity="0.5"/>
<path d="M100.5 60C102.709 60 104.5 59.5523 104.5 59C104.5 58.4477 102.709 58 100.5 58C98.2909 58 96.5 58.4477 96.5 59C96.5 59.5523 98.2909 60 100.5 60Z" fill="black"/>
<rect x="94.5" y="14" width="11" height="6" fill="black"/>
</svg>
