<svg width="274" height="173" viewBox="0 0 274 173" fill="none" xmlns="http://www.w3.org/2000/svg">
<g clip-path="url(#clip0_310_308)">
<path d="M132.278 75.0146H129.581V96.5H127.419V75.5507H127.393V75.0507H124.722L128.512 69.7646L132.278 75.0146Z" fill="black" stroke="black"/>
<path d="M146.278 90.9853H143.581V69.5H141.419V90.4492H141.393V90.9492H138.722L142.512 96.2353L146.278 90.9853Z" fill="black" stroke="black"/>
<path d="M122.5 49.4375H129.719V51.4062H127.75L123.156 56H121.844L117.25 51.4062H115.281V49.4375H122.5Z" fill="black"/>
<path d="M133 38.2812V36.3125H129.719V35H122.5H115.281V36.3125H112V38.2812H115.281V40.25H112V42.2187H115.281V44.1875H112V46.1562H115.281V48.125H129.719V46.1562H133V44.1875H129.719V42.2187H133V40.25H129.719V38.2812H133Z" fill="black"/>
<path d="M147.5 49.4375H154.719V51.4062H152.75L148.156 56H146.844L142.25 51.4062H140.281V49.4375H147.5Z" fill="black"/>
<path d="M158 38.2812V36.3125H154.719V35H147.5H140.281V36.3125H137V38.2812H140.281V40.25H137V42.2187H140.281V44.1875H137V46.1562H140.281V48.125H154.719V46.1562H158V44.1875H154.719V42.2187H158V40.25H154.719V38.2812H158Z" fill="black"/>
<path d="M224.5 21.5H48.5V35.5H224.5V21.5Z" stroke="black"/>
<path d="M219.037 0.5L273.318 172.5H0.680664L54.4912 0.5H219.037Z" stroke="black"/>
<path d="M123 118.636C127.418 118.636 131 116.031 131 112.818C131 109.605 127.418 107 123 107C118.582 107 115 109.605 115 112.818C115 116.031 118.582 118.636 123 118.636Z" fill="black" fill-opacity="0.3"/>
<path d="M123 116.454C126.213 116.454 128.818 114.826 128.818 112.818C128.818 110.81 126.213 109.182 123 109.182C119.787 109.182 117.182 110.81 117.182 112.818C117.182 114.826 119.787 116.454 123 116.454Z" fill="black" fill-opacity="0.5"/>
<path d="M123 115C125.008 115 126.636 114.023 126.636 112.818C126.636 111.613 125.008 110.636 123 110.636C120.992 110.636 119.364 111.613 119.364 112.818C119.364 114.023 120.992 115 123 115Z" fill="black"/>
<path d="M148 118.636C152.418 118.636 156 116.031 156 112.818C156 109.605 152.418 107 148 107C143.582 107 140 109.605 140 112.818C140 116.031 143.582 118.636 148 118.636Z" fill="black" fill-opacity="0.3"/>
<path d="M148 116.454C151.213 116.454 153.818 114.826 153.818 112.818C153.818 110.81 151.213 109.182 148 109.182C144.787 109.182 142.182 110.81 142.182 112.818C142.182 114.826 144.787 116.454 148 116.454Z" fill="black" fill-opacity="0.5"/>
<path d="M148 115C150.008 115 151.636 114.023 151.636 112.818C151.636 111.613 150.008 110.636 148 110.636C145.992 110.636 144.364 111.613 144.364 112.818C144.364 114.023 145.992 115 148 115Z" fill="black"/>
</g>
<defs>
<clipPath id="clip0_310_308">
<rect width="274" height="173" fill="white"/>
</clipPath>
</defs>
</svg>
