<svg width="50" height="50" viewBox="0 0 50 50" fill="none" xmlns="http://www.w3.org/2000/svg">
<g clip-path="url(#clip0_16_3)">
<path d="M50 25C50 25.4093 49.99 25.8183 49.97 26.227C49.95 26.6357 49.92 27.0433 49.88 27.45C49.84 27.8573 49.7897 28.2633 49.7291 28.668C49.6691 29.0727 49.5991 29.476 49.5191 29.878C49.4391 30.2787 49.3495 30.6777 49.2501 31.075C49.1508 31.4717 49.0419 31.8657 48.9232 32.257C48.8046 32.6483 48.6763 33.0367 48.5383 33.422C48.4003 33.8073 48.253 34.189 48.0964 34.567C47.9397 34.945 47.7741 35.319 47.5995 35.689C47.4242 36.059 47.2402 36.4243 47.0476 36.785C46.8543 37.1457 46.6527 37.5017 46.4427 37.853C46.2328 38.2037 46.0141 38.549 45.7868 38.889C45.5596 39.229 45.3239 39.5633 45.08 39.892C44.836 40.2207 44.5844 40.5433 44.3251 40.86C44.0652 41.176 43.7979 41.4857 43.5233 41.789C43.2487 42.0923 42.9667 42.3887 42.6775 42.678C42.3882 42.9673 42.0919 43.2493 41.7886 43.524C41.4854 43.7987 41.1754 44.0657 40.8588 44.325C40.5429 44.585 40.2206 44.8367 39.892 45.08C39.5634 45.324 39.2292 45.5597 38.8892 45.787C38.5493 46.0137 38.2037 46.2323 37.8524 46.443C37.5012 46.6537 37.1452 46.8553 36.7846 47.048C36.424 47.2413 36.0588 47.4253 35.6889 47.6C35.3189 47.7747 34.945 47.9403 34.5671 48.097C34.1892 48.2537 33.8076 48.401 33.4223 48.539C33.0371 48.6763 32.6485 48.8043 32.2565 48.923C31.8653 49.0423 31.4714 49.1517 31.0748 49.251C30.6775 49.3503 30.2783 49.44 29.877 49.52C29.4758 49.6 29.0725 49.67 28.6673 49.73C28.2633 49.79 27.8578 49.84 27.4505 49.88C27.0433 49.92 26.6353 49.95 26.2268 49.97C25.8182 49.99 25.4093 50 25 50C24.5907 50 24.1818 49.99 23.7732 49.97C23.3647 49.95 22.9567 49.92 22.5495 49.88C22.1429 49.84 21.737 49.79 21.3317 49.73C20.9271 49.67 20.5239 49.6 20.122 49.52C19.7214 49.44 19.3225 49.35 18.9252 49.25C18.5286 49.1513 18.1344 49.0423 17.7425 48.923C17.3512 48.8043 16.9629 48.6763 16.5777 48.539C16.1924 48.401 15.8108 48.2537 15.4329 48.097C15.055 47.9403 14.6811 47.7747 14.3111 47.6C13.9412 47.4247 13.576 47.2407 13.2154 47.048C12.8541 46.8547 12.4982 46.653 12.1476 46.443C11.7963 46.233 11.4507 46.0143 11.1108 45.787C10.7708 45.5597 10.4366 45.324 10.108 45.08C9.77938 44.8367 9.45678 44.585 9.14017 44.325C8.82423 44.065 8.5143 43.798 8.21036 43.524C7.90775 43.2493 7.61181 42.9673 7.32254 42.678C7.03326 42.3887 6.75132 42.0923 6.4767 41.789C6.20143 41.4857 5.93415 41.1757 5.67486 40.859C5.41492 40.543 5.1633 40.2207 4.92002 39.892C4.67606 39.564 4.44044 39.2297 4.21316 38.889C3.98654 38.549 3.76791 38.2037 3.55729 37.853C3.34666 37.5017 3.14504 37.1457 2.95241 36.785C2.75911 36.4243 2.57515 36.059 2.40052 35.689C2.22522 35.319 2.05925 34.945 1.90262 34.567C1.74665 34.189 1.59968 33.8073 1.46171 33.422C1.32374 33.0367 1.19543 32.6483 1.07678 32.257C0.958142 31.8657 0.84883 31.4717 0.74885 31.075C0.649537 30.6777 0.560221 30.2783 0.480904 29.877C0.40092 29.4757 0.330934 29.0727 0.270946 28.668C0.210958 28.2633 0.160968 27.8573 0.120976 27.45C0.0809838 27.0433 0.0509898 26.6357 0.0309938 26.227C0.0103313 25.8183 0 25.4093 0 25C0 24.5907 0.009998 24.1817 0.029994 23.773C0.04999 23.3643 0.079984 22.9567 0.119976 22.55C0.159968 22.1427 0.209958 21.7367 0.269946 21.332C0.329934 20.9273 0.39992 20.524 0.479904 20.122C0.559888 19.7213 0.649203 19.3223 0.74785 18.925C0.84783 18.5283 0.957142 18.1343 1.07578 17.743C1.19443 17.3517 1.32274 16.9633 1.46071 16.578C1.59868 16.1927 1.74565 15.811 1.90162 15.433C2.05825 15.055 2.22422 14.681 2.39952 14.311C2.57415 13.941 2.75812 13.5757 2.95141 13.215C3.14404 12.8543 3.34566 12.4983 3.55629 12.147C3.76625 11.7963 3.98487 11.451 4.21216 11.111C4.43945 10.771 4.67506 10.4363 4.91902 10.107C5.16297 9.779 5.41458 9.45667 5.67387 9.14C5.93381 8.824 6.20109 8.51433 6.4757 8.211C6.75032 7.90767 7.03226 7.61133 7.32154 7.322C7.61081 7.03267 7.90709 6.75067 8.21036 6.476C8.51363 6.20133 8.82324 5.93433 9.13917 5.675C9.45578 5.415 9.77838 5.16333 10.107 4.92C10.4356 4.676 10.7698 4.44033 11.1098 4.213C11.4497 3.98633 11.7953 3.76767 12.1466 3.557C12.4972 3.34633 12.8531 3.14467 13.2144 2.952C13.575 2.75867 13.9402 2.57467 14.3101 2.4C14.6801 2.22533 15.054 2.05967 15.4319 1.903C15.8098 1.74633 16.1914 1.599 16.5767 1.461C16.9619 1.32367 17.3502 1.19533 17.7415 1.076C18.1334 0.957333 18.5276 0.848333 18.9242 0.749C19.3221 0.649667 19.7217 0.56 20.123 0.48C20.5242 0.4 20.9271 0.33 21.3317 0.27C21.7363 0.21 22.1422 0.16 22.5495 0.12C22.9561 0.08 23.364 0.05 23.7732 0.03C24.1818 0.01 24.5907 0 25 0C25.4093 0 25.8182 0.01 26.2268 0.03C26.6353 0.05 27.0433 0.08 27.4505 0.12C27.8571 0.16 28.263 0.21 28.6683 0.27C29.0729 0.33 29.4761 0.4 29.878 0.48C30.2786 0.56 30.6775 0.65 31.0748 0.75C31.4714 0.848667 31.8653 0.957333 32.2565 1.076C32.6485 1.19533 33.0371 1.32367 33.4223 1.461C33.8076 1.599 34.1892 1.74633 34.5671 1.903C34.945 2.05967 35.3189 2.22533 35.6889 2.4C36.0588 2.57533 36.424 2.75933 36.7846 2.952C37.1452 3.14533 37.5012 3.347 37.8524 3.557C38.203 3.767 38.5486 3.98567 38.8892 4.213C39.2292 4.44033 39.5634 4.676 39.892 4.92C40.2206 5.16333 40.5432 5.415 40.8598 5.675C41.1758 5.935 41.4857 6.202 41.7896 6.476C42.0922 6.75067 42.3882 7.03267 42.6775 7.322C42.9667 7.61133 43.2487 7.90767 43.5233 8.211C43.7979 8.51433 44.0652 8.82433 44.3251 9.141C44.5851 9.457 44.8367 9.779 45.08 10.107C45.3239 10.4363 45.5596 10.771 45.7868 11.111C46.0135 11.451 46.2321 11.7963 46.4427 12.147C46.6533 12.4983 46.855 12.8543 47.0476 13.215C47.2409 13.5757 47.4249 13.941 47.5995 14.311C47.7741 14.681 47.9397 15.055 48.0964 15.433C48.253 15.811 48.4003 16.1927 48.5383 16.578C48.6763 16.9633 48.8046 17.3517 48.9232 17.743C49.0419 18.1343 49.1508 18.5287 49.2501 18.926C49.3501 19.3227 49.4401 19.7217 49.5201 20.123C49.5994 20.5243 49.6691 20.9273 49.7291 21.332C49.789 21.7367 49.839 22.1427 49.879 22.55C49.919 22.9567 49.949 23.3643 49.969 23.773C49.989 24.1817 49.999 24.5907 49.999 25H50Z" fill="#FF0000"/>
<path d="M7.00187 26.8254H8.96165C8.94843 27.1788 9.0758 27.5237 9.31746 27.7887C9.54439 27.9901 9.81256 28.1429 10.1045 28.2372C10.3964 28.3315 10.7056 28.3652 11.0118 28.336C11.4852 28.3557 11.9573 28.2753 12.3955 28.1007C12.5956 28.0196 12.7655 27.8814 12.8826 27.7044C12.9996 27.5274 13.0583 27.3201 13.0507 27.11C13.054 26.9478 13.0095 26.788 12.9225 26.6494C12.8354 26.5107 12.7095 26.399 12.5593 26.3273C12.1611 26.1628 11.7467 26.0381 11.3224 25.9551L10.2719 25.7198C9.52257 25.5883 8.80106 25.3368 8.13708 24.9754C7.80891 24.7427 7.54781 24.4323 7.37873 24.0739C7.20965 23.7155 7.13823 23.3211 7.1713 22.9283C7.15336 22.2517 7.39482 21.5926 7.84904 21.0783C8.49289 20.3668 9.5189 20.011 10.9271 20.011C11.4823 19.9728 12.0395 20.0507 12.5608 20.2396C13.0822 20.4285 13.5555 20.7239 13.9487 21.1057C14.4525 21.64 14.7255 22.3415 14.7111 23.0652H12.7626C12.7419 22.7495 12.6217 22.4476 12.4181 22.2004C12.1988 21.998 11.9367 21.8442 11.65 21.7497C11.3633 21.6552 11.0588 21.6222 10.7577 21.653C10.3668 21.6394 9.97861 21.7203 9.62809 21.8884C9.45523 21.97 9.31014 22.0979 9.21004 22.257C9.10994 22.4161 9.05901 22.5997 9.06331 22.786C9.05381 22.9282 9.08142 23.0705 9.14361 23.1996C9.20579 23.3288 9.30055 23.4406 9.41912 23.5249C9.62615 23.6505 9.8563 23.736 10.0969 23.7767L12.4802 24.324C13.1255 24.4447 13.7351 24.7027 14.2649 25.0794C14.528 25.3006 14.7347 25.5777 14.8689 25.8891C15.0031 26.2006 15.0612 26.5378 15.0387 26.8746C15.0659 27.2977 14.9912 27.7212 14.8207 28.1116C14.6502 28.502 14.3884 28.8486 14.056 29.1242C13.2355 29.7373 12.2159 30.0459 11.1812 29.9945C9.59421 29.9945 8.4477 29.6168 7.75302 28.856C7.24362 28.2973 6.97477 27.5705 7.00187 26.8254ZM20.7373 21.9431V29.7482H18.6928V21.9431H15.739V20.2628H23.6911V21.9431H20.7373ZM24.4705 25.0027C24.4095 23.8411 24.7319 22.6908 25.3911 21.7187C25.8835 21.0613 26.5741 20.568 27.3678 20.3066C28.5241 19.8978 29.7922 19.8978 30.9485 20.3066C31.7415 20.5664 32.4308 21.0602 32.9196 21.7187C33.5889 22.6872 33.9195 23.8384 33.8628 25.0027C33.9221 26.165 33.5977 27.3154 32.9365 28.2868C32.4412 28.9353 31.7506 29.4191 30.9598 29.6715C29.8035 30.0803 28.5354 30.0803 27.3791 29.6715C26.587 29.4101 25.8982 28.9167 25.408 28.2594C24.7487 27.2969 24.4205 26.157 24.4705 25.0027ZM26.5093 25.0027C26.4677 25.4822 26.5274 25.9649 26.6847 26.4214C26.842 26.8778 27.0937 27.2983 27.4243 27.6573C27.6523 27.8769 27.9242 28.049 28.2234 28.1629C28.5225 28.2768 28.8426 28.3301 29.1638 28.3196C29.4855 28.3274 29.8056 28.2728 30.1053 28.1591C30.405 28.0453 30.6782 27.8748 30.909 27.6573C31.2377 27.2973 31.4878 26.8765 31.6441 26.4203C31.8004 25.964 31.8596 25.4818 31.8183 25.0027C31.8589 24.5246 31.7992 24.0434 31.643 23.5881C31.4867 23.1329 31.237 22.713 30.909 22.3536C30.435 21.9282 29.8127 21.6918 29.1666 21.6918C28.5206 21.6918 27.8983 21.9282 27.4243 22.3536C27.0941 22.7118 26.8427 23.1314 26.6854 23.5869C26.5281 24.0424 26.4682 24.5241 26.5093 25.0027ZM37.5338 26.3218V29.7482H35.495V20.2628H39.9624C40.371 20.2411 40.7797 20.3019 41.1628 20.4413C41.5459 20.5808 41.8948 20.7958 42.1876 21.0729C42.7508 21.6824 43.0413 22.4836 42.9953 23.3005C43.0011 23.9528 42.8043 24.5917 42.4305 25.1341C42.151 25.5315 41.7684 25.8505 41.3213 26.0591C40.8741 26.2676 40.3781 26.3582 39.8833 26.3218H37.5338ZM37.5338 24.6798H39.4258C39.6823 24.7099 39.9423 24.6718 40.1781 24.5696C40.4139 24.4674 40.6166 24.305 40.7644 24.0996C40.9038 23.8225 40.968 23.5154 40.9508 23.2075C40.9687 23.0203 40.9401 22.8317 40.8674 22.6574C40.7947 22.4832 40.68 22.3283 40.5328 22.2059C40.1161 21.9712 39.6351 21.8661 39.1548 21.9048H37.5338V24.6798Z" fill="white"/>
</g>
<defs>
<clipPath id="clip0_16_3">
<rect width="50" height="50" fill="white"/>
</clipPath>
</defs>
</svg>
