<?xml version="1.0" standalone="no"?><!DOCTYPE svg PUBLIC "-//W3C//DTD SVG 1.1//EN" "http://www.w3.org/Graphics/SVG/1.1/DTD/svg11.dtd"><svg t="1741054395799" class="icon" viewBox="0 0 1024 1024" version="1.1" xmlns="http://www.w3.org/2000/svg" p-id="9361" xmlns:xlink="http://www.w3.org/1999/xlink" width="32" height="32"><path d="M789.640533 664.8832H340.241067a27.204267 27.204267 0 1 1 0-54.442667h449.399466c22.4256 0 40.686933-18.261333 40.686934-40.686933V265.796267c0-22.4256-18.261333-40.686933-40.686934-40.686934H439.569067a27.204267 27.204267 0 1 1 0-54.442666h350.071466a95.232 95.232 0 0 1 95.1296 95.1296v303.957333a95.232 95.232 0 0 1-95.1296 95.1296z" fill="#2c2c2c" p-id="9362"></path><path d="M207.530667 539.2384a68.266667 68.266667 0 0 1-68.266667-68.266667V238.933333a68.266667 68.266667 0 0 1 68.266667-68.266666h106.359466a68.266667 68.266667 0 0 1 68.266667 68.266666v232.0384a68.266667 68.266667 0 0 1-68.266667 68.266667H207.496533z m-13.858134-71.509333a17.066667 17.066667 0 0 0 17.066667 17.066666h99.908267a17.066667 17.066667 0 0 0 17.066666-17.066666V242.176a17.066667 17.066667 0 0 0-17.066666-17.066667H210.7392a17.066667 17.066667 0 0 0-17.066667 17.066667v225.553067z" fill="#2c2c2c" p-id="9363"></path><path d="M354.9184 350.685867H188.450133a27.204267 27.204267 0 1 1 0-54.408534h166.468267a27.204267 27.204267 0 1 1 0 54.442667z m-94.208 502.5792a27.204267 27.204267 0 0 1-27.204267-27.204267v-314.094933a27.204267 27.204267 0 1 1 54.442667 0V826.026667c0 15.018667-12.1856 27.204267-27.2384 27.204266z" fill="#2c2c2c" p-id="9364"></path><path d="M260.7104 425.3696a27.204267 27.204267 0 0 1-27.204267-27.204267v-70.656a27.204267 27.204267 0 1 1 54.442667 0v70.656c0 15.018667-12.1856 27.204267-27.2384 27.204267zM543.402667 853.333333a27.204267 27.204267 0 0 1-27.204267-27.204266v-157.047467a27.204267 27.204267 0 1 1 54.442667 0v157.013333c0 15.0528-12.1856 27.2384-27.2384 27.2384z" fill="#2c2c2c" p-id="9365"></path><path d="M700.484267 853.333333h-314.129067a27.204267 27.204267 0 1 1 0-54.4768h314.129067a27.204267 27.204267 0 1 1 0 54.442667z" fill="#2c2c2c" p-id="9366"></path></svg>