<svg width="263" height="236" viewBox="0 0 263 236" fill="none" xmlns="http://www.w3.org/2000/svg">
<path d="M262 208.446L105.031 233.068C98.2594 233.889 79.6693 235.284 59.4788 234.3C39.2882 233.315 12.0802 233.068 1 233.068V5.30896H59.4788C64.4033 5.30896 71.7901 6.54009 82.2547 6.54009C92.7193 6.54009 105.031 5.30896 105.031 5.30896L262 1V5.30896V208.446Z" stroke="black"/>
<path d="M182.592 133.962V89.0259H186.285V133.962H182.592Z" stroke="black"/>
<path d="M191.21 133.962V88.4104H194.903V133.962H191.21Z" stroke="black"/>
<path d="M199.828 62.5566C198.802 63.7877 196.627 67.1118 196.135 70.559M197.366 62.5566C196.955 63.1722 196.135 64.6495 196.135 65.6344M202.29 159.2C200.854 157.559 197.612 152.552 196.135 145.658M198.597 159.2C197.981 158.175 196.627 155.753 196.135 154.276" stroke="black"/>
<path d="M178.283 63.1722C174.385 65.6344 167.779 74.2524 165.932 94.566C164.085 114.88 167.163 131.5 168.394 135.809C169.625 140.118 171.512 146.889 178.283 156.738" stroke="black"/>
<path d="M178.283 66.25C175.821 68.7123 170.241 74.2524 168.394 94.566C166.548 114.88 169.625 131.5 170.857 135.809C172.088 140.118 172.743 142.58 178.283 153.045" stroke="black"/>
<path d="M178.283 68.7123C175.205 74.2524 172.703 74.2524 170.857 94.5661C169.01 114.88 172.088 131.5 173.319 135.809C173.743 137.861 175.328 143.319 178.283 148.736" stroke="black"/>
<path d="M178.283 71.7901C173.974 82.2547 174.55 81.0236 173.319 94.566C172.088 108.108 172.743 128.422 178.283 142.58" stroke="black"/>
<path d="M178.243 79.1769C173.358 101.337 177.012 131.5 178.243 135.809" stroke="black"/>
<path d="M202.29 62.5566H196.135M205.368 159.2H196.135" stroke="black"/>
<path d="M125.96 66.2503C127.396 64.4036 129.653 61.3258 132.116 60.095C134.578 58.8641 140.118 58.2476 141.965 60.7101" stroke="black"/>
<path d="M135.193 172.743L156.123 173.358L177.667 170.896V169.05H143.811" stroke="black"/>
<path d="M196.135 79.1769C197.366 71.9953 201.921 57.2627 210.293 55.7854C220.757 53.9387 229.375 67.4811 232.453 90.8726C235.531 114.264 232.453 148.12 221.373 159.816C210.293 171.512 199.828 156.738 196.135 135.809" stroke="black"/>
<path d="M178.283 55.1698C173.153 55.1698 161.909 63.2953 157.969 93.3349M157.969 130.269C159.816 141.349 166.464 163.386 178.283 165.356" stroke="black"/>
<path d="M178.283 57.0165C173.309 57.0165 163.944 63.785 160.124 93.3211C159.611 96.1984 158.585 103.553 158.585 109.955C158.585 116.357 159.611 125.743 160.124 129.636C161.915 140.531 168.434 159.2 178.283 162.894" stroke="black"/>
<path d="M187.517 25.0071V196.75M125.96 69.3278C137.988 48.5811 159.201 62.5566 158.585 110.571C157.97 158.585 145.658 177.667 126.576 171.512" stroke="black"/>
<path d="M117.342 207.215V26.8538L251.535 22.5448V187.517L117.342 207.215Z" stroke="black"/>
<path d="M156.738 173.358V178.283" stroke="black"/>
<path d="M174.59 175.821L130.884 181.361C126.945 180.868 125.96 176.231 125.96 173.974V57.6321C125.96 51.7226 128.422 50.2452 129.653 50.2452C143.811 49.6296 172.743 48.5216 175.205 49.0141C177.668 49.5065 178.283 53.7334 178.283 55.7853C178.488 91.6933 178.776 164.617 178.283 169.049C177.791 173.482 175.616 175.41 174.59 175.821Z" stroke="black"/>
<path d="M240.357 166.824L200.458 172.127C196.862 171.656 195.962 167.217 195.962 165.056V53.6878C195.962 48.031 198.21 46.6167 199.334 46.6167C212.259 46.0275 238.671 44.9668 240.919 45.4382C243.166 45.9096 243.728 49.9558 243.728 51.92C243.916 86.293 244.178 156.1 243.728 160.342C243.279 164.585 241.293 166.431 240.357 166.824Z" stroke="black"/>
<path d="M140.118 101.222C140.689 101.222 141.292 101.529 141.9 102.215C142.508 102.9 143.078 103.921 143.567 105.225C144.544 107.829 145.158 111.46 145.158 115.495C145.158 119.531 144.544 123.162 143.567 125.767C143.078 127.07 142.508 128.091 141.9 128.776C141.292 129.462 140.688 129.769 140.118 129.769C139.547 129.769 138.944 129.462 138.336 128.776C137.728 128.091 137.158 127.07 136.669 125.767C135.692 123.162 135.078 119.531 135.078 115.495C135.078 111.46 135.692 107.829 136.669 105.225C137.158 103.921 137.728 102.9 138.336 102.215C138.944 101.529 139.547 101.222 140.118 101.222Z" stroke="black"/>
<path d="M213.371 97.5283C213.859 97.5284 214.382 97.7867 214.916 98.3789C215.449 98.9711 215.952 99.856 216.385 100.992C217.25 103.261 217.794 106.43 217.794 109.955C217.794 113.48 217.25 116.649 216.385 118.918C215.952 120.054 215.449 120.939 214.916 121.531C214.382 122.123 213.859 122.382 213.371 122.382C212.882 122.382 212.358 122.124 211.825 121.531C211.291 120.939 210.788 120.054 210.355 118.918C209.491 116.649 208.946 113.48 208.946 109.955C208.946 106.43 209.491 103.261 210.355 100.992C210.788 99.856 211.291 98.9711 211.825 98.3789C212.358 97.7865 212.882 97.5283 213.371 97.5283Z" stroke="black"/>
</svg>
