<svg width="50" height="50" viewBox="0 0 50 50" fill="none" xmlns="http://www.w3.org/2000/svg">
<g clip-path="url(#clip0_2314_547)">
<mask id="mask0_2314_547" style="mask-type:luminance" maskUnits="userSpaceOnUse" x="0" y="0" width="50" height="50">
<path d="M50 0H0V50H50V0Z" fill="white"/>
</mask>
<g mask="url(#mask0_2314_547)">
<path d="M25 0C29.9445 0 34.778 1.46622 38.8893 4.21326C43.0005 6.96029 46.2048 10.8648 48.097 15.4329C49.9892 20.0011 50.4843 25.0277 49.5196 29.8773C48.555 34.7268 46.174 39.1814 42.6777 42.6777C39.1814 46.174 34.7268 48.555 29.8773 49.5196C25.0277 50.4843 20.0011 49.9892 15.4329 48.097C10.8648 46.2048 6.96029 43.0005 4.21326 38.8893C1.46622 34.778 0 29.9445 0 25C0 18.3696 2.63392 12.0107 7.32233 7.32233C12.0107 2.63392 18.3696 0 25 0ZM28.485 18.5825H28.22C25.8425 19.5075 22.2725 19.11 19.8925 20.035V20.6975C23.33 20.6975 22.405 22.8125 21.7425 25.325C20.95 28.365 19.3625 32.325 19.0975 35.1075C18.8324 37.89 20.5525 38.9425 22.2725 38.9425C24.6525 38.9425 26.635 36.5625 27.6925 35.24C27.9575 34.975 29.9425 32.86 28.75 32.595C27.6925 32.345 26.635 36.5625 24.6525 35.77C24.52 35.77 24.52 35.77 24.3875 35.6375C24.915 29.6875 27.295 24.3875 28.485 18.5825ZM27.4275 9.85498C26.8519 9.85498 26.2893 10.0256 25.8108 10.3454C25.3322 10.6652 24.9592 11.1196 24.739 11.6514C24.5187 12.1831 24.4611 12.7682 24.5734 13.3327C24.6857 13.8972 24.9628 14.4157 25.3698 14.8227C25.7768 15.2297 26.2953 15.5068 26.8598 15.6191C27.4243 15.7314 28.0094 15.6737 28.5411 15.4535C29.0728 15.2332 29.5273 14.8603 29.8471 14.3817C30.1668 13.9032 30.3375 13.3405 30.3375 12.765C30.331 11.9952 30.0223 11.2588 29.478 10.7145C28.9336 10.1702 28.1973 9.86151 27.4275 9.85498Z" fill="url(#paint0_linear_2314_547)"/>
</g>
</g>
<defs>
<linearGradient id="paint0_linear_2314_547" x1="25" y1="0" x2="25" y2="50" gradientUnits="userSpaceOnUse">
<stop offset="0.134615" stop-color="#7EB6FF"/>
<stop offset="0.93" stop-color="#2570EC"/>
</linearGradient>
<clipPath id="clip0_2314_547">
<rect width="50" height="50" fill="white"/>
</clipPath>
</defs>
</svg>
