<svg width="64" height="64" viewBox="0 0 64 64" fill="none" xmlns="http://www.w3.org/2000/svg">
<path d="M37.4 25.6C37 21.2 33.6 18.2 29 18H26C25.8 15.4 26.8 11.8 31 11.4C32.8 11.2 34.4 11.6 35.8 13C37 14.4 37.4 16 37.4 17.8C37.4 18 37.4 18.4 37.6 18.6L39.4 20.4C40 18.6 40 16.8 39.6 15C38.6 11.4 35.6 9.2 31.8 9C29.6 9 27.6 9.4 26 11C23.2 13.6 22.2 19.4 26.2 23.2C26.8 23.8 27.6 24.2 28.4 24.6C29.4 25 30.2 24.2 30.2 23.4C30.2 22.6 29.8 22 28.8 21.8C28.6 21.8 28.4 21.6 28.2 21.4V21.2C29 21 30 21.2 30.6 21.8C31.2 22.4 31.4 23.2 31.2 24.2C30.8 25.6 29.6 26.2 28 25.8C25.8 25.2 24.4 23.8 23.4 21.8C23.2 21.2 22.8 20.6 22.6 20C21.2 21.4 20 22.8 19.6 24.8C18.8 28.4 19.8 31.4 22.4 33.8C22.6 34 22.8 34.2 22.6 34.6C22.4 36.2 22.2 37.6 21.8 39.2C21.2 42.6 20.8 45.8 20.2 49.2C20 50.2 20 51.4 20.2 52.4C20.4 53.2 20.8 53.8 21.8 54.2C22 53.4 22 52.6 22.2 51.8C22.8 48.4 23.2 45.2 23.8 41.8C24.2 39.8 24.4 37.6 24.8 35.6C24.8 35.2 25 35 25.4 35C25.8 35 25.8 35.4 25.8 35.8C25.6 37.8 25.2 39.8 24.8 41.6C24.2 45.8 23.4 50 22.8 54.2C22.8 54.4 23 54.6 23 54.6C24 54.6 24.8 54.8 25.8 54.8C26.8 54.8 27.6 54 28.2 53.2C28.8 52.6 28.8 51.8 28.4 51C28.2 50.8 28 50.6 28 50.4C27.4 49.6 27.6 49 28.4 48.6C28.6 48.4 29 48.4 29.2 48.2C29.6 48 29.8 47.4 29.4 47C28.8 46.4 28.4 45.8 27.8 45.4C27.4 45 27.6 44.2 28 44C28.6 43.6 29.4 43.4 30 43C30.4 42.8 30.6 42.4 30.2 42C30 41.8 29.8 41.6 29.6 41.2C29 40.6 29.2 39.6 29.8 39.2C30 39 30.2 38.8 30.6 38.8C31 38.6 31.2 38.4 31.2 38C31.2 37.4 31.4 36.8 31.4 36.2C31.4 36 31.6 35.6 31.8 35.4C32.4 34.8 33.2 34.4 34 34C36.8 32 37.8 29 37.4 25.6ZM44.6 48.4C44.6 48 44.4 47.6 43.8 47.6C43.4 47.6 42.8 47.6 42.6 47C42.4 46.4 42.4 45.8 42.6 45.2C43 44.4 42.8 43.8 41.8 43.6C41.4 43.6 41 43.4 40.4 43.4C40 43.4 39.8 43.2 39.8 42.8C39.8 42.4 39.6 42 39.6 41.6C39.6 41 40 40.6 40.4 40.2C40.8 39.6 40.8 39.4 40.2 39C40 38.8 39.6 38.6 39.4 38.4C38.6 38 38.6 37.6 39 36.8C39.2 36.6 39.4 36.4 39.4 36.2C39.8 35.8 39.8 35.4 39.6 35C39.4 34.6 39.2 34 38.8 33.6C38.6 33.2 38.6 32.8 38.8 32.4C40.4 29.2 40.8 26 39.4 22.6C38.4 20.4 36.6 19 34.2 18.4L34 18.6C34.2 18.8 34.4 19.2 34.6 19.4C37 21.4 38.4 24 38.4 27.2C38.4 30.6 37 33.4 34 35.6C33.6 35.8 33.4 36.2 33.6 36.6C34.4 38.6 35 40.4 35.8 42.4C37.4 46.2 39 49.8 40.6 53.6C40.8 53.8 40.8 54 41.2 54C43.6 52.8 45 50.6 44.6 48.4ZM32.6 36.6C32.4 37.4 32.4 38 32.2 38.6C32.2 39 32 39.4 32.2 39.8C33.6 43.2 35 46.8 36.4 50.2C36.8 51.2 37.4 52.2 38.4 53C38.8 53.2 39.2 53.4 39.4 53.6L39.6 53.4C37.4 47.8 35 42.2 32.6 36.6Z" fill="#DBCD68"/>
</svg>
