<svg width="40" height="50" viewBox="0 0 40 50" fill="none" xmlns="http://www.w3.org/2000/svg">
<path d="M10.2326 44.2542C11.9844 47.6459 15.5344 50 19.6528 50H20.3668C24.4852 50 28.0351 47.6394 29.7869 44.2542H10.2326ZM9.05586 38.4501V40.7328C9.05586 40.9014 9.10216 41.0571 9.10876 41.2257H30.9041C30.9108 41.0571 30.957 40.9014 30.957 40.7328V38.4501H9.05586ZM20.0032 0C9.23436 0 0.508301 8.56031 0.508301 19.1245C0.508301 25.7004 3.89957 31.5045 9.04926 34.9416V34.9935H30.9504V34.9416C36.1067 31.4981 39.4914 25.7004 39.4914 19.1245C39.498 8.56031 30.7719 0 20.0032 0ZM33.2972 19.6693H31.0628C30.415 19.6693 30.1571 19.1958 30.1439 18.9689C29.7936 14.0856 25.8272 10.1621 20.8626 9.76654C20.5915 9.74708 20.0428 9.54604 20.0428 9.04021V6.67964C20.0428 6.08301 20.5519 5.58366 21.16 5.62905C28.1938 6.16083 33.8194 11.6926 34.3549 18.5927C34.4012 19.1764 33.8988 19.6693 33.2972 19.6693Z" fill="url(#paint0_linear_2314_546)"/>
<defs>
<linearGradient id="paint0_linear_2314_546" x1="19.9999" y1="0" x2="19.9999" y2="50" gradientUnits="userSpaceOnUse">
<stop stop-color="#7EB6FF"/>
<stop offset="1" stop-color="#2570EC"/>
</linearGradient>
</defs>
</svg>
