<svg width="34" height="45" viewBox="0 0 34 45" fill="none" xmlns="http://www.w3.org/2000/svg">
<path d="M29.5312 16.875H28.4765C28.2832 16.875 28.125 16.7168 28.125 16.5235V11.3379C28.125 5.12848 23.0449 -0.0219026 16.831 7.00456e-05C10.6391 0.0220427 5.62499 5.04938 5.62499 11.2501V16.5235C5.62499 16.7168 5.46679 16.875 5.27343 16.875H4.21874C1.88965 16.875 0 18.7647 0 21.0938V40.7813C0 43.1104 1.88965 45 4.21874 45H29.5312C31.8603 45 33.7499 43.1104 33.7499 40.7813V21.0938C33.7499 18.7647 31.8603 16.875 29.5312 16.875ZM19.4106 32.9019C18.7075 33.4336 18.2812 34.251 18.2812 35.1343V37.9688C18.2812 38.7378 17.6572 39.3662 16.8926 39.375C16.1103 39.3838 15.4687 38.7246 15.4687 37.938V35.1563C15.4687 34.2686 15.0469 33.438 14.3349 32.9019C13.3154 32.1328 12.6562 30.9068 12.6562 29.5313C12.6562 27.2373 14.5195 25.3433 16.8135 25.3125C19.1733 25.2774 21.0937 27.1802 21.0937 29.5313C21.0937 30.9068 20.4345 32.1328 19.4106 32.9019ZM25.3125 16.5235C25.3125 16.7168 25.1543 16.875 24.9609 16.875H8.78905C8.59569 16.875 8.43749 16.7168 8.43749 16.5235V11.2501C8.43749 8.99566 9.31639 6.8775 10.9072 5.28229C12.5024 3.69147 14.6206 2.81257 16.875 2.81257C19.1294 2.81257 21.2475 3.69147 22.8427 5.28229C24.4336 6.8775 25.3125 8.99566 25.3125 11.2501V16.5235Z" fill="url(#paint0_linear_492_288)"/>
<path d="M15.4687 29.5313C15.4687 29.9042 15.6169 30.2619 15.8806 30.5256C16.1443 30.7894 16.502 30.9375 16.875 30.9375C17.2479 30.9375 17.6056 30.7894 17.8693 30.5256C18.1331 30.2619 18.2812 29.9042 18.2812 29.5313C18.2812 29.1583 18.1331 28.8006 17.8693 28.5369C17.6056 28.2732 17.2479 28.125 16.875 28.125C16.502 28.125 16.1443 28.2732 15.8806 28.5369C15.6169 28.8006 15.4687 29.1583 15.4687 29.5313Z" fill="url(#paint1_linear_492_288)"/>
<defs>
<linearGradient id="paint0_linear_492_288" x1="16.875" y1="0" x2="16.875" y2="45" gradientUnits="userSpaceOnUse">
<stop stop-color="#7EB6FF"/>
<stop offset="0.7" stop-color="#2570EC"/>
</linearGradient>
<linearGradient id="paint1_linear_492_288" x1="16.875" y1="0" x2="16.875" y2="45" gradientUnits="userSpaceOnUse">
<stop stop-color="#7EB6FF"/>
<stop offset="0.7" stop-color="#2570EC"/>
</linearGradient>
</defs>
</svg>
