<svg width="50" height="46" viewBox="0 0 50 46" fill="none" xmlns="http://www.w3.org/2000/svg">
<path d="M37.9697 22.0947C37.985 22.0947 38.0003 22.0947 38.0156 22.0947C44.3879 22.0947 49.5546 27.2615 49.5547 33.6338C49.5545 40.006 44.3878 45.1729 38.0156 45.1729C36.3823 45.1728 34.8291 44.831 33.4209 44.2188H1.55078C0.725589 44.2186 0.0567313 43.5498 0.0566406 42.7246V41.9141C0.0567005 41.0888 0.72557 40.4201 1.55078 40.4199H28.6855C28.0035 39.4838 27.4596 38.4417 27.082 37.3223H4.22754V21.2617H37.9697V22.0947ZM38.0156 24.6719C36.9544 24.6719 35.9233 24.8524 34.9434 25.21L34.5264 25.374C33.4603 25.8243 32.5011 26.4706 31.6768 27.2949C30.9554 28.0163 30.3701 28.8409 29.9336 29.75L29.7559 30.1445C29.2893 31.2481 29.0508 32.4198 29.0508 33.6318C29.0509 34.8438 29.2894 36.0168 29.7559 37.1201V37.1211C30.2062 38.1872 30.8524 39.1463 31.6768 39.9707C32.5011 40.795 33.4602 41.4413 34.5264 41.8916H34.5273C35.6309 42.3605 36.8042 42.6005 38.0156 42.6006C39.2277 42.6006 40.4015 42.363 41.5049 41.8965L41.8994 41.7178C42.8084 41.2813 43.6332 40.6968 44.3545 39.9756C45.1788 39.1513 45.8251 38.192 46.2754 37.126L46.2764 37.125C46.7448 36.0227 46.9804 34.8494 46.9805 33.6367C46.9805 32.4245 46.742 31.251 46.2754 30.1475C45.8251 29.0812 45.1789 28.1223 44.3545 27.2979C43.53 26.4734 42.5711 25.8273 41.5049 25.377L41.5039 25.376C40.4015 24.9076 39.2284 24.6719 38.0156 24.6719ZM43.7061 28.9678L44.8223 30.0811L45.1768 30.4355L44.8223 30.7891L36.7529 38.8594L36.3994 39.2129L36.0459 38.8594L31.209 34.0215L30.8555 33.668L32.6787 31.8447L33.0322 32.1982L36.3994 35.5674L42.999 28.9678L43.3525 28.6152L43.7061 28.9678ZM7.71094 33.2979C7.42607 33.2979 7.15247 33.4107 6.9502 33.6113C6.74787 33.812 6.63323 34.0852 6.63086 34.3701V34.7295C6.63086 35.016 6.74466 35.2915 6.94727 35.4941C7.14978 35.6965 7.42461 35.8105 7.71094 35.8105H26.6846C26.5499 35.1054 26.4766 34.3781 26.4766 33.6338C26.4766 33.5214 26.4783 33.4094 26.4814 33.2979H7.71094ZM7.71094 28.2744C7.42458 28.2745 7.14979 28.3884 6.94727 28.5908C6.74466 28.7934 6.63086 29.0689 6.63086 29.3555V29.7148C6.63323 29.9998 6.74785 30.273 6.9502 30.4736C7.15247 30.6742 7.42609 30.7861 7.71094 30.7861H26.8311C27.0551 29.9036 27.3826 29.0626 27.7969 28.2744H7.71094ZM7.73828 23.3408C7.59683 23.3396 7.45622 23.3666 7.3252 23.4199C7.19427 23.4732 7.07499 23.5518 6.97461 23.6514C6.87425 23.7509 6.79463 23.8696 6.74023 24C6.68588 24.1305 6.65825 24.2708 6.6582 24.4121V24.7725C6.66505 25.0496 6.77769 25.3137 6.97363 25.5098C7.16964 25.7058 7.43383 25.8193 7.71094 25.8262H29.5225C30.4537 24.8138 31.5633 23.9695 32.8018 23.3408H7.73828ZM21.0723 0C21.4057 0 21.7276 0.122893 21.9766 0.344727C22.2255 0.566554 22.3845 0.871888 22.4229 1.20312V11.0166H27.8789C28.3692 11.0045 28.8442 11.187 29.2002 11.5244C29.5562 11.8619 29.7642 12.327 29.7783 12.8174C29.7783 13.0364 29.7355 13.2534 29.6523 13.4561H39.3936V13.4648C39.7412 13.4354 40.0917 13.479 40.4219 13.5918C40.7519 13.7047 41.0547 13.8851 41.3115 14.1211C41.5684 14.3571 41.7737 14.6435 41.9141 14.9629C42.0543 15.2823 42.1269 15.6277 42.127 15.9766C42.127 16.3254 42.0543 16.6708 41.9141 16.9902C41.7737 17.3098 41.5685 17.5969 41.3115 17.833C41.0547 18.069 40.7519 18.2495 40.4219 18.3623C40.0917 18.4751 39.7412 18.5177 39.3936 18.4883H2.7334C2.38587 18.5177 2.03611 18.475 1.70605 18.3623C1.37583 18.2495 1.0724 18.0691 0.81543 17.833C0.558458 17.5969 0.353223 17.3098 0.212891 16.9902C0.072646 16.6708 0 16.3254 0 15.9766C5.47852e-05 15.6277 0.0726117 15.2823 0.212891 14.9629C0.353205 14.6435 0.55859 14.3571 0.81543 14.1211C1.0724 13.885 1.37583 13.7046 1.70605 13.5918C2.0361 13.4791 2.38587 13.4354 2.7334 13.4648H12.4932C12.41 13.2621 12.3672 13.0453 12.3672 12.8262C12.3813 12.3359 12.5884 11.8707 12.9443 11.5332C13.3004 11.1957 13.7762 11.0133 14.2666 11.0254H19.7217V1.20312C19.76 0.871975 19.9191 0.566549 20.168 0.344727C20.4169 0.122925 20.7389 6.2332e-05 21.0723 0Z" fill="url(#paint0_linear_441_362)"/>
<defs>
<linearGradient id="paint0_linear_441_362" x1="37.9781" y1="0.146081" x2="37.9781" y2="45.0771" gradientUnits="userSpaceOnUse">
<stop stop-color="#7EB6FF"/>
<stop offset="0.7" stop-color="#2570EC"/>
</linearGradient>
</defs>
</svg>
