<svg width="46" height="47" viewBox="0 0 46 47" fill="none" xmlns="http://www.w3.org/2000/svg">
<rect y="0.582275" width="46" height="46" rx="10" fill="url(#paint0_linear_2203_545)"/>
<path fill-rule="evenodd" clip-rule="evenodd" d="M28.0781 21.6847L25.8958 25.6929H21.3087L19.4382 22.13C19.75 22.041 20.0172 21.7738 20.2399 21.4175C20.3735 21.3284 20.7297 21.2393 21.1306 21.462C21.1644 21.479 21.2017 21.498 21.2421 21.5186L21.2422 21.5186C21.7336 21.7695 22.7019 22.2637 23.9363 22.2637C24.7825 22.2637 25.7622 21.9964 26.7866 21.2839C26.9202 21.1948 27.1874 21.1503 27.5437 21.3729C27.6187 21.423 27.7078 21.473 27.8109 21.5309C27.8914 21.5761 27.9804 21.6261 28.0781 21.6847ZM29.9931 12.6885C29.8595 12.5549 29.7259 12.5104 29.5923 12.5104H27.7663V12.5549H26.9202L26.9647 21.0167C27.1428 21.0167 27.3655 21.0612 27.5882 21.1948C28.1226 21.5511 29.1469 21.9964 29.9486 21.1503L29.9931 21.0612C30.0036 21.0402 30.0166 21.0167 30.0303 20.9919C30.0747 20.9115 30.1267 20.8175 30.1267 20.7495V13.0448C30.1267 12.9112 30.0822 12.8222 29.9931 12.6885ZM19.171 22.1746C18.7256 22.2191 18.2803 22.041 17.924 21.8183C18.3587 22.422 19.0291 23.2877 19.5944 24.0176L19.5944 24.0176L19.5944 24.0177C20.0716 24.6338 20.4738 25.1531 20.5961 25.3366C20.7297 25.5147 20.9524 25.6483 21.1751 25.7374L19.3046 22.13C19.2823 22.13 19.2601 22.1412 19.2378 22.1523C19.2155 22.1635 19.1933 22.1746 19.171 22.1746ZM28.2117 21.6847L26.0295 25.6929H26.1631C26.8756 25.5593 27.0983 25.2475 27.0983 25.2475L29.2805 22.0855C29.2805 22.0855 29.2805 22.041 29.3251 22.041L29.5923 21.6847C29.1024 21.9074 28.6125 21.8628 28.2117 21.6847ZM20.0871 21.2552L20.0872 21.2552C20.1259 21.2093 20.1757 21.1503 20.2844 21.1503L20.2399 12.5995H19.839L17.9685 12.5549C17.8349 12.5549 17.6568 12.5995 17.5677 12.7331L17.5232 12.7776C17.5127 12.7986 17.4997 12.8221 17.486 12.847L17.486 12.847C17.4416 12.9273 17.3896 13.0213 17.3896 13.0894V20.8831C17.3896 21.0167 17.4341 21.1057 17.4787 21.1948C17.5232 21.2839 17.5232 21.2839 17.5677 21.3284C17.924 21.6402 18.5475 22.041 19.171 21.9964C19.5718 21.9519 19.75 21.7292 20.0617 21.2839C20.07 21.2756 20.0783 21.2658 20.0871 21.2552ZM27.5437 8.14185C27.5437 7.03728 26.6482 6.14185 25.5437 6.14185H21.839C20.7345 6.14185 19.839 7.03728 19.839 8.14185V10.1096C19.839 11.2142 20.7345 12.1096 21.839 12.1096H25.5437C26.6482 12.1096 27.5437 11.2142 27.5437 10.1096V8.14185ZM22.031 12.5441L26.742 12.5104L26.7422 12.5441H26.7536V14.7274L26.7866 21.0167C26.767 21.0362 26.7389 21.0472 26.7136 21.0571C26.681 21.0698 26.6529 21.0807 26.6529 21.1057C24.248 22.9317 22.0658 21.8183 21.1751 21.2839C20.9524 21.1503 20.7297 21.1057 20.5516 21.1057L20.5502 20.8338H20.5289V16.7413L20.5071 12.5549L20.5289 12.5548V12.5441H22.031ZM21.3977 25.8261C21.5313 25.8706 21.6203 25.9597 21.7094 26.0488L22.5556 27.4294C22.6447 27.563 22.7783 27.652 23.0009 27.652H24.2925C24.4706 27.652 24.6487 27.563 24.7378 27.4294C24.8492 27.2512 24.9605 27.0285 25.0718 26.8059C25.1832 26.5832 25.2945 26.3605 25.4058 26.1824C25.4504 26.0488 25.6669 25.8706 25.8005 25.8261L21.3977 25.8261Z" fill="url(#paint1_linear_2203_545)"/>
<path d="M34.0289 16.5472C35.7015 18.564 36.7644 21.0158 37.0929 23.6153C37.4214 26.2147 37.0019 28.8539 35.8835 31.2234C34.7652 33.5928 32.9944 35.5942 30.7788 36.9929C28.5633 38.3916 25.9948 39.1295 23.3747 39.1202C20.7547 39.1108 18.1916 38.3545 15.9861 36.9401C13.7806 35.5256 12.0241 33.5116 10.9227 31.1342C9.82132 28.7568 9.42065 26.1147 9.7677 23.5177C10.1147 20.9207 11.1951 18.4764 12.8821 16.4717" stroke="white" stroke-width="2"/>
<path d="M31.6163 21.9899C32.1801 23.3676 32.3873 24.8652 32.2189 26.3443C32.0504 27.8233 31.5116 29.236 30.6524 30.4516C29.7932 31.6672 28.6413 32.6465 27.3033 33.2989C25.9652 33.9513 24.4843 34.2557 22.9974 34.184C21.5105 34.1122 20.0657 33.6667 18.7967 32.8885C17.5277 32.1103 16.4754 31.0247 15.7372 29.732C14.999 28.4393 14.5988 26.9813 14.5735 25.4929C14.5482 24.0045 14.8987 22.5338 15.5925 21.2167" stroke="white" stroke-width="2"/>
<path d="M23.7582 41.0798L23.7582 34.9465" stroke="url(#paint2_linear_2203_545)" stroke-width="1.9" stroke-linecap="round"/>
<path d="M39.4451 25.3511L33.1584 25.3337" stroke="url(#paint3_linear_2203_545)" stroke-width="1.9" stroke-linecap="round"/>
<path d="M7.35944 25.3252L13.6461 25.3425" stroke="url(#paint4_linear_2203_545)" stroke-width="1.9" stroke-linecap="round"/>
<defs>
<linearGradient id="paint0_linear_2203_545" x1="23" y1="0.582275" x2="23" y2="46.5823" gradientUnits="userSpaceOnUse">
<stop stop-color="#7EB6FF"/>
<stop offset="1" stop-color="#2570EC"/>
</linearGradient>
<linearGradient id="paint1_linear_2203_545" x1="23.6413" y1="12.544" x2="23.6413" y2="20.8338" gradientUnits="userSpaceOnUse">
<stop stop-color="white"/>
<stop offset="1" stop-color="#F4F4F4"/>
</linearGradient>
<linearGradient id="paint2_linear_2203_545" x1="23.2582" y1="41.0798" x2="23.2582" y2="34.9465" gradientUnits="userSpaceOnUse">
<stop stop-color="white"/>
<stop offset="1" stop-color="white"/>
</linearGradient>
<linearGradient id="paint3_linear_2203_545" x1="39.4464" y1="24.8511" x2="33.1598" y2="24.8337" gradientUnits="userSpaceOnUse">
<stop stop-color="white"/>
<stop offset="1" stop-color="white"/>
</linearGradient>
<linearGradient id="paint4_linear_2203_545" x1="7.36081" y1="24.8252" x2="13.6475" y2="24.8425" gradientUnits="userSpaceOnUse">
<stop stop-color="white"/>
<stop offset="1" stop-color="white"/>
</linearGradient>
</defs>
</svg>
