<?xml version="1.0" encoding="UTF-8"?>
<!DOCTYPE svg PUBLIC "-//W3C//DTD SVG 1.1//EN" "http://www.w3.org/Graphics/SVG/1.1/DTD/svg11.dtd">
<svg xmlns="http://www.w3.org/2000/svg" version="1.1" width="400px" height="300px" style="shape-rendering:geometricPrecision; text-rendering:geometricPrecision; image-rendering:optimizeQuality; fill-rule:evenodd; clip-rule:evenodd" xmlns:xlink="http://www.w3.org/1999/xlink">
<g><path style="opacity:1" fill="#464646" d="M -0.5,-0.5 C 3.5,-0.5 7.5,-0.5 11.5,-0.5C 7.85235,2.65986 3.85235,5.32653 -0.5,7.5C -0.5,4.83333 -0.5,2.16667 -0.5,-0.5 Z"/></g>
<g><path style="opacity:1" fill="#444444" d="M 13.5,-0.5 C 33.1667,-0.5 52.8333,-0.5 72.5,-0.5C 88.5,11.1667 104.5,22.8333 120.5,34.5C 80.5587,49.8146 40.2254,64.148 -0.5,77.5C -0.5,54.8333 -0.5,32.1667 -0.5,9.5C 4.52728,6.65472 9.19395,3.32139 13.5,-0.5 Z"/></g>
<g><path style="opacity:1" fill="#444444" d="M 74.5,-0.5 C 114.167,-0.5 153.833,-0.5 193.5,-0.5C 171.299,11.3483 148.466,22.0149 125,31.5C 123.97,31.8361 123.47,32.5028 123.5,33.5C 106.984,22.4104 90.6506,11.0771 74.5,-0.5 Z"/></g>
<g><path style="opacity:1" fill="#3f3e3e" d="M 193.5,-0.5 C 201.833,-0.5 210.167,-0.5 218.5,-0.5C 214.777,2.55146 210.777,5.21813 206.5,7.5C 204.184,6.19444 201.85,4.86111 199.5,3.5C 179.205,17.1359 159.205,31.1359 139.5,45.5C 133.86,41.8533 128.527,37.8533 123.5,33.5C 123.47,32.5028 123.97,31.8361 125,31.5C 148.466,22.0149 171.299,11.3483 193.5,-0.5 Z"/></g>
<g><path style="opacity:1" fill="#3e3e3e" d="M 220.5,-0.5 C 239.5,-0.5 258.5,-0.5 277.5,-0.5C 301.202,17.1958 325.202,34.5291 349.5,51.5C 336.125,61.2234 322.792,70.89 309.5,80.5C 275.556,57.2224 241.89,33.5557 208.5,9.5C 212.5,6.16667 216.5,2.83333 220.5,-0.5 Z"/></g>
<g><path style="opacity:1" fill="#3e3e3e" d="M 280.5,-0.5 C 320.167,-0.5 359.833,-0.5 399.5,-0.5C 399.5,5.5 399.5,11.5 399.5,17.5C 383.21,27.9863 367.21,38.9863 351.5,50.5C 327.819,33.3111 304.152,16.3111 280.5,-0.5 Z"/></g>
<g><path style="opacity:1" fill="#6c6c6c" d="M 11.5,-0.5 C 12.1667,-0.5 12.8333,-0.5 13.5,-0.5C 9.19395,3.32139 4.52728,6.65472 -0.5,9.5C -0.5,8.83333 -0.5,8.16667 -0.5,7.5C 3.85235,5.32653 7.85235,2.65986 11.5,-0.5 Z"/></g>
<g><path style="opacity:1" fill="#cd6331" d="M 206.5,7.5 C 206.833,8.5 207.5,9.16667 208.5,9.5C 241.89,33.5557 275.556,57.2224 309.5,80.5C 309.833,81.5 310.5,82.1667 311.5,82.5C 315.526,85.2052 319.192,88.2052 322.5,91.5C 281.851,119.808 241.185,148.141 200.5,176.5C 198.692,176.509 197.025,176.009 195.5,175C 156.833,147.667 118.167,120.333 79.5,93C 78.1772,92.1841 77.5106,91.0174 77.5,89.5C 97.5,75.1667 117.5,60.8333 137.5,46.5C 138.492,46.6716 139.158,46.3382 139.5,45.5C 159.205,31.1359 179.205,17.1359 199.5,3.5C 201.85,4.86111 204.184,6.19444 206.5,7.5 Z"/></g>
<g><path style="opacity:1" fill="#696867" d="M 218.5,-0.5 C 219.167,-0.5 219.833,-0.5 220.5,-0.5C 216.5,2.83333 212.5,6.16667 208.5,9.5C 207.5,9.16667 206.833,8.5 206.5,7.5C 210.777,5.21813 214.777,2.55146 218.5,-0.5 Z"/></g>
<g><path style="opacity:1" fill="#6b6b6b" d="M 72.5,-0.5 C 73.1667,-0.5 73.8333,-0.5 74.5,-0.5C 90.6506,11.0771 106.984,22.4104 123.5,33.5C 128.527,37.8533 133.86,41.8533 139.5,45.5C 139.158,46.3382 138.492,46.6716 137.5,46.5C 132.397,41.7748 126.731,37.7748 120.5,34.5C 104.5,22.8333 88.5,11.1667 72.5,-0.5 Z"/></g>
<g><path style="opacity:1" fill="#3e3e3e" d="M 399.5,19.5 C 399.5,40.8333 399.5,62.1667 399.5,83.5C 383.993,73.5769 368.993,62.9102 354.5,51.5C 368.993,40.0898 383.993,29.4231 399.5,19.5 Z"/></g>
<g><path style="opacity:1" fill="#3e3e3e" d="M 120.5,34.5 C 126.731,37.7748 132.397,41.7748 137.5,46.5C 117.5,60.8333 97.5,75.1667 77.5,89.5C 76.5184,92.9619 76.185,96.6286 76.5,100.5C 65.6616,108.085 54.6616,115.418 43.5,122.5C 29.0961,112.093 14.4294,102.093 -0.5,92.5C -0.5,87.5 -0.5,82.5 -0.5,77.5C 40.2254,64.148 80.5587,49.8146 120.5,34.5 Z"/></g>
<g><path style="opacity:1" fill="#626261" d="M 277.5,-0.5 C 278.5,-0.5 279.5,-0.5 280.5,-0.5C 304.152,16.3111 327.819,33.3111 351.5,50.5C 367.21,38.9863 383.21,27.9863 399.5,17.5C 399.5,18.1667 399.5,18.8333 399.5,19.5C 383.993,29.4231 368.993,40.0898 354.5,51.5C 368.993,62.9102 383.993,73.5769 399.5,83.5C 399.5,84.5 399.5,85.5 399.5,86.5C 383.94,75.1343 368.107,64.1343 352,53.5C 338.571,61.9263 325.405,70.7597 312.5,80C 311.748,80.6708 311.414,81.5041 311.5,82.5C 310.5,82.1667 309.833,81.5 309.5,80.5C 322.792,70.89 336.125,61.2234 349.5,51.5C 325.202,34.5291 301.202,17.1958 277.5,-0.5 Z"/></g>
<g><path style="opacity:1" fill="#3e3e3d" d="M 399.5,86.5 C 399.5,104.833 399.5,123.167 399.5,141.5C 375.953,154.106 351.953,165.94 327.5,177C 328.056,177.383 328.389,177.883 328.5,178.5C 326.5,177.5 324.5,176.5 322.5,175.5C 322.5,175.167 322.5,174.833 322.5,174.5C 322.768,172.901 322.434,171.568 321.5,170.5C 322.72,168.716 322.72,167.05 321.5,165.5C 322.72,163.716 322.72,162.05 321.5,160.5C 322.72,158.716 322.72,157.05 321.5,155.5C 322.72,153.716 322.72,152.05 321.5,150.5C 322.72,148.716 322.72,147.05 321.5,145.5C 322.301,143.958 322.634,142.292 322.5,140.5C 322.5,138.833 322.5,137.167 322.5,135.5C 322.5,133.833 322.5,132.167 322.5,130.5C 322.5,127.167 322.5,123.833 322.5,120.5C 322.5,117.167 322.5,113.833 322.5,110.5C 322.5,107.167 322.5,103.833 322.5,100.5C 322.5,97.5 322.5,94.5 322.5,91.5C 319.192,88.2052 315.526,85.2052 311.5,82.5C 311.414,81.5041 311.748,80.6708 312.5,80C 325.405,70.7597 338.571,61.9263 352,53.5C 368.107,64.1343 383.94,75.1343 399.5,86.5 Z"/></g>
<g><path style="opacity:1" fill="#833e1f" d="M 77.5,89.5 C 77.5106,91.0174 78.1772,92.1841 79.5,93C 118.167,120.333 156.833,147.667 195.5,175C 197.025,176.009 198.692,176.509 200.5,176.5C 199.586,179.728 199.253,183.061 199.5,186.5C 199.167,186.5 198.833,186.5 198.5,186.5C 157.833,157.833 117.167,129.167 76.5,100.5C 76.185,96.6286 76.5184,92.9619 77.5,89.5 Z"/></g>
<g><path style="opacity:1" fill="#6a3219" d="M 322.5,91.5 C 322.5,94.5 322.5,97.5 322.5,100.5C 281.646,129.423 240.646,158.089 199.5,186.5C 199.253,183.061 199.586,179.728 200.5,176.5C 241.185,148.141 281.851,119.808 322.5,91.5 Z"/></g>
<g><path style="opacity:1" fill="#3e3e3e" d="M -0.5,94.5 C 13.8313,104.002 27.8313,114.002 41.5,124.5C 27.7602,134.913 13.7602,144.913 -0.5,154.5C -0.5,134.5 -0.5,114.5 -0.5,94.5 Z"/></g>
<g><path style="opacity:1" fill="#1a5b5a" d="M 76.5,100.5 C 117.167,129.167 157.833,157.833 198.5,186.5C 199.782,189.936 199.782,193.269 198.5,196.5C 157.833,167.833 117.167,139.167 76.5,110.5C 76.5,107.833 76.5,105.167 76.5,102.5C 76.5,101.833 76.5,101.167 76.5,100.5 Z"/></g>
<g><path style="opacity:1" fill="#164948" d="M 322.5,100.5 C 322.5,103.833 322.5,107.167 322.5,110.5C 281.324,139.254 240.324,168.254 199.5,197.5C 198.833,197.5 198.5,197.167 198.5,196.5C 199.782,193.269 199.782,189.936 198.5,186.5C 198.833,186.5 199.167,186.5 199.5,186.5C 240.646,158.089 281.646,129.423 322.5,100.5 Z"/></g>
<g><path style="opacity:1" fill="#3f3f3e" d="M 76.5,102.5 C 76.5,105.167 76.5,107.833 76.5,110.5C 76.5,113.833 76.5,117.167 76.5,120.5C 76.5,123.833 76.5,127.167 76.5,130.5C 76.5,132.167 76.5,133.833 76.5,135.5C 76.5,137.167 76.5,138.833 76.5,140.5C 76.366,142.292 76.6993,143.958 77.5,145.5C 76.8333,145.5 76.5,145.833 76.5,146.5C 66.1961,139.009 55.8627,131.509 45.5,124C 55.8623,116.824 66.1956,109.657 76.5,102.5 Z"/></g>
<g><path style="opacity:1" fill="#813e1f" d="M 76.5,110.5 C 117.167,139.167 157.833,167.833 198.5,196.5C 198.5,197.167 198.833,197.5 199.5,197.5C 199.5,200.5 199.5,203.5 199.5,206.5C 199.167,206.5 198.833,206.5 198.5,206.5C 158.134,177.477 117.467,148.81 76.5,120.5C 76.5,117.167 76.5,113.833 76.5,110.5 Z"/></g>
<g><path style="opacity:1" fill="#693219" d="M 322.5,110.5 C 322.5,113.833 322.5,117.167 322.5,120.5C 281.5,149.167 240.5,177.833 199.5,206.5C 199.5,203.5 199.5,200.5 199.5,197.5C 240.324,168.254 281.324,139.254 322.5,110.5 Z"/></g>
<g><path style="opacity:1" fill="#164948" d="M 322.5,120.5 C 322.5,123.833 322.5,127.167 322.5,130.5C 281.482,159.192 240.482,187.859 199.5,216.5C 199.747,213.061 199.414,209.728 198.5,206.5C 198.833,206.5 199.167,206.5 199.5,206.5C 240.5,177.833 281.5,149.167 322.5,120.5 Z"/></g>
<g><path style="opacity:1" fill="#1a5b5a" d="M 76.5,120.5 C 117.467,148.81 158.134,177.477 198.5,206.5C 199.414,209.728 199.747,213.061 199.5,216.5C 199.167,216.5 198.833,216.5 198.5,216.5C 158.134,187.477 117.467,158.81 76.5,130.5C 76.5,127.167 76.5,123.833 76.5,120.5 Z"/></g>
<g><path style="opacity:1" fill="#3e3e3e" d="M 76.5,147.5 C 76.5569,148.609 76.8902,149.609 77.5,150.5C 76.2801,152.05 76.2801,153.716 77.5,155.5C 76.2801,157.05 76.2801,158.716 77.5,160.5C 76.2801,162.05 76.2801,163.716 77.5,165.5C 76.2801,167.05 76.2801,168.716 77.5,170.5C 76.5655,171.568 76.2322,172.901 76.5,174.5C 76.5,176.167 76.5,177.833 76.5,179.5C 76.5,181.167 76.5,182.833 76.5,184.5C 76.5,186.167 76.5,187.833 76.5,189.5C 76.5,191.167 76.5,192.833 76.5,194.5C 76.5,196.167 76.5,197.833 76.5,199.5C 76.5,201.167 76.5,202.833 76.5,204.5C 76.2606,206.467 76.5939,208.301 77.5,210C 86.0129,215.696 94.3462,221.53 102.5,227.5C 82.8447,240.817 63.178,254.15 43.5,267.5C 28.8151,257.494 14.1484,247.494 -0.5,237.5C -0.5,210.5 -0.5,183.5 -0.5,156.5C 14.1486,146.192 28.8153,135.858 43.5,125.5C 54.3852,133.102 65.3852,140.435 76.5,147.5 Z"/></g>
<g><path style="opacity:1" fill="#646464" d="M -0.5,92.5 C 14.4294,102.093 29.0961,112.093 43.5,122.5C 54.6616,115.418 65.6616,108.085 76.5,100.5C 76.5,101.167 76.5,101.833 76.5,102.5C 66.1956,109.657 55.8623,116.824 45.5,124C 55.8627,131.509 66.1961,139.009 76.5,146.5C 76.5,146.833 76.5,147.167 76.5,147.5C 65.3852,140.435 54.3852,133.102 43.5,125.5C 28.8153,135.858 14.1486,146.192 -0.5,156.5C -0.5,155.833 -0.5,155.167 -0.5,154.5C 13.7602,144.913 27.7602,134.913 41.5,124.5C 27.8313,114.002 13.8313,104.002 -0.5,94.5C -0.5,93.8333 -0.5,93.1667 -0.5,92.5 Z"/></g>
<g><path style="opacity:1" fill="#7f3f20" d="M 76.5,130.5 C 117.467,158.81 158.134,187.477 198.5,216.5C 199.301,218.042 199.634,219.708 199.5,221.5C 158.646,192.577 117.646,163.911 76.5,135.5C 76.5,133.833 76.5,132.167 76.5,130.5 Z"/></g>
<g><path style="opacity:1" fill="#68331a" d="M 322.5,130.5 C 322.5,132.167 322.5,133.833 322.5,135.5C 281.354,163.911 240.354,192.577 199.5,221.5C 199.634,219.708 199.301,218.042 198.5,216.5C 198.833,216.5 199.167,216.5 199.5,216.5C 240.482,187.859 281.482,159.192 322.5,130.5 Z"/></g>
<g><path style="opacity:1" fill="#215a57" d="M 76.5,135.5 C 117.646,163.911 158.646,192.577 199.5,221.5C 199.5,223.167 199.5,224.833 199.5,226.5C 199.167,226.5 198.833,226.5 198.5,226.5C 158.116,197.452 117.449,168.785 76.5,140.5C 76.5,138.833 76.5,137.167 76.5,135.5 Z"/></g>
<g><path style="opacity:1" fill="#1c4845" d="M 322.5,135.5 C 322.5,137.167 322.5,138.833 322.5,140.5C 281.5,169.167 240.5,197.833 199.5,226.5C 199.5,224.833 199.5,223.167 199.5,221.5C 240.354,192.577 281.354,163.911 322.5,135.5 Z"/></g>
<g><path style="opacity:1" fill="#7f3f20" d="M 76.5,140.5 C 117.449,168.785 158.116,197.452 198.5,226.5C 199.686,227.961 199.686,229.295 198.5,230.5C 157.992,202.413 117.658,174.079 77.5,145.5C 76.6993,143.958 76.366,142.292 76.5,140.5 Z"/></g>
<g><path style="opacity:1" fill="#68331a" d="M 322.5,140.5 C 322.634,142.292 322.301,143.958 321.5,145.5C 280.833,174.167 240.167,202.833 199.5,231.5C 198.833,231.5 198.5,231.167 198.5,230.5C 199.686,229.295 199.686,227.961 198.5,226.5C 198.833,226.5 199.167,226.5 199.5,226.5C 240.5,197.833 281.5,169.167 322.5,140.5 Z"/></g>
<g><path style="opacity:1" fill="#383838" d="M 399.5,141.5 C 399.5,148.5 399.5,155.5 399.5,162.5C 383.536,173.295 367.703,184.295 352,195.5C 343.716,190.372 335.883,184.705 328.5,178.5C 328.389,177.883 328.056,177.383 327.5,177C 351.953,165.94 375.953,154.106 399.5,141.5 Z"/></g>
<g><path style="opacity:1" fill="#215a57" d="M 77.5,145.5 C 117.658,174.079 157.992,202.413 198.5,230.5C 198.5,231.167 198.833,231.5 199.5,231.5C 199.768,233.099 199.434,234.432 198.5,235.5C 157.992,207.413 117.658,179.079 77.5,150.5C 76.8902,149.609 76.5569,148.609 76.5,147.5C 76.5,147.167 76.5,146.833 76.5,146.5C 76.5,145.833 76.8333,145.5 77.5,145.5 Z"/></g>
<g><path style="opacity:1" fill="#1c4946" d="M 321.5,145.5 C 322.72,147.05 322.72,148.716 321.5,150.5C 281.111,179.556 240.444,208.222 199.5,236.5C 198.833,236.5 198.5,236.167 198.5,235.5C 199.434,234.432 199.768,233.099 199.5,231.5C 240.167,202.833 280.833,174.167 321.5,145.5 Z"/></g>
<g><path style="opacity:1" fill="#7f3f20" d="M 77.5,150.5 C 117.658,179.079 157.992,207.413 198.5,235.5C 198.5,236.167 198.833,236.5 199.5,236.5C 199.768,238.099 199.434,239.432 198.5,240.5C 158.342,211.921 118.008,183.587 77.5,155.5C 76.2801,153.716 76.2801,152.05 77.5,150.5 Z"/></g>
<g><path style="opacity:1" fill="#68331a" d="M 321.5,150.5 C 322.72,152.05 322.72,153.716 321.5,155.5C 280.556,183.778 239.889,212.444 199.5,241.5C 198.833,241.5 198.5,241.167 198.5,240.5C 199.434,239.432 199.768,238.099 199.5,236.5C 240.444,208.222 281.111,179.556 321.5,150.5 Z"/></g>
<g><path style="opacity:1" fill="#215a57" d="M 77.5,155.5 C 118.008,183.587 158.342,211.921 198.5,240.5C 198.5,241.167 198.833,241.5 199.5,241.5C 199.768,243.099 199.434,244.432 198.5,245.5C 157.992,217.413 117.658,189.079 77.5,160.5C 76.2801,158.716 76.2801,157.05 77.5,155.5 Z"/></g>
<g><path style="opacity:1" fill="#1c4945" d="M 321.5,155.5 C 322.72,157.05 322.72,158.716 321.5,160.5C 280.833,189.167 240.167,217.833 199.5,246.5C 198.833,246.5 198.5,246.167 198.5,245.5C 199.434,244.432 199.768,243.099 199.5,241.5C 239.889,212.444 280.556,183.778 321.5,155.5 Z"/></g>
<g><path style="opacity:1" fill="#7f3f20" d="M 77.5,160.5 C 117.658,189.079 157.992,217.413 198.5,245.5C 198.5,246.167 198.833,246.5 199.5,246.5C 199.5,247.833 199.5,249.167 199.5,250.5C 199.167,250.5 198.833,250.5 198.5,250.5C 158.342,221.921 118.008,193.587 77.5,165.5C 76.2801,163.716 76.2801,162.05 77.5,160.5 Z"/></g>
<g><path style="opacity:1" fill="#68331a" d="M 321.5,160.5 C 322.72,162.05 322.72,163.716 321.5,165.5C 280.815,193.859 240.149,222.192 199.5,250.5C 199.5,249.167 199.5,247.833 199.5,246.5C 240.167,217.833 280.833,189.167 321.5,160.5 Z"/></g>
<g><path style="opacity:1" fill="#215a57" d="M 77.5,165.5 C 118.008,193.587 158.342,221.921 198.5,250.5C 199.72,252.284 199.72,253.95 198.5,255.5C 158.342,226.921 118.008,198.587 77.5,170.5C 76.2801,168.716 76.2801,167.05 77.5,165.5 Z"/></g>
<g><path style="opacity:1" fill="#1c4845" d="M 321.5,165.5 C 322.72,167.05 322.72,168.716 321.5,170.5C 280.833,199.167 240.167,227.833 199.5,256.5C 198.833,256.5 198.5,256.167 198.5,255.5C 199.72,253.95 199.72,252.284 198.5,250.5C 198.833,250.5 199.167,250.5 199.5,250.5C 240.149,222.192 280.815,193.859 321.5,165.5 Z"/></g>
<g><path style="opacity:1" fill="#383838" d="M 399.5,164.5 C 399.5,186.167 399.5,207.833 399.5,229.5C 384.323,218.497 368.99,207.664 353.5,197C 368.435,185.558 383.769,174.725 399.5,164.5 Z"/></g>
<g><path style="opacity:1" fill="#7f3f20" d="M 77.5,170.5 C 118.008,198.587 158.342,226.921 198.5,255.5C 198.5,256.167 198.833,256.5 199.5,256.5C 199.5,257.833 199.5,259.167 199.5,260.5C 199.167,260.5 198.833,260.5 198.5,260.5C 157.833,231.833 117.167,203.167 76.5,174.5C 76.2322,172.901 76.5655,171.568 77.5,170.5 Z"/></g>
<g><path style="opacity:1" fill="#68331a" d="M 321.5,170.5 C 322.434,171.568 322.768,172.901 322.5,174.5C 281.482,203.192 240.482,231.859 199.5,260.5C 199.5,259.167 199.5,257.833 199.5,256.5C 240.167,227.833 280.833,199.167 321.5,170.5 Z"/></g>
<g><path style="opacity:1" fill="#215a57" d="M 76.5,174.5 C 117.167,203.167 157.833,231.833 198.5,260.5C 199.72,262.284 199.72,263.95 198.5,265.5C 157.833,236.833 117.167,208.167 76.5,179.5C 76.5,177.833 76.5,176.167 76.5,174.5 Z"/></g>
<g><path style="opacity:1" fill="#1d4845" d="M 322.5,174.5 C 322.5,174.833 322.5,175.167 322.5,175.5C 322.5,176.167 322.5,176.833 322.5,177.5C 322.5,178.167 322.5,178.833 322.5,179.5C 281.324,208.254 240.324,237.254 199.5,266.5C 198.833,266.5 198.5,266.167 198.5,265.5C 199.72,263.95 199.72,262.284 198.5,260.5C 198.833,260.5 199.167,260.5 199.5,260.5C 240.482,231.859 281.482,203.192 322.5,174.5 Z"/></g>
<g><path style="opacity:1" fill="#393939" d="M 322.5,177.5 C 331.979,183.744 341.312,190.244 350.5,197C 317.325,220.088 284.325,243.421 251.5,267C 248.519,267.838 246.186,267.005 244.5,264.5C 270.1,246.355 295.767,228.189 321.5,210C 322.406,208.301 322.739,206.467 322.5,204.5C 322.5,202.833 322.5,201.167 322.5,199.5C 322.5,197.833 322.5,196.167 322.5,194.5C 322.5,192.833 322.5,191.167 322.5,189.5C 322.5,187.833 322.5,186.167 322.5,184.5C 322.5,182.833 322.5,181.167 322.5,179.5C 322.5,178.833 322.5,178.167 322.5,177.5 Z"/></g>
<g><path style="opacity:1" fill="#7f3f20" d="M 76.5,179.5 C 117.167,208.167 157.833,236.833 198.5,265.5C 198.5,266.167 198.833,266.5 199.5,266.5C 199.5,267.833 199.5,269.167 199.5,270.5C 158.5,241.833 117.5,213.167 76.5,184.5C 76.5,182.833 76.5,181.167 76.5,179.5 Z"/></g>
<g><path style="opacity:1" fill="#68331a" d="M 322.5,179.5 C 322.5,181.167 322.5,182.833 322.5,184.5C 281.5,213.167 240.5,241.833 199.5,270.5C 199.5,269.167 199.5,267.833 199.5,266.5C 240.324,237.254 281.324,208.254 322.5,179.5 Z"/></g>
<g><path style="opacity:1" fill="#215a57" d="M 76.5,184.5 C 117.5,213.167 158.5,241.833 199.5,270.5C 199.5,272.167 199.5,273.833 199.5,275.5C 199.167,275.5 198.833,275.5 198.5,275.5C 157.833,246.833 117.167,218.167 76.5,189.5C 76.5,187.833 76.5,186.167 76.5,184.5 Z"/></g>
<g><path style="opacity:1" fill="#1c4845" d="M 322.5,184.5 C 322.5,186.167 322.5,187.833 322.5,189.5C 281.646,218.423 240.646,247.089 199.5,275.5C 199.5,273.833 199.5,272.167 199.5,270.5C 240.5,241.833 281.5,213.167 322.5,184.5 Z"/></g>
<g><path style="opacity:1" fill="#7f3f20" d="M 76.5,189.5 C 117.167,218.167 157.833,246.833 198.5,275.5C 199.301,277.042 199.634,278.708 199.5,280.5C 158.5,251.833 117.5,223.167 76.5,194.5C 76.5,192.833 76.5,191.167 76.5,189.5 Z"/></g>
<g><path style="opacity:1" fill="#68331a" d="M 322.5,189.5 C 322.5,191.167 322.5,192.833 322.5,194.5C 281.518,223.141 240.518,251.808 199.5,280.5C 199.634,278.708 199.301,277.042 198.5,275.5C 198.833,275.5 199.167,275.5 199.5,275.5C 240.646,247.089 281.646,218.423 322.5,189.5 Z"/></g>
<g><path style="opacity:1" fill="#215a57" d="M 76.5,194.5 C 117.5,223.167 158.5,251.833 199.5,280.5C 199.5,282.167 199.5,283.833 199.5,285.5C 199.167,285.5 198.833,285.5 198.5,285.5C 158.111,256.444 117.444,227.778 76.5,199.5C 76.5,197.833 76.5,196.167 76.5,194.5 Z"/></g>
<g><path style="opacity:1" fill="#1c4845" d="M 322.5,194.5 C 322.5,196.167 322.5,197.833 322.5,199.5C 281.646,228.423 240.646,257.089 199.5,285.5C 199.5,283.833 199.5,282.167 199.5,280.5C 240.518,251.808 281.518,223.141 322.5,194.5 Z"/></g>
<g><path style="opacity:1" fill="#383838" d="M 399.5,231.5 C 399.5,254.167 399.5,276.833 399.5,299.5C 363.833,299.5 328.167,299.5 292.5,299.5C 278.875,289.556 265.209,279.556 251.5,269.5C 284.559,244.95 318.059,220.95 352,197.5C 367.991,208.664 383.824,219.998 399.5,231.5 Z"/></g>
<g><path style="opacity:1" fill="#7f3f20" d="M 76.5,199.5 C 117.444,227.778 158.111,256.444 198.5,285.5C 199.301,287.042 199.634,288.708 199.5,290.5C 158.482,261.808 117.482,233.141 76.5,204.5C 76.5,202.833 76.5,201.167 76.5,199.5 Z"/></g>
<g><path style="opacity:1" fill="#68331a" d="M 322.5,199.5 C 322.5,201.167 322.5,202.833 322.5,204.5C 281.354,232.911 240.354,261.577 199.5,290.5C 199.634,288.708 199.301,287.042 198.5,285.5C 198.833,285.5 199.167,285.5 199.5,285.5C 240.646,257.089 281.646,228.423 322.5,199.5 Z"/></g>
<g><path style="opacity:1" fill="#676767" d="M 399.5,162.5 C 399.5,163.167 399.5,163.833 399.5,164.5C 383.769,174.725 368.435,185.558 353.5,197C 368.99,207.664 384.323,218.497 399.5,229.5C 399.5,230.167 399.5,230.833 399.5,231.5C 383.824,219.998 367.991,208.664 352,197.5C 318.059,220.95 284.559,244.95 251.5,269.5C 265.209,279.556 278.875,289.556 292.5,299.5C 291.5,299.5 290.5,299.5 289.5,299.5C 276.181,289.696 262.681,280.03 249,270.5C 235.319,280.03 221.819,289.696 208.5,299.5C 207.5,299.5 206.5,299.5 205.5,299.5C 219.61,289.599 233.61,279.433 247.5,269C 245.922,267.906 244.255,267.072 242.5,266.5C 242.5,265.167 243.167,264.5 244.5,264.5C 246.186,267.005 248.519,267.838 251.5,267C 284.325,243.421 317.325,220.088 350.5,197C 341.312,190.244 331.979,183.744 322.5,177.5C 322.5,176.833 322.5,176.167 322.5,175.5C 324.5,176.5 326.5,177.5 328.5,178.5C 335.883,184.705 343.716,190.372 352,195.5C 367.703,184.295 383.536,173.295 399.5,162.5 Z"/></g>
<g><path style="opacity:1" fill="#1c5958" d="M 76.5,204.5 C 117.482,233.141 158.482,261.808 199.5,290.5C 199.5,292.167 199.5,293.833 199.5,295.5C 178.833,281.167 158.167,266.833 137.5,252.5C 126.467,244.144 115.134,236.144 103.5,228.5C 103.5,227.833 103.167,227.5 102.5,227.5C 94.3462,221.53 86.0129,215.696 77.5,210C 76.5939,208.301 76.2606,206.467 76.5,204.5 Z"/></g>
<g><path style="opacity:1" fill="#184948" d="M 322.5,204.5 C 322.739,206.467 322.406,208.301 321.5,210C 295.767,228.189 270.1,246.355 244.5,264.5C 243.167,264.5 242.5,265.167 242.5,266.5C 227.994,275.919 213.661,285.586 199.5,295.5C 199.5,293.833 199.5,292.167 199.5,290.5C 240.354,261.577 281.354,232.911 322.5,204.5 Z"/></g>
<g><path style="opacity:1" fill="#3e3e3e" d="M 103.5,228.5 C 115.134,236.144 126.467,244.144 137.5,252.5C 111.22,260.654 84.8866,268.654 58.5,276.5C 59.1925,277.518 59.8592,278.518 60.5,279.5C 56.402,277.251 52.402,274.751 48.5,272C 46.9926,271.163 46.4926,269.996 47,268.5C 65.5992,254.788 84.4325,241.455 103.5,228.5 Z"/></g>
<g><path style="opacity:1" fill="#3e3e3e" d="M -0.5,239.5 C 13.8606,249.012 27.8606,259.012 41.5,269.5C 27.7914,279.556 14.1248,289.556 0.5,299.5C 0.166667,299.5 -0.166667,299.5 -0.5,299.5C -0.5,279.5 -0.5,259.5 -0.5,239.5 Z"/></g>
<g><path style="opacity:1" fill="#383838" d="M 137.5,252.5 C 158.167,266.833 178.833,281.167 199.5,295.5C 213.661,285.586 227.994,275.919 242.5,266.5C 244.255,267.072 245.922,267.906 247.5,269C 233.61,279.433 219.61,289.599 205.5,299.5C 166.167,299.5 126.833,299.5 87.5,299.5C 78.5,292.833 69.5,286.167 60.5,279.5C 59.8592,278.518 59.1925,277.518 58.5,276.5C 84.8866,268.654 111.22,260.654 137.5,252.5 Z"/></g>
<g><path style="opacity:1" fill="#606060" d="M 102.5,227.5 C 103.167,227.5 103.5,227.833 103.5,228.5C 84.4325,241.455 65.5992,254.788 47,268.5C 46.4926,269.996 46.9926,271.163 48.5,272C 52.402,274.751 56.402,277.251 60.5,279.5C 69.5,286.167 78.5,292.833 87.5,299.5C 86.1667,299.5 84.8333,299.5 83.5,299.5C 70.786,289.296 57.6193,279.629 44,270.5C 30.0096,279.57 16.5096,289.236 3.5,299.5C 2.5,299.5 1.5,299.5 0.5,299.5C 14.1248,289.556 27.7914,279.556 41.5,269.5C 27.8606,259.012 13.8606,249.012 -0.5,239.5C -0.5,238.833 -0.5,238.167 -0.5,237.5C 14.1484,247.494 28.8151,257.494 43.5,267.5C 63.178,254.15 82.8447,240.817 102.5,227.5 Z"/></g>
<g><path style="opacity:1" fill="#383838" d="M 289.5,299.5 C 262.5,299.5 235.5,299.5 208.5,299.5C 221.819,289.696 235.319,280.03 249,270.5C 262.681,280.03 276.181,289.696 289.5,299.5 Z"/></g>
<g><path style="opacity:1" fill="#393939" d="M 83.5,299.5 C 56.8333,299.5 30.1667,299.5 3.5,299.5C 16.5096,289.236 30.0096,279.57 44,270.5C 57.6193,279.629 70.786,289.296 83.5,299.5 Z"/></g>
</svg>
