<svg width="26" height="27" viewBox="0 0 26 27" fill="none" xmlns="http://www.w3.org/2000/svg">
<g clip-path="url(#clip0_310_271)">
<path d="M23.3272 7.86115C23.082 8.11084 22.7895 8.30919 22.4666 8.4446C22.1437 8.58 21.7971 8.64975 21.4469 8.64975C21.0967 8.64975 20.75 8.58 20.4272 8.4446C20.1043 8.30919 19.8117 8.11084 19.5666 7.86115C19.0676 7.35261 18.7882 6.66905 18.7882 5.95713C18.7882 5.24522 19.0676 4.56166 19.5666 4.05312C19.8117 3.80343 20.1043 3.60508 20.4272 3.46967C20.75 3.33427 21.0967 3.26452 21.4469 3.26452C21.7971 3.26452 22.1437 3.33427 22.4666 3.46967C22.7895 3.60508 23.082 3.80343 23.3272 4.05312C23.8261 4.56166 24.1056 5.24522 24.1056 5.95713C24.1056 6.66905 23.8261 7.35261 23.3272 7.86115ZM7.5296 20.0506C7.31503 19.832 7.05895 19.6584 6.77636 19.5399C6.49376 19.4213 6.19032 19.3603 5.8838 19.3603C5.57728 19.3603 5.27384 19.4213 4.99124 19.5399C4.70865 19.6584 4.45257 19.832 4.238 20.0506C3.80118 20.4955 3.55651 21.0938 3.55651 21.7168C3.55651 22.3399 3.80118 22.9381 4.238 23.383C5.14696 24.3031 6.62064 24.3031 7.5296 23.383C7.96673 22.9381 8.2116 22.3396 8.2116 21.7163C8.2116 21.093 7.96673 20.4956 7.5296 20.0506ZM20.2727 22.9064C19.9607 22.5886 19.7859 22.1613 19.7859 21.7163C19.7859 21.2713 19.9607 20.844 20.2727 20.5262C20.426 20.3702 20.6089 20.2463 20.8106 20.1617C21.0124 20.0772 21.2291 20.0336 21.4479 20.0336C21.6668 20.0336 21.8834 20.0772 22.0852 20.1617C22.287 20.2463 22.4699 20.3702 22.6231 20.5262C23.2721 21.1836 23.2721 22.2501 22.6231 22.9064C22.4699 23.0624 22.287 23.1863 22.0852 23.2709C21.8834 23.3555 21.6668 23.399 21.4479 23.399C21.2291 23.399 21.0124 23.3555 20.8106 23.2709C20.6089 23.1863 20.426 23.0624 20.2727 22.9064ZM7.7636 7.86115C8.26254 7.35261 8.54199 6.66905 8.54199 5.95713C8.54199 5.24522 8.26254 4.56166 7.7636 4.05312C7.51842 3.80327 7.22578 3.60479 6.90282 3.46929C6.57986 3.33379 6.23307 3.26399 5.88276 3.26399C5.53245 3.26399 5.18566 3.33379 4.8627 3.46929C4.53974 3.60479 4.2471 3.80327 4.00192 4.05312C3.50298 4.56166 3.22353 5.24522 3.22353 5.95713C3.22353 6.66905 3.50298 7.35261 4.00192 7.86115C4.2471 8.111 4.53974 8.30948 4.8627 8.44498C5.18566 8.58048 5.53245 8.65028 5.88276 8.65028C6.23307 8.65028 6.57986 8.58048 6.90282 8.44498C7.22578 8.30948 7.51842 8.111 7.7636 7.86115ZM16.3249 2.69273C16.3249 4.18085 15.1341 5.3865 13.6646 5.3865C12.1961 5.3865 11.0053 4.18085 11.0053 2.69273C11.0053 1.20565 12.1961 0 13.6646 0C15.1341 0 16.3249 1.20565 16.3249 2.69273ZM13.6646 22.9604C12.5622 22.9604 11.6698 23.8638 11.6698 24.9802C11.6698 26.0955 12.5632 27 13.6646 27C14.767 27 15.6593 26.0965 15.6593 24.9802C15.6593 23.8649 14.767 22.9604 13.6646 22.9604ZM24.6698 15.1823C23.9356 15.1823 23.3407 14.58 23.3407 13.8365C23.3407 13.0929 23.9356 12.4906 24.6698 12.4906C25.4051 12.4906 26.001 13.0929 26 13.8365C26 14.58 25.4041 15.1833 24.6698 15.1833V15.1823ZM5.3196 13.8375C5.3196 12.3504 4.1288 11.1448 2.65928 11.1448C1.1908 11.1427 0 12.3473 0 13.8365C0 15.3235 1.1908 16.5292 2.65928 16.5292C4.1288 16.5292 5.3196 15.3256 5.3196 13.8375Z" fill="black"/>
</g>
<defs>
<clipPath id="clip0_310_271">
<rect width="26" height="27" fill="white"/>
</clipPath>
</defs>
</svg>
