<svg width="304" height="266" viewBox="0 0 304 266" fill="none" xmlns="http://www.w3.org/2000/svg">
<path d="M143.341 66.7286L135 71.5664M281.229 164.475C282.098 164.997 284.513 165.831 287.224 164.997C287.563 164.892 288.001 164.714 288.515 164.475M281.229 164.475V170.21M281.229 164.475C233.769 137.095 140.653 83.3284 131.09 77.6323M290.092 145.708C292.163 146.913 295.464 148.833 298.172 150.412M279.926 139.713L260.637 128.691M252.557 124.073L260.637 128.691M242.13 117.818L228.055 109.824M221.017 105.827L228.055 109.824M212.415 100.875L199.122 93.2554M191.041 88.6239L198.079 92.6578M180.876 82.6288L161.848 71.7556M153.507 66.9893L161.848 71.7556M129.502 75.8517C129.488 75.1986 129.942 74.6015 130.308 74.2877L135 71.5664M129.502 75.8517C129.512 76.2836 129.727 76.7399 130.308 77.155C130.374 77.2019 130.639 77.3637 131.09 77.6323M129.502 75.8517V81.8468C129.684 82.2812 130.099 83.1501 130.308 83.1501C130.319 83.1501 130.586 83.2986 131.09 83.5844M281.229 170.21C281.924 170.558 283.627 171.253 284.878 171.253C286.001 171.253 287.628 170.693 288.515 170.327M281.229 170.21C279.792 169.38 278.314 168.525 276.798 167.649M302.082 162.39C302.429 162.303 303.177 161.869 303.385 160.826C303.594 159.784 303.472 155.7 303.385 153.788M302.082 162.39V156.543M302.082 162.39L293.141 167.649M288.515 164.475V170.327M288.515 164.475C291.799 162.955 298.211 159.012 302.082 156.543M288.515 170.327C288.617 170.285 288.708 170.246 288.788 170.21L293.141 167.649M302.082 156.543C302.455 156.305 302.804 156.081 303.124 155.874C303.385 155.179 303.646 153.632 302.603 153.007C302.139 152.728 300.347 151.68 298.172 150.412M131.09 77.6323V83.5844M131.09 83.5844C132.476 84.3696 135.651 86.1909 140.213 88.8146M135 71.5664C135 71.8653 135 72.5674 135 72.9844C135 73.4015 142.472 77.6763 146.208 79.7616C146.408 79.8114 146.681 79.8713 146.99 79.9264M135 71.5664L134.739 76.6337C138.562 78.9506 146.365 83.5844 146.99 83.5844M149.336 80.0222C150.17 79.8137 157.156 75.591 160.544 73.5058C160.817 73.2718 161.337 72.7483 161.648 72.2025M149.336 80.0222C148.741 80.1709 147.758 80.0633 146.99 79.9264M149.336 80.0222V83.5844M161.848 71.7556C161.803 71.9026 161.733 72.0534 161.648 72.2025M161.648 72.2025L161.326 76.373L149.336 83.5844M149.336 83.5844C148.815 83.5844 147.616 83.5844 146.99 83.5844M146.99 83.5844V79.9264M180.876 88.6239L173.317 93.0551L172.535 93.5764C172.535 94.0109 172.535 94.9319 172.535 95.1404M172.535 95.1404C172.535 95.3489 180.354 99.5716 184.264 101.657H184.786M172.535 95.1404V98.0076L184.264 104.785H184.786M187.132 101.657L198.079 95.401M187.132 101.657H184.786M187.132 101.657V104.524M198.079 95.401V92.6578M198.079 95.401H199.122M198.079 92.6578L199.122 93.2554M199.122 95.401V98.0076L187.132 104.785H184.786M199.122 95.401V93.2554M184.786 101.657V104.785M212.415 105.045C211.546 105.219 209.6 105.723 208.766 106.349C207.724 107.131 205.638 108.173 205.378 110.519C205.309 111.136 205.257 111.863 205.219 112.604M214.24 121.467L205.117 116.514C205.117 115.698 205.14 114.121 205.219 112.604M214.24 121.467H219.714C222.407 121.119 227.846 119.486 228.055 115.732C228.263 111.979 228.142 111.562 228.055 111.823M214.24 121.467V117.818M228.055 111.823V109.824M228.055 111.823C226.491 114.95 225.188 115.732 222.581 117.036C220.496 118.078 216.151 117.991 214.24 117.818M205.219 112.604L214.24 117.818M212.415 108.173C211.546 108.521 209.809 109.581 209.809 111.041C209.809 112.865 212.676 115.472 216.325 115.472C219.974 115.472 222.842 112.865 223.363 111.823C223.884 110.78 223.102 109.216 220.756 108.434M242.391 124.334L234.05 129.026V130.59M234.05 130.59L245.519 137.367H246.301M234.05 130.59V133.718L245.78 140.495H248.647M248.647 137.367L258.552 131.633L260.637 130.59M248.647 137.367H246.301M248.647 137.367V140.495M260.637 130.59V128.691M260.637 130.59V133.718L248.647 140.495M246.301 137.367V140.234M279.926 146.229L271.585 150.921V152.485M271.585 152.485L283.836 159.002M271.585 152.485V155.352L283.836 162.39M283.836 159.002H285.921M283.836 159.002V162.39M285.921 159.002L298.172 151.964M285.921 159.002L286.182 162.39M298.172 151.964V150.412M298.172 151.964V155.352L286.182 162.39M286.182 162.39H283.836M140.213 88.8146V97.4863M140.213 88.8146C146.36 92.3502 155.024 97.343 165.216 103.221M165.216 103.221V107.652C164.528 109.65 162.473 113.908 159.762 114.95M165.216 103.221C169.217 105.529 173.455 107.973 177.867 110.519M135.521 101.136L142.82 96.4437L143.602 97.2257L143.862 104.524M135.521 101.136L133.436 99.8322H130.047L115.994 91.7518M135.521 101.136L177.867 125.481M143.862 104.524L142.82 104.785M143.862 104.524L158.72 113.386L159.241 114.95M158.459 240.588L112.583 214.261L111.28 215.043L112.323 215.825C110.846 216.781 107.683 218.745 106.849 218.953C106.015 219.162 105.459 219.04 105.285 218.953L85.4748 207.622M158.459 240.588C158.98 240.935 160.44 241.422 162.108 240.588M158.459 240.588V263.786M162.108 240.588C163.777 239.754 231.617 200.62 265.329 181.158C265.763 180.897 266.632 180.219 266.632 179.594M162.108 240.588V264.308M266.632 179.594C266.632 179.323 263.859 177.509 260.116 175.186M266.632 179.594V203.574L252.557 211.753M244.476 165.779L245.78 163.433H246.822L246.301 165.518L254.783 170.341M244.476 165.779C248.662 168.241 255.219 172.148 260.116 175.186M244.476 165.779L243.173 164.997M259.595 174.381C260.22 173.963 259.855 173.338 259.595 173.077L254.783 170.341M115.994 91.7518L109.195 87.842C108.76 87.5177 107.318 87.0638 105.024 87.842C102.73 88.6201 34.5596 128.308 0.760875 148.054C0.646121 148.131 0.531367 148.301 0.52782 148.575M115.994 91.7518C116.334 91.5781 117.171 91.2826 117.796 91.4912C118.422 91.6997 126.398 96.4437 130.308 98.7896L133.175 98.5289L134.479 98.7896C134.565 98.9634 134.739 99.5194 134.739 100.354M115.994 91.7518C144.05 108.086 188.692 134.009 220.756 152.462M177.867 110.519V125.481M177.867 110.519C182.927 113.439 188.217 116.492 193.648 119.626M177.867 125.481L186.35 130.358M193.648 119.626V126.159C193.214 127.481 191.146 130.172 186.35 130.358M193.648 119.626C201.441 124.125 209.523 128.791 217.629 133.471M186.35 130.358L212.415 145.344M212.415 130.59V132.675M212.415 145.344L220.756 150.139V147.011M212.415 145.344V144.926M220.756 135.277C219.714 134.675 218.671 134.073 217.629 133.471M220.756 135.277C216.586 139.027 213.458 137.885 212.415 136.846M220.756 135.277V139.192M220.756 135.277C226.972 138.867 233.181 142.453 239.263 145.966M212.415 132.675C212.676 133.206 214.084 134.108 217.629 133.471M212.415 132.675V136.846M212.415 136.846V141.095M212.415 141.095C213.892 141.937 217.628 142.737 220.756 139.192M212.415 141.095V144.926M220.756 139.192V143.102M212.415 144.926C213.806 145.621 217.42 146.229 220.756 143.102M220.756 143.102V147.011M218.411 148.575C218.671 148.61 219.505 148.345 220.756 147.011M260.116 175.186L274.713 166.445M274.713 166.445C270.444 163.978 265.901 161.353 261.158 158.613M274.713 166.445C275.415 166.851 276.111 167.252 276.798 167.649M261.158 158.613L260.898 162.39C260.377 164.128 258.917 167.864 257.249 168.907C255.58 169.949 254.91 170.298 254.783 170.341M261.158 158.613C254.211 154.6 246.836 150.339 239.263 145.966M239.263 145.966V149.879M276.798 167.649V182.982C277.155 183.849 278.152 185.224 279.926 186.213M293.141 167.649L293.219 182.982C292.826 183.818 291.808 185.128 290.092 186.107M279.926 186.213C281.175 186.909 282.81 187.413 284.878 187.413C287.05 187.413 288.776 186.857 290.092 186.107M279.926 186.213V243.976M290.092 186.107V245.28M162.108 264.308C161.587 264.655 160.127 265.037 158.459 263.786M162.108 264.308L242.391 217.66M158.459 263.786C156.791 262.535 52.4581 202.445 0.500244 172.556L0.52782 148.575M0.52782 148.575C0.523309 148.924 0.698574 149.439 1.28219 150.139C2.32482 151.39 31.6055 168.212 46.1154 176.466L45.3335 176.987C45.0728 176.726 44.1866 176.362 42.7269 176.987C41.2672 177.613 39.1645 179.159 38.2957 179.854V180.636L75.3092 201.807M242.391 217.66L252.557 211.753M242.391 217.66V222.602M252.557 211.753V223.906M242.391 222.602V228.597C242.642 228.932 243.171 229.44 243.955 229.9M242.391 222.602C241.088 222.255 238.168 221.768 236.917 222.602C236.804 222.678 236.718 222.779 236.657 222.901M238.221 230.422L239.003 229.119C237.897 227.46 236.044 224.12 236.657 222.901M238.221 230.422V233.55L239.003 233.98M238.221 230.422L240.827 231.986M243.434 236.417L244.998 236.157M243.434 236.417V233.55M243.434 236.417L241.609 235.414M244.998 236.157L254.903 237.72H255.163M244.998 236.157V233.029M256.206 226.251L255.163 227.294L256.443 229.64M256.206 226.251L252.557 223.906M256.206 226.251L256.443 229.64M252.557 223.906V228.597C251.949 229.466 250.054 231.152 247.344 230.943C245.938 230.835 244.799 230.395 243.955 229.9M256.443 229.64L258.291 233.029V233.289M243.434 233.55L244.998 232.768C247.865 233.289 253.704 234.332 254.121 234.332C254.313 234.332 254.682 234.474 255.163 234.548M243.434 233.55L240.827 231.986M258.291 233.289V236.938L256.727 237.72H255.163M258.291 233.289C257.139 234.606 255.987 234.676 255.163 234.548M255.163 234.548V237.72M255.163 237.72C254.903 238.329 253.599 239.701 250.471 240.327C246.562 241.109 243.173 240.327 241.609 239.545M239.003 233.98V236.417C239.35 237.199 240.358 238.919 241.609 239.545M239.003 233.98L240.827 234.984M241.609 239.545V235.414M240.827 231.986V234.984M240.827 231.986L243.955 229.9M240.827 234.984L241.609 235.414M236.657 222.901L236.396 226.773L238.221 230.297M279.926 243.976V249.971C280.534 250.927 282.376 252.839 284.878 252.839C287.381 252.839 289.396 250.927 290.092 249.971V245.28M279.926 243.976C278.188 243.542 274.608 243.038 274.191 244.498M274.191 244.498C273.774 245.957 275.755 249.624 276.798 251.275L275.755 252.057M274.191 244.498L273.931 248.929L275.755 252.057M275.755 252.057V255.185L276.537 255.669M275.755 252.057L278.492 253.49M281.229 258.573L282.532 257.791L282.793 257.832M281.229 258.573V254.924M281.229 258.573L279.144 257.282M292.437 259.355L282.793 257.832M292.437 259.355C292.582 259.373 292.762 259.391 292.959 259.403M292.437 259.355C289.831 262.382 286.182 262.744 282.532 262.483C278.883 262.222 277.319 259.403 276.798 258.834C276.381 258.378 276.45 256.534 276.537 255.669M294.001 247.886L292.959 248.929L294.001 251.109M294.001 247.886L290.092 245.28M294.001 247.886V251.109M294.001 251.109L295.826 254.924L295.85 255.185M281.229 254.924L282.793 254.663L291.655 256.227C291.986 256.264 292.474 256.307 292.959 256.328M281.229 254.924L278.492 253.49M295.85 255.185L296.087 257.791C295.913 258.052 295.461 258.677 295.044 259.094C294.714 259.425 293.708 259.45 292.959 259.403M295.85 255.185C295.581 255.445 294.94 256.019 294.523 256.227C294.282 256.348 293.623 256.358 292.959 256.328M282.793 254.924V257.832M292.959 256.328V259.403M278.492 253.49V256.879M278.492 253.49L281.49 251.796M278.492 256.879L279.144 257.282M278.492 256.879L276.537 255.669M279.144 257.282V260.658M75.3092 201.807V209.309L80.001 215.565H82.3469L83.1289 215.043L82.6076 213.74H80.001L76.3518 209.309M75.3092 201.807L78.8538 203.835M76.3518 209.309L76.3146 208.527M76.3518 209.309H79.4797L84.1715 215.043L84.9535 215.304L85.4748 214.783V207.622M78.8538 203.835H76.0911L76.3146 208.527M78.8538 203.835L79.3095 204.096M79.3095 204.096V208.527H76.3146M79.3095 204.096L80.6766 204.878M85.4748 207.622L81.9849 205.626M80.6766 204.878V208.787L83.9109 212.437L84.4322 212.176V208.266L81.9849 205.626M80.6766 204.878L81.9849 205.626" stroke="white" stroke-opacity="0.8"/>
<path d="M211.373 41.9661V45.3546C211.582 45.6237 211.937 45.9853 212.415 46.344M222.06 41.9661V45.3546C221.772 45.6132 221.322 45.9573 220.757 46.3021M212.415 46.344C213.327 47.0277 214.684 47.7005 216.325 47.7005C218 47.7005 219.613 47 220.757 46.3021M212.415 46.344V49.0038M220.757 46.3021V56.5629M212.415 49.0038C213.197 49.8905 215.908 51.1317 220.496 49.0038M212.415 49.0038V53.6957M212.415 53.6957C213.458 54.6514 216.534 55.8331 220.496 52.9137M212.415 53.6957V61.7761M212.676 57.6056C213.719 58.7351 216.794 60.1079 220.757 56.5629M220.757 56.5629V60.2121M212.415 61.7761C213.806 62.7318 217.42 63.7571 220.757 60.2121M212.415 61.7761V65.686M220.757 60.2121V64.3827M212.415 65.686C213.632 66.6417 217.003 67.7191 220.757 64.3827M212.415 65.686V69.5958M220.757 64.3827V68.2925M212.415 69.5958C213.892 70.6385 217.629 71.8375 220.757 68.2925M212.415 69.5958V73.7664M220.757 68.2925V71.9418M212.415 73.7664C214.153 74.7221 218.254 75.6952 220.757 71.9418M212.415 73.7664V77.6762M220.757 71.9418V75.8516M212.415 77.6762C213.806 78.632 217.42 79.6051 220.757 75.8516M212.415 77.6762V81.5861M220.757 75.8516V79.7615M212.415 81.5861C213.892 82.5419 217.629 83.515 220.757 79.7615M212.415 81.5861V85.496M220.757 79.7615V83.6714M212.415 85.496C213.719 86.5386 217.212 87.6334 220.757 83.6714M212.415 85.496V89.4059M220.757 83.6714V87.5813M212.415 89.4059C213.979 90.3616 217.837 91.3347 220.757 87.5813M212.415 89.4059V93.0551M220.757 87.5813V91.7518M212.415 93.0551C213.545 94.2715 216.794 95.7138 220.757 91.7518M212.415 93.0551V97.2256M220.757 91.7518V95.6617M212.415 97.2256C213.719 98.3551 217.212 99.6237 220.757 95.6617M212.415 97.2256V101.135M220.757 95.6617V99.5715M212.415 101.135C213.892 102.178 217.629 103.325 220.757 99.5715M212.415 101.135V105.045M220.757 99.5715V103.742M212.415 105.045C213.719 106.175 217.212 107.496 220.757 103.742M212.415 105.045V108.695M220.757 103.742V107.391M212.415 108.695V110.519C212.763 111.475 214.032 113.386 216.325 113.386C218.619 113.386 220.235 111.475 220.757 110.519V107.391M212.415 108.695C213.545 109.911 216.794 111.353 220.757 107.391" stroke="white" stroke-opacity="0.8"/>
<path d="M143.341 2.86731V72.7237C144.036 73.5926 146 75.3303 148.294 75.3303C150.587 75.3303 152.725 73.5926 153.507 72.7237V2.86731" stroke="white" stroke-opacity="0.8"/>
<path d="M180.875 24.7626V94.619C181.571 95.4878 183.534 97.2256 185.828 97.2256C188.122 97.2256 190.259 95.4878 191.041 94.619V24.7626" stroke="white" stroke-opacity="0.8"/>
<path d="M242.391 60.212V130.068C243.086 130.937 245.05 132.675 247.344 132.675C249.637 132.675 251.775 130.937 252.557 130.068V60.212" stroke="white" stroke-opacity="0.8"/>
<path d="M279.926 82.1074V151.964C280.621 152.833 282.584 154.57 284.878 154.57C287.172 154.57 289.309 152.833 290.091 151.964V82.1074" stroke="white" stroke-opacity="0.8"/>
<path d="M148.293 0.5C149.741 0.5 151.026 0.807985 151.932 1.28223C152.861 1.76894 153.267 2.35467 153.267 2.86719C153.267 3.37972 152.861 3.96542 151.932 4.45215C151.026 4.9264 149.741 5.23438 148.293 5.23438C146.846 5.23435 145.56 4.92645 144.655 4.45215C143.725 3.96543 143.32 3.37971 143.32 2.86719C143.32 2.35467 143.725 1.76893 144.655 1.28223C145.56 0.807925 146.846 0.500027 148.293 0.5Z" stroke="white" stroke-opacity="0.8"/>
<path d="M185.828 22.3954C187.275 22.3954 188.561 22.7034 189.467 23.1776C190.396 23.6643 190.801 24.2501 190.802 24.7626C190.802 25.2751 190.396 25.8608 189.467 26.3475C188.561 26.8218 187.275 27.1298 185.828 27.1298C184.381 27.1297 183.095 26.8218 182.189 26.3475C181.26 25.8608 180.854 25.2751 180.854 24.7626C180.854 24.2501 181.26 23.6643 182.189 23.1776C183.095 22.7033 184.381 22.3954 185.828 22.3954Z" stroke="white" stroke-opacity="0.8"/>
<path d="M216.586 39.5988C218.033 39.5988 219.319 39.9067 220.224 40.381C221.154 40.8677 221.559 41.4534 221.559 41.9659C221.559 42.4785 221.154 43.0642 220.224 43.5509C219.319 44.0252 218.033 44.3331 216.586 44.3331C215.138 44.3331 213.853 44.0252 212.947 43.5509C212.018 43.0642 211.612 42.4785 211.612 41.9659C211.612 41.4534 212.018 40.8677 212.947 40.381C213.853 39.9067 215.138 39.5988 216.586 39.5988Z" stroke="white" stroke-opacity="0.8"/>
<path d="M216.846 41.1627C217.344 41.1627 217.77 41.2896 218.056 41.4684C218.349 41.6516 218.432 41.8412 218.432 41.9664C218.432 42.0917 218.349 42.2805 218.056 42.4635C217.77 42.6423 217.344 42.7692 216.846 42.7692C216.35 42.7691 215.923 42.6422 215.637 42.4635C215.345 42.2805 215.262 42.0917 215.261 41.9664C215.261 41.8411 215.344 41.6516 215.637 41.4684C215.923 41.2897 216.35 41.1628 216.846 41.1627Z" stroke="white" stroke-opacity="0.8"/>
<path d="M247.344 57.8448C248.791 57.8448 250.077 58.1528 250.982 58.6271C251.911 59.1138 252.317 59.6995 252.317 60.212C252.317 60.7246 251.911 61.3103 250.982 61.797C250.077 62.2713 248.791 62.5792 247.344 62.5792C245.896 62.5792 244.61 62.2713 243.705 61.797C242.776 61.3103 242.37 60.7246 242.37 60.212C242.37 59.6995 242.776 59.1138 243.705 58.6271C244.61 58.1528 245.896 57.8449 247.344 57.8448Z" stroke="white" stroke-opacity="0.8"/>
<path d="M284.878 79.7402C286.325 79.7402 287.611 80.0482 288.517 80.5225C289.446 81.0092 289.852 81.5949 289.852 82.1074C289.852 82.62 289.446 83.2057 288.517 83.6924C287.611 84.1666 286.325 84.4746 284.878 84.4746C283.431 84.4746 282.145 84.1667 281.24 83.6924C280.31 83.2057 279.905 82.6199 279.905 82.1074C279.905 81.5949 280.31 81.0092 281.24 80.5225C282.145 80.0482 283.431 79.7403 284.878 79.7402Z" stroke="white" stroke-opacity="0.8"/>
<path d="M239.002 223.102C239.435 223.102 239.803 223.203 240.045 223.341C240.301 223.488 240.327 223.614 240.327 223.645C240.327 223.677 240.3 223.802 240.045 223.948C239.803 224.086 239.435 224.187 239.002 224.187C238.569 224.187 238.202 224.086 237.96 223.948C237.705 223.802 237.678 223.677 237.678 223.645C237.678 223.614 237.704 223.488 237.96 223.341C238.202 223.203 238.569 223.102 239.002 223.102Z" stroke="white" stroke-opacity="0.8"/>
<path d="M255.684 232.486C256.117 232.486 256.485 232.587 256.727 232.725C256.983 232.871 257.009 232.998 257.009 233.029C257.009 233.06 256.982 233.186 256.727 233.332C256.485 233.47 256.117 233.571 255.684 233.571C255.251 233.571 254.884 233.47 254.642 233.332C254.387 233.186 254.36 233.06 254.36 233.029C254.36 232.998 254.386 232.871 254.642 232.725C254.884 232.587 255.251 232.486 255.684 232.486Z" stroke="white" stroke-opacity="0.8"/>
<path d="M276.537 244.998C276.97 244.998 277.338 245.099 277.58 245.237C277.835 245.383 277.862 245.509 277.862 245.541C277.862 245.572 277.834 245.698 277.58 245.843C277.338 245.981 276.97 246.083 276.537 246.083C276.104 246.082 275.736 245.981 275.495 245.843C275.24 245.698 275.213 245.572 275.212 245.541C275.212 245.509 275.239 245.383 275.495 245.237C275.736 245.099 276.104 244.998 276.537 244.998Z" stroke="white" stroke-opacity="0.8"/>
<path d="M293.219 254.381C293.652 254.381 294.02 254.482 294.262 254.62C294.518 254.767 294.544 254.893 294.544 254.924C294.544 254.956 294.517 255.081 294.262 255.227C294.02 255.365 293.652 255.466 293.219 255.466C292.786 255.466 292.419 255.365 292.177 255.227C291.922 255.081 291.895 254.956 291.895 254.924C291.895 254.893 291.921 254.767 292.177 254.62C292.419 254.482 292.786 254.381 293.219 254.381Z" stroke="white" stroke-opacity="0.8"/>
<path d="M245.258 154.049C245.05 154.258 239.611 157.438 236.917 159.002C236.754 159.056 236.445 159.125 236.135 159.116V168.755C236.477 168.773 236.857 168.753 237.178 168.646C237.804 168.437 242.826 165.431 245.258 163.954L245.355 153.879C245.337 153.943 245.307 154.001 245.258 154.049Z" fill="#7EB769"/>
<path fill-rule="evenodd" clip-rule="evenodd" d="M230.662 145.187C230.036 144.978 229.532 145.1 229.358 145.187L220.757 150.139C220.757 150.188 220.766 150.238 220.782 150.286C220.833 150.446 220.951 150.594 221.017 150.66C225.709 153.354 235.197 158.793 235.614 159.002C235.769 159.079 235.952 159.111 236.135 159.116C236.445 159.125 236.754 159.056 236.917 159.002C239.611 157.438 245.05 154.258 245.258 154.049C245.307 154.001 245.337 153.943 245.355 153.879C245.413 153.668 245.325 153.401 245.258 153.267C240.654 150.66 231.287 145.395 230.662 145.187ZM233.529 149.618V151.182C233.616 151.79 233.737 153.111 233.529 153.528C233.268 154.049 232.747 154.049 231.965 154.31C231.339 154.518 230.314 154.049 229.88 153.788V151.182V150.4V149.618L230.662 148.836L231.704 148.575L232.747 148.836L233.529 149.618Z" fill="#7EB769"/>
<path d="M235.614 159.002C235.197 158.793 225.709 153.354 221.017 150.66C220.951 150.594 220.833 150.446 220.782 150.286L220.768 155.874L224.176 157.492L225.709 158.22V161.087L220.76 159.002L220.757 160.305L235.353 168.646C235.523 168.688 235.811 168.739 236.135 168.755V159.116C235.952 159.111 235.769 159.079 235.614 159.002Z" fill="#7EB769"/>
<path d="M229.88 151.182L230.401 151.703H232.486L233.529 151.182V149.618L232.747 148.836L231.704 148.575L230.662 148.836L229.88 149.618V150.4V151.182Z" fill="#7EB769"/>
<path d="M230.401 151.703L229.88 151.182V153.788C230.314 154.049 231.339 154.518 231.965 154.31C232.747 154.049 233.268 154.049 233.529 153.528C233.737 153.111 233.616 151.79 233.529 151.182L232.486 151.703H230.401Z" fill="#7EB769"/>
<path d="M225.709 161.087V158.22L224.176 157.492L220.768 155.874L220.76 159.002L225.709 161.087Z" fill="#7EB769"/>
<path d="M220.782 150.286C220.833 150.446 220.951 150.594 221.017 150.66C225.709 153.354 235.197 158.793 235.614 159.002C235.769 159.079 235.952 159.111 236.135 159.116M220.782 150.286C220.766 150.238 220.757 150.188 220.757 150.139L229.358 145.187C229.532 145.1 230.036 144.978 230.662 145.187C231.287 145.395 240.654 150.66 245.258 153.267C245.325 153.401 245.413 153.668 245.355 153.879M220.782 150.286L220.768 155.874M245.355 153.879C245.337 153.943 245.307 154.001 245.258 154.049C245.05 154.258 239.611 157.438 236.917 159.002C236.754 159.056 236.445 159.125 236.135 159.116M245.355 153.879L245.258 163.954C242.826 165.431 237.804 168.437 237.178 168.646C236.857 168.753 236.477 168.773 236.135 168.755M236.135 168.755C235.811 168.739 235.523 168.688 235.353 168.646L220.757 160.305L220.76 159.002M236.135 168.755V159.116M229.88 149.618L226.752 147.793L222.581 150.139L236.135 158.22L240.306 155.874L233.79 151.703M229.88 149.618L230.662 148.836L231.704 148.575L232.747 148.836L233.529 149.618V151.182M229.88 149.618V150.4M229.88 151.182L230.401 151.703H232.486L233.529 151.182M229.88 151.182V150.4M229.88 151.182V153.788M233.529 151.182C233.616 151.79 233.737 153.111 233.529 153.528C233.268 154.049 232.747 154.049 231.965 154.31C231.339 154.518 230.314 154.049 229.88 153.788M229.88 150.4V153.788M220.768 155.874L220.76 159.002M220.768 155.874L224.176 157.492M220.76 159.002L225.709 161.087V158.22L224.176 157.492M224.21 157.492C224.199 157.492 224.188 157.492 224.176 157.492M221.017 159.002C221.633 157.975 223.456 157.506 224.176 157.492" stroke="white"/>
</svg>
