<svg width="32" height="32" viewBox="0 0 32 32" fill="none" xmlns="http://www.w3.org/2000/svg">
<path d="M23.2001 10.016C22.7201 9.91998 22.2401 9.63198 21.9521 9.24798C20.5121 7.03998 18.0161 5.59998 15.1361 5.59998C11.2001 5.59998 7.9361 8.28798 7.1681 11.84C7.0721 12.416 6.6881 12.896 6.1121 13.184C3.4241 14.24 1.6001 16.64 1.6001 19.424C1.6001 23.072 4.7681 26.144 8.8001 26.336H22.3361C26.8481 26.336 30.4001 22.688 30.4001 18.176C30.4001 14.048 27.2321 10.688 23.2001 10.016ZM26.7521 20.096C26.4641 20.768 26.0801 21.344 25.5041 21.92C24.4481 22.976 23.0081 23.552 21.5681 23.552H9.6641C8.3201 23.456 7.0721 22.976 6.2081 22.112C5.3441 21.248 4.8641 20.192 4.8641 19.04C4.8641 18.08 5.2481 17.12 5.8241 16.352C6.1121 15.968 6.4961 15.584 6.9761 15.296C7.4561 15.008 7.9361 14.816 8.5121 14.624C9.1841 14.432 9.6641 13.856 9.6641 13.184C9.7601 11.84 10.3361 10.592 11.3921 9.72798C12.4481 8.76798 13.7921 8.28798 15.2321 8.28798C16.2881 8.28798 17.3441 8.57598 18.3041 9.15198C19.1681 9.72798 19.8401 10.4 20.3201 11.264C20.6081 11.744 21.0881 12.128 21.6641 12.128C23.2001 12.224 24.6401 12.896 25.6961 13.952C26.7521 15.008 27.3281 16.352 27.3281 17.888C27.2321 18.656 27.1361 19.424 26.7521 20.096Z" fill="white"/>
</svg>
