<svg width="54" height="54" viewBox="0 0 54 54" fill="none" xmlns="http://www.w3.org/2000/svg">
<path d="M27.2715 3.37097C33.61 3.37108 39.6889 5.88901 44.1709 10.371C48.653 14.8531 51.1709 20.9327 51.1709 27.2714C51.1708 30.4098 50.5526 33.5173 49.3516 36.4169C48.1505 39.3165 46.3902 41.9515 44.1709 44.1708C41.9516 46.3901 39.3167 48.1504 36.417 49.3514C33.5175 50.5524 30.4099 51.1707 27.2715 51.1708C24.1329 51.1708 21.0247 50.5525 18.125 49.3514C15.2253 48.1504 12.5904 46.3901 10.3711 44.1708C8.15182 41.9515 6.3915 39.3165 5.19043 36.4169C3.98944 33.5174 3.37115 30.4098 3.37109 27.2714C3.37109 20.9327 5.88897 14.8531 10.3711 10.371C14.8532 5.88885 20.9328 3.37097 27.2715 3.37097Z" stroke="white" stroke-width="5"/>
<path d="M25.8 15.6C26.2475 15.6 26.6789 15.7667 27.0101 16.0675C27.3413 16.3684 27.5486 16.7818 27.5916 17.2272L27.6 17.4V27.6H41.4C41.8475 27.6 42.2789 27.7667 42.6101 28.0676C42.9413 28.3684 43.1486 28.7818 43.1916 29.2272L43.2 29.4C43.2 29.8475 43.0333 30.2789 42.7325 30.6101C42.4316 30.9413 42.0182 31.1487 41.5728 31.1916L41.4 31.2H25.8C25.3525 31.2 24.9211 31.0333 24.5899 30.7325C24.2587 30.4316 24.0514 30.0182 24.0084 29.5728L24 29.4V17.4C24 16.9226 24.1896 16.4648 24.5272 16.1272C24.8648 15.7896 25.3226 15.6 25.8 15.6Z" fill="white"/>
</svg>
