<svg width="56" height="45" viewBox="0 0 56 45" fill="none" xmlns="http://www.w3.org/2000/svg">
<path d="M25.0507 31.1676H30.6737C32.3154 31.1676 33.1362 31.9884 33.1362 33.6301V42.1936C33.1362 43.8353 32.3154 44.6561 30.6737 44.6561H25.0507C23.409 44.6561 22.5882 43.8353 22.5882 42.1936V33.6301C22.5882 31.9884 23.409 31.1676 25.0507 31.1676Z" fill="url(#paint0_linear_108_1426)"/>
<path d="M13.946 41.2554H41.7776C42.9877 41.2554 43.5927 41.8604 43.5927 43.0705C43.5927 44.2806 42.9877 44.8856 41.7776 44.8856H13.946C12.736 44.8856 12.1309 44.2806 12.1309 43.0705C12.1309 41.8604 12.736 41.2554 13.946 41.2554Z" fill="url(#paint1_linear_108_1426)"/>
<path d="M51.3242 0C54.2576 0 55.7246 1.46698 55.7246 4.40039V32.5146C55.7246 35.448 54.2576 36.915 51.3242 36.915H4.40039C1.46702 36.915 3.45636e-05 35.448 0 32.5146V4.40039C0 1.46698 1.46698 0 4.40039 0H51.3242ZM28.9141 7.77539C26.4288 7.8355 24.0661 8.86923 22.3359 10.6543C20.6059 12.4393 19.6466 14.8326 19.6641 17.3184V17.5557C19.0065 17.1652 18.2674 16.9313 17.5049 16.873C16.7423 16.8148 15.9759 16.9336 15.2666 17.2197C14.5574 17.5059 13.9237 17.9524 13.415 18.5234C12.9065 19.0945 12.5365 19.7753 12.334 20.5127C12.1315 21.2502 12.1024 22.0246 12.248 22.7754C12.3937 23.5259 12.7104 24.2327 13.1738 24.8408C13.6375 25.4491 14.2355 25.9428 14.9209 26.2822C15.6062 26.6216 16.3612 26.7977 17.126 26.7979H38.5918C39.8995 26.7849 41.1501 26.2574 42.0713 25.3291C42.9924 24.4008 43.5098 23.1466 43.5127 21.8389C43.5155 20.5311 43.003 19.2751 42.0859 18.3428C41.1689 17.4105 39.9218 16.8772 38.6143 16.8584V16.8604C38.5116 14.3766 37.4374 12.0323 35.623 10.333C33.8087 8.63374 31.3992 7.71541 28.9141 7.77539Z" fill="url(#paint2_linear_108_1426)"/>
<defs>
<linearGradient id="paint0_linear_108_1426" x1="27.8623" y1="0" x2="27.8623" y2="44.8856" gradientUnits="userSpaceOnUse">
<stop offset="0.235577" stop-color="#F5F5F5"/>
<stop offset="0.889423" stop-color="#A5A2A3"/>
</linearGradient>
<linearGradient id="paint1_linear_108_1426" x1="27.8623" y1="0" x2="27.8623" y2="44.8856" gradientUnits="userSpaceOnUse">
<stop offset="0.235577" stop-color="#F5F5F5"/>
<stop offset="0.889423" stop-color="#A5A2A3"/>
</linearGradient>
<linearGradient id="paint2_linear_108_1426" x1="27.8623" y1="0" x2="27.8623" y2="44.8856" gradientUnits="userSpaceOnUse">
<stop offset="0.235577" stop-color="#F5F5F5"/>
<stop offset="0.889423" stop-color="#A5A2A3"/>
</linearGradient>
</defs>
</svg>
