<svg width="274" height="173" viewBox="0 0 274 173" fill="none" xmlns="http://www.w3.org/2000/svg">
<path d="M145.5 125H68L93.9131 36.0001H177.585L201 125H168" stroke="white"/>
<path d="M145.859 134.345L145.412 110.014C145.486 109.01 146.172 107 148.317 107C150.998 107 151.445 109.369 151.445 110.014C151.445 110.531 151.743 119.847 151.892 124.441C151.967 122.718 152.697 119.273 155.021 119.273C157.345 119.273 157.926 121.426 157.926 122.503V124.01C158.298 122.862 159.445 120.608 161.054 120.78C163.065 120.996 163.959 122.933 163.959 123.364C163.959 123.538 163.959 124.268 163.959 125.106M163.959 127.455C163.959 126.851 163.959 125.927 163.959 125.106M163.959 125.106C164.257 124.741 165.166 124.053 166.417 124.225C167.669 124.397 168.594 125.086 168.875 125.948C169.156 126.809 168.875 133.053 168.875 133.053C168.801 135.924 168.205 142.182 166.417 144.25C164.183 146.833 162.842 149.202 156.138 148.986C149.434 148.771 144.071 144.68 142.06 139.943C140.049 135.206 140.719 128.747 145.635 127.24" stroke="white"/>
<path d="M129.278 93.0147H126.581V114.5H124.419V93.5508H124.393V93.0508H121.722L125.512 87.7647L129.278 93.0147Z" fill="white" stroke="white"/>
<path d="M138.278 104.985H135.581V83.5001H133.419V104.449H133.393V104.949H130.722L134.512 110.235L138.278 104.985Z" fill="white" stroke="white"/>
<path d="M219.037 0.500061L273.318 172.5H0.680664L54.4912 0.500061H219.037Z" stroke="white"/>
<path d="M122.5 50.4376H129.719V52.4063H127.75L123.156 57.0001H121.844L117.25 52.4063H115.281V50.4376H122.5Z" fill="white"/>
<path d="M133 39.2813V37.3126H129.719V36.0001H122.5H115.281V37.3126H112V39.2813H115.281V41.2501H112V43.2188H115.281V45.1876H112V47.1563H115.281V49.1251H129.719V47.1563H133V45.1876H129.719V43.2188H133V41.2501H129.719V39.2813H133Z" fill="white"/>
<path d="M147.5 50.4376H154.719V52.4063H152.75L148.156 57.0001H146.844L142.25 52.4063H140.281V50.4376H147.5Z" fill="white"/>
<path d="M158 39.2813V37.3126H154.719V36.0001H147.5H140.281V37.3126H137V39.2813H140.281V41.2501H137V43.2188H140.281V45.1876H137V47.1563H140.281V49.1251H154.719V47.1563H158V45.1876H154.719V43.2188H158V41.2501H154.719V39.2813H158Z" fill="white"/>
<rect x="48.5" y="21.5001" width="176" height="14" stroke="white"/>
</svg>
