<svg width="274" height="173" viewBox="0 0 274 173" fill="none" xmlns="http://www.w3.org/2000/svg">
<path d="M132.278 75.0147H129.581V96.5001H127.419V75.5508H127.393V75.0508H124.722L128.512 69.7647L132.278 75.0147Z" fill="white" stroke="white"/>
<path d="M146.278 90.9854H143.581V69.5001H141.419V90.4493H141.393V90.9493H138.722L142.512 96.2354L146.278 90.9854Z" fill="white" stroke="white"/>
<path d="M122.5 49.4376H129.719V51.4063H127.75L123.156 56.0001H121.844L117.25 51.4063H115.281V49.4376H122.5Z" fill="white"/>
<path d="M133 38.2813V36.3126H129.719V35.0001H122.5H115.281V36.3126H112V38.2813H115.281V40.2501H112V42.2188H115.281V44.1876H112V46.1563H115.281V48.1251H129.719V46.1563H133V44.1876H129.719V42.2188H133V40.2501H129.719V38.2813H133Z" fill="white"/>
<path d="M147.5 49.4376H154.719V51.4063H152.75L148.156 56.0001H146.844L142.25 51.4063H140.281V49.4376H147.5Z" fill="white"/>
<path d="M158 38.2813V36.3126H154.719V35.0001H147.5H140.281V36.3126H137V38.2813H140.281V40.2501H137V42.2188H140.281V44.1876H137V46.1563H140.281V48.1251H154.719V46.1563H158V44.1876H154.719V42.2188H158V40.2501H154.719V38.2813H158Z" fill="white"/>
<rect x="48.5" y="21.5001" width="176" height="14" stroke="white"/>
<path d="M219.037 0.500061L273.318 172.5H0.680664L54.4912 0.500061H219.037Z" stroke="white"/>
<ellipse cx="123" cy="112.818" rx="8" ry="5.81818" fill="#D9D9D9" fill-opacity="0.3"/>
<ellipse cx="123" cy="112.818" rx="5.81818" ry="3.63636" fill="#D9D9D9" fill-opacity="0.5"/>
<ellipse cx="123" cy="112.818" rx="3.63636" ry="2.18182" fill="#D9D9D9"/>
<ellipse cx="148" cy="112.818" rx="8" ry="5.81818" fill="#D9D9D9" fill-opacity="0.3"/>
<ellipse cx="148" cy="112.818" rx="5.81818" ry="3.63636" fill="#D9D9D9" fill-opacity="0.5"/>
<ellipse cx="148" cy="112.818" rx="3.63636" ry="2.18182" fill="#D9D9D9"/>
</svg>
