<svg width="263" height="236" viewBox="0 0 263 236" fill="none" xmlns="http://www.w3.org/2000/svg">
<path d="M262 208.446L105.031 233.068C98.2594 233.889 79.6693 235.284 59.4788 234.3C39.2882 233.315 12.0802 233.068 1 233.068V5.30896H59.4788C64.4033 5.30896 71.7901 6.54009 82.2547 6.54009C92.7193 6.54009 105.031 5.30896 105.031 5.30896L262 1V5.30896V208.446Z" stroke="white"/>
<path d="M182.592 133.962V89.0259H186.285V133.962H182.592Z" stroke="white"/>
<path d="M191.21 133.962V88.4104H194.903V133.962H191.21Z" stroke="white"/>
<path d="M199.828 62.5566C198.802 63.7877 196.627 67.1118 196.135 70.559M197.366 62.5566C196.955 63.1722 196.135 64.6495 196.135 65.6344M202.29 159.2C200.854 157.559 197.612 152.552 196.135 145.658M198.597 159.2C197.981 158.175 196.627 155.753 196.135 154.276" stroke="white"/>
<path d="M178.283 63.1722C174.385 65.6344 167.779 74.2524 165.932 94.566C164.085 114.88 167.163 131.5 168.394 135.809C169.625 140.118 171.512 146.889 178.283 156.738" stroke="white"/>
<path d="M178.283 66.25C175.821 68.7123 170.241 74.2524 168.394 94.566C166.548 114.88 169.625 131.5 170.857 135.809C172.088 140.118 172.743 142.58 178.283 153.045" stroke="white"/>
<path d="M178.283 68.7123C175.205 74.2524 172.703 74.2524 170.857 94.5661C169.01 114.88 172.088 131.5 173.319 135.809C173.743 137.861 175.328 143.319 178.283 148.736" stroke="white"/>
<path d="M178.283 71.7901C173.974 82.2547 174.55 81.0236 173.319 94.566C172.088 108.108 172.743 128.422 178.283 142.58" stroke="white"/>
<path d="M178.243 79.1769C173.358 101.337 177.012 131.5 178.243 135.809" stroke="white"/>
<path d="M202.29 62.5566H196.135M205.368 159.2H196.135" stroke="white"/>
<path d="M125.96 66.2503C127.396 64.4036 129.653 61.3258 132.116 60.095C134.578 58.8641 140.118 58.2476 141.965 60.7101" stroke="white"/>
<path d="M135.193 172.743L156.123 173.358L177.667 170.896V169.05H143.811" stroke="white"/>
<path d="M196.135 79.1769C197.366 71.9953 201.921 57.2627 210.293 55.7854C220.757 53.9387 229.375 67.4811 232.453 90.8726C235.531 114.264 232.453 148.12 221.373 159.816C210.293 171.512 199.828 156.738 196.135 135.809" stroke="white"/>
<path d="M178.283 55.1698C173.153 55.1698 161.909 63.2953 157.969 93.3349M157.969 130.269C159.816 141.349 166.464 163.386 178.283 165.356" stroke="white"/>
<path d="M178.283 57.0165C173.309 57.0165 163.944 63.785 160.124 93.3211C159.611 96.1984 158.585 103.553 158.585 109.955C158.585 116.357 159.611 125.743 160.124 129.636C161.915 140.531 168.434 159.2 178.283 162.894" stroke="white"/>
<path d="M187.517 25.0071V196.75M125.96 69.3278C137.988 48.5811 159.201 62.5566 158.585 110.571C157.97 158.585 145.658 177.667 126.576 171.512" stroke="white"/>
<path d="M117.342 207.215V26.8538L251.535 22.5448V187.517L117.342 207.215Z" stroke="white"/>
<path d="M156.738 173.358V178.283" stroke="white"/>
<path d="M174.59 175.821L130.884 181.361C126.945 180.868 125.96 176.231 125.96 173.974V57.6321C125.96 51.7226 128.422 50.2452 129.653 50.2452C143.811 49.6296 172.743 48.5216 175.205 49.0141C177.668 49.5065 178.283 53.7334 178.283 55.7853C178.488 91.6933 178.776 164.617 178.283 169.049C177.791 173.482 175.616 175.41 174.59 175.821Z" stroke="white"/>
<path d="M240.357 166.824L200.458 172.127C196.862 171.656 195.962 167.217 195.962 165.056V53.6878C195.962 48.031 198.21 46.6167 199.334 46.6167C212.259 46.0275 238.671 44.9668 240.919 45.4382C243.166 45.9096 243.728 49.9558 243.728 51.92C243.916 86.293 244.178 156.1 243.728 160.342C243.279 164.585 241.293 166.431 240.357 166.824Z" stroke="white"/>
<path d="M140.118 101.222C140.689 101.222 141.292 101.529 141.9 102.215C142.508 102.9 143.078 103.921 143.567 105.225C144.544 107.829 145.158 111.46 145.158 115.495C145.158 119.531 144.544 123.162 143.567 125.767C143.078 127.07 142.508 128.091 141.9 128.776C141.292 129.462 140.688 129.769 140.118 129.769C139.547 129.769 138.944 129.462 138.336 128.776C137.728 128.091 137.158 127.07 136.669 125.767C135.692 123.162 135.078 119.531 135.078 115.495C135.078 111.46 135.692 107.829 136.669 105.225C137.158 103.921 137.728 102.9 138.336 102.215C138.944 101.529 139.547 101.222 140.118 101.222Z" stroke="white"/>
<path d="M213.371 97.5283C213.859 97.5284 214.382 97.7867 214.916 98.3789C215.449 98.9711 215.952 99.856 216.385 100.992C217.25 103.261 217.794 106.43 217.794 109.955C217.794 113.48 217.25 116.649 216.385 118.918C215.952 120.054 215.449 120.939 214.916 121.531C214.382 122.123 213.859 122.382 213.371 122.382C212.882 122.382 212.358 122.124 211.825 121.531C211.291 120.939 210.788 120.054 210.355 118.918C209.491 116.649 208.946 113.48 208.946 109.955C208.946 106.43 209.491 103.261 210.355 100.992C210.788 99.856 211.291 98.9711 211.825 98.3789C212.358 97.7865 212.882 97.5283 213.371 97.5283Z" stroke="white"/>
<path d="M249.119 140.221C254.946 132.675 256.135 124.474 253.775 118.122C253.179 116.074 252.191 114.194 251.034 112.426C249.108 109.532 246.722 106.928 244 104.569L244 110.119C245.408 111.863 246.648 113.712 247.678 115.679C248.801 118.179 249.727 120.796 249.913 123.676C250.219 127.516 249.296 131.812 246.688 135.99C245.928 137.272 245.023 138.523 244 139.736L244 145.839C245.903 144.063 247.628 142.189 249.119 140.221Z" fill="url(#paint0_linear)" fill-opacity="0.2"/>
<path d="M126.215 176.445L126 170.188C123.073 170.082 120.167 169.932 117.286 169.741L117.286 176.113C120.239 176.27 123.215 176.382 126.215 176.445Z" fill="url(#paint1_linear)" fill-opacity="0.2"/>
<path fill-rule="evenodd" clip-rule="evenodd" d="M126.215 176.445L126 170.188C138.347 170.634 151.087 170.296 164.133 169C168.881 168.518 173.675 167.911 178.5 167.146L177.222 172.821C167.731 174.429 158.352 175.436 149.148 176.001C141.374 176.465 133.723 176.605 126.215 176.445ZM196.5 168.698L196 163.647C198.81 162.96 201.624 162.207 204.44 161.382C213.623 158.617 222.95 155.117 231.402 150.032C236.188 147.156 240.703 143.645 244 139.736L244 145.839C238.243 151.21 230.859 155.687 223.424 159.18C214.646 163.264 205.559 166.323 196.5 168.698ZM244 104.569C240.88 101.865 237.318 99.4817 233.5 97.3499L233.569 100.605C234.253 101.089 234.926 101.582 235.588 102.084C238.739 104.503 241.611 107.16 244 110.119L244 104.569Z" fill="url(#paint2_linear)"/>
<path d="M65.2942 85.7044C56.0834 88.3557 46.7868 91.838 38.1668 96.6662C32.8372 99.7444 27.7464 103.337 23.7391 107.514C19.2167 112.143 16.2012 117.397 15.1776 122.356C14.0404 127.516 14.9249 132.259 16.7592 136.448C19.8681 143.046 25.3231 148.367 31.7018 152.815C41.4379 159.549 53.3265 164.4 66.0877 168.06C77.5487 171.296 89.7777 173.568 102.542 174.927C107.384 175.449 112.301 175.847 117.286 176.113L117.286 169.741C116.114 169.663 114.947 169.578 113.784 169.487C97.8503 168.204 82.5882 165.692 68.5351 161.643C58.0271 158.618 48.1641 154.747 39.6534 149.631C34.9509 146.775 30.649 143.539 27.2247 139.698C24.4099 136.533 22.1192 132.971 21.1402 128.835C20.2851 125.374 20.4157 121.468 22.059 117.446C24.071 112.421 28.4265 107.453 33.7821 103.438C41.2055 97.8062 49.9947 93.6961 58.7221 90.4251C72.8073 85.2106 87.1098 82.0541 101.08 79.8863C105.238 79.2694 109.384 78.6989 113.49 78.2865C113.698 78.2621 113.907 78.2404 114.115 78.2188C114.749 78.153 115.384 78.0871 116.033 77.9424C115.234 77.9412 114.416 77.9887 113.597 78.0362C113.204 78.0589 112.812 78.0817 112.422 78.0991C97.1404 78.9866 81.2729 81.1618 65.2942 85.7044Z" fill="url(#paint3_radial)" fill-opacity="0.6"/>
<path fill-rule="evenodd" clip-rule="evenodd" d="M46.4532 109.382C50.5792 106.121 55.383 103.484 60.2719 101.315C65.8952 98.7804 71.6955 96.8174 77.4688 95.1511C90.9393 91.3512 104.327 89.2761 117.329 88.2393L117.329 93.7108C111.741 94.0598 106.083 94.6027 100.365 95.3579C87.9141 97.0897 75.0379 99.7478 62.4806 104.787C57.6298 106.843 52.6849 109.221 48.6398 112.501C45.875 114.712 43.7928 117.468 43.2671 120.103C42.3399 124.574 44.1391 128.319 46.371 131.555C48.54 134.554 51.2949 137.198 54.3877 139.56C61.8993 145.288 71.1466 149.548 80.9706 153.071C80.2365 152.993 79.5794 152.806 78.9228 152.62C78.6418 152.54 78.3609 152.46 78.074 152.389C69.6141 150.121 61.6751 147.16 54.755 143.235C47.9916 139.322 41.9098 134.514 39.1994 127.831C38.1359 125.016 37.824 121.746 39.2128 118.284C40.3894 115.108 43.2025 111.991 46.4532 109.382ZM232.82 124.5C233.164 125.202 233.466 125.924 233.725 126.667C234.456 129.129 234.516 132.014 232.809 134.961C230.861 138.144 227.322 140.897 223.658 143.113C218.838 146.065 213.58 148.281 208.346 150.23C204.243 151.716 200.122 153.002 196 154.124L196 156.166C197.546 155.818 199.095 155.446 200.646 155.049C210.112 152.574 219.908 149.212 228.484 143.715C232.577 141.048 236.245 137.647 238.075 133.998C239.974 130.157 239.861 126.447 238.82 123.271C237.721 120.049 235.84 117.228 233.507 114.698L232.82 124.5ZM178.5 159.191C172.798 159.896 167.163 160.335 161.62 160.571C161.362 160.556 161.112 160.529 160.868 160.492C164.012 160.22 167.208 159.777 170.4 159.331C173.088 158.934 175.789 158.499 178.5 158.015L178.5 159.191Z" fill="url(#paint4_linear)"/>
<path d="M117.236 145.551L117.639 149.466C120.389 149.637 123.177 149.738 126 149.762L126 146.018C123.039 145.941 120.116 145.783 117.236 145.551Z" fill="url(#paint5_linear)" fill-opacity="0.2"/>
<path fill-rule="evenodd" clip-rule="evenodd" d="M174.61 141.421C177.757 140.061 180.856 138.398 183.531 136.327C185.639 134.67 187.475 132.682 188.267 130.642C189.198 128.42 189.042 126.308 188.4 124.484C186.758 120.15 182.941 117 178.677 114.421C174.313 111.834 169.287 109.86 163.919 108.33C163.737 108.281 163.559 108.227 163.381 108.174C162.964 108.048 162.547 107.922 162.08 107.866C168.302 110.217 174.146 113.04 178.863 116.795C180.806 118.344 182.529 120.071 183.873 122.024C185.255 124.129 186.354 126.559 185.704 129.436C185.334 131.132 183.97 132.894 182.177 134.298C179.553 136.382 176.368 137.876 173.246 139.164C165.169 142.314 156.919 143.926 148.954 144.944C141.093 145.893 133.425 146.211 126 146.018L126 149.762C128.755 149.786 131.545 149.737 134.364 149.609C143.811 149.176 153.634 147.951 163.558 145.261C167.263 144.232 170.989 143.012 174.61 141.421Z" fill="url(#paint6_linear)"/>
<path d="M109.649 144.762C104.342 144.095 99.2142 143.142 94.2959 141.91C87.0826 140.078 80.2739 137.669 74.4899 134.291C71.7352 132.666 69.2126 130.817 67.2078 128.606C65.8784 127.171 64.8734 125.516 64.2802 123.68C63.8458 122.085 63.8452 120.223 64.973 118.336C66.2569 116.298 68.551 114.55 70.9176 113.15C74.0314 111.284 77.4143 109.896 80.7792 108.681C88.9044 105.828 97.1099 104.203 105.107 103.113C107.149 102.851 109.194 102.59 111.203 102.44C111.048 102.414 110.889 102.395 110.725 102.383C102.658 102.63 94.2695 103.55 85.7547 105.633C79.683 107.154 73.3896 109.245 67.8464 112.723C65.2003 114.411 62.8159 116.576 61.6008 118.915C60.3388 121.378 60.3624 123.772 60.9853 125.83C62.1571 129.541 64.9235 132.457 68.0928 134.954C73.6917 139.256 80.7973 142.291 88.4459 144.573C97.4324 147.244 107.305 148.8 117.639 149.466L117.236 145.551C114.673 145.345 112.143 145.08 109.649 144.762Z" fill="url(#paint7_radial)" fill-opacity="0.6"/>
<defs>
<linearGradient id="paint0_linear" x1="16.5" y1="129.5" x2="254" y2="122.5" gradientUnits="userSpaceOnUse">
<stop stop-color="#E6BB69" stop-opacity="0.7"/>
<stop offset="0.275465" stop-color="#E6BB69" stop-opacity="0.8"/>
<stop offset="0.671321" stop-color="#E6BB69"/>
<stop offset="1" stop-color="#E6BB69" stop-opacity="0.8"/>
</linearGradient>
<linearGradient id="paint1_linear" x1="16.5" y1="129.5" x2="254" y2="122.5" gradientUnits="userSpaceOnUse">
<stop stop-color="#E6BB69" stop-opacity="0.7"/>
<stop offset="0.275465" stop-color="#E6BB69" stop-opacity="0.8"/>
<stop offset="0.671321" stop-color="#E6BB69"/>
<stop offset="1" stop-color="#E6BB69" stop-opacity="0.8"/>
</linearGradient>
<linearGradient id="paint2_linear" x1="16.5" y1="129.5" x2="254" y2="122.5" gradientUnits="userSpaceOnUse">
<stop stop-color="#E6BB69" stop-opacity="0.7"/>
<stop offset="0.389423" stop-color="#E6BB69" stop-opacity="0.8"/>
<stop offset="0.697115" stop-color="#E6BB69"/>
<stop offset="1" stop-color="#E6BB69" stop-opacity="0.8"/>
</linearGradient>
<radialGradient id="paint3_radial" cx="0" cy="0" r="1" gradientUnits="userSpaceOnUse" gradientTransform="translate(65 125) rotate(45) scale(80 90)">
<stop offset="0.3" stop-color="#E6BB69" stop-opacity="1"/>
<stop offset="0.5" stop-color="#E6BB69" stop-opacity="0.8"/>
<stop offset="0.7" stop-color="#E6BB69" stop-opacity="0.1"/>
</radialGradient>
<linearGradient id="paint4_linear" x1="25" y1="152" x2="253" y2="125" gradientUnits="userSpaceOnUse">
<stop stop-color="#E6BB69" stop-opacity="0.8"/>
<stop offset="0.432692" stop-color="#E6BB69" stop-opacity="0.1"/>
<stop offset="0.86051" stop-color="#E6BB69" stop-opacity="0.9"/>
<stop offset="1" stop-color="#E6BB69" stop-opacity="0.2"/>
</linearGradient>
<linearGradient id="paint5_linear" x1="60.6052" y1="122.338" x2="170.407" y2="107.839" gradientUnits="userSpaceOnUse">
<stop stop-color="#E6BB69" stop-opacity="0.7"/>
<stop offset="0.376116" stop-color="#E6BB69"/>
<stop offset="0.761109" stop-color="#E6BB69"/>
<stop offset="1" stop-color="#E6BB69" stop-opacity="0.1"/>
</linearGradient>
<linearGradient id="paint6_linear" x1="60.6052" y1="122.338" x2="170.407" y2="107.839" gradientUnits="userSpaceOnUse">
<stop stop-color="#E6BB69" stop-opacity="0.7"/>
<stop offset="0.376116" stop-color="#E6BB69"/>
<stop offset="0.761109" stop-color="#E6BB69"/>
<stop offset="1" stop-color="#E6BB69" stop-opacity="0.1"/>
</linearGradient>
<radialGradient id="paint7_radial" cx="0" cy="0" r="1" gradientUnits="userSpaceOnUse" gradientTransform="translate(90 125) rotate(30) scale(50 60)">
<stop offset="0.3" stop-color="#E6BB69" stop-opacity="0.8"/>
<stop offset="0.7" stop-color="#E6BB69" stop-opacity="0.1"/>
</radialGradient>
</defs>
</svg>