<svg width="50" height="50" viewBox="0 0 50 50" fill="none" xmlns="http://www.w3.org/2000/svg">
<path d="M15.2326 44.2542C16.9844 47.6459 20.5344 50 24.6528 50H25.3668C29.4852 50 33.0351 47.6394 34.7869 44.2542H15.2326ZM14.0559 38.4501V40.7328C14.0559 40.9014 14.1022 41.0571 14.1088 41.2257H35.9041C35.9108 41.0571 35.957 40.9014 35.957 40.7328V38.4501H14.0559ZM25.0032 0C14.2344 0 5.5083 8.56031 5.5083 19.1245C5.5083 25.7004 8.89957 31.5045 14.0493 34.9416V34.9935H35.9504V34.9416C41.1067 31.4981 44.4914 25.7004 44.4914 19.1245C44.498 8.56031 35.7719 0 25.0032 0ZM38.2972 19.6693H36.0628C35.415 19.6693 35.1571 19.1958 35.1439 18.9689C34.7936 14.0856 30.8272 10.1621 25.8626 9.76654C25.5915 9.74708 25.0428 9.54604 25.0428 9.04021V6.67964C25.0428 6.08301 25.5519 5.58366 26.16 5.62905C33.1938 6.16083 38.8194 11.6926 39.3549 18.5927C39.4012 19.1764 38.8988 19.6693 38.2972 19.6693Z" fill="url(#paint0_linear_2314_545)"/>
<defs>
<linearGradient id="paint0_linear_2314_545" x1="24.9999" y1="0" x2="24.9999" y2="50" gradientUnits="userSpaceOnUse">
<stop offset="0.34" stop-color="#A5A2A3"/>
<stop offset="0.93" stop-color="#F5F5F5"/>
</linearGradient>
</defs>
</svg>
