<svg width="34" height="45" viewBox="0 0 34 45" fill="none" xmlns="http://www.w3.org/2000/svg">
<path d="M29.75 16.8751H8.85417C8.65937 16.8751 8.5 16.7169 8.5 16.5235V11.2501C8.5 8.99569 9.38542 6.87753 10.988 5.28231C12.5951 3.6915 14.7289 2.81259 17 2.81259C19.2711 2.81259 21.4049 3.6915 23.012 5.28231C24.6146 6.87753 25.5 8.99569 25.5 11.2501V11.338C25.5 12.0675 26.0932 12.6563 26.8281 12.6563H27.0052C27.7401 12.6563 28.3333 12.0675 28.3333 11.338C28.3333 8.23983 27.0583 5.40536 25.0042 3.34433C22.9411 1.27451 20.0945 -0.0130833 16.9557 0.00010028C10.718 0.0220729 5.66667 5.04941 5.66667 11.2501V16.5235C5.66667 16.7169 5.50729 16.8751 5.3125 16.8751H4.25C1.90365 16.8751 0 18.7647 0 21.0938V40.7813C0 43.1104 1.90365 45 4.25 45H29.75C32.0964 45 34 43.1104 34 40.7813V21.0938C34 18.7647 32.0964 16.8751 29.75 16.8751ZM19.5544 32.9019C18.8461 33.4336 18.4167 34.251 18.4167 35.1343V37.9688C18.4167 38.7378 17.788 39.3662 17.0177 39.375C16.2297 39.3838 15.5833 38.7246 15.5833 37.938V35.1563C15.5833 34.2686 15.1583 33.438 14.4411 32.9019C13.4141 32.1328 12.75 30.9068 12.75 29.5313C12.75 27.2373 14.6271 25.3433 16.938 25.3125C19.3154 25.2774 21.25 27.1802 21.25 29.5313C21.25 30.9068 20.5859 32.1328 19.5544 32.9019Z" fill="url(#paint0_linear_436_260)"/>
<path d="M15.5833 29.5313C15.5833 29.9042 15.7326 30.2619 15.9983 30.5257C16.2639 30.7894 16.6243 30.9375 17 30.9375C17.3757 30.9375 17.7361 30.7894 18.0017 30.5257C18.2674 30.2619 18.4167 29.9042 18.4167 29.5313C18.4167 29.1583 18.2674 28.8006 18.0017 28.5369C17.7361 28.2732 17.3757 28.125 17 28.125C16.6243 28.125 16.2639 28.2732 15.9983 28.5369C15.7326 28.8006 15.5833 29.1583 15.5833 29.5313Z" fill="url(#paint1_linear_436_260)"/>
<defs>
<linearGradient id="paint0_linear_436_260" x1="17" y1="0" x2="17" y2="45" gradientUnits="userSpaceOnUse">
<stop offset="0.07" stop-color="#F5F5F5"/>
<stop offset="0.66" stop-color="#A5A2A3"/>
</linearGradient>
<linearGradient id="paint1_linear_436_260" x1="17" y1="0" x2="17" y2="45" gradientUnits="userSpaceOnUse">
<stop offset="0.07" stop-color="#F5F5F5"/>
<stop offset="0.66" stop-color="#A5A2A3"/>
</linearGradient>
</defs>
</svg>
