<svg width="50" height="50" viewBox="0 0 50 50" fill="none" xmlns="http://www.w3.org/2000/svg">
<path d="M8.95506 26.6H41.0449C42.0124 26.6 42.6 25.7646 42.6 25V23.9C42.6 23.1354 42.0124 22.3 41.0449 22.3H8.95506C7.98765 22.3 7.4 23.1354 7.4 23.9V25C7.4 25.9443 8.15925 26.6 8.95506 26.6Z" fill="#D9D9D9"/>
<path d="M38 31.2C37.7 31.2 37.5 31.1 37.3 30.9C36.9 30.5 36.9 29.9 37.3 29.5L42.2 24.6L37.3 19.7C36.9 19.3 36.9 18.7 37.3 18.3C37.7 17.9 38.3 17.9 38.7 18.3L44.3 23.9C44.7 24.3 44.7 24.9 44.3 25.3L38.7 30.9C38.5 31.1 38.3 31.2 38 31.2Z" fill="#D9D9D9"/>
<path d="M11.6 31.2C11.3 31.2 11.1 31.1 10.9 30.9L5.3 25.3C4.9 24.9 4.9 24.3 5.3 23.9L10.9 18.3C11.3 17.9 11.9 17.9 12.3 18.3C12.7 18.7 12.7 19.3 12.3 19.7L7.4 24.6L12.3 29.5C12.7 29.9 12.7 30.5 12.3 30.9C12.1 31.1 11.9 31.2 11.6 31.2Z" fill="#D9D9D9"/>
</svg>
