<svg width="50" height="46" viewBox="0 0 50 46" fill="none" xmlns="http://www.w3.org/2000/svg">
<path d="M37.9697 22.0947C37.9853 22.0947 38.001 22.0947 38.0166 22.0947C44.3887 22.095 49.5556 27.2617 49.5557 33.6338C49.5555 40.0058 44.3886 45.1726 38.0166 45.1729C36.3832 45.1728 34.8301 44.831 33.4219 44.2188H1.55078C0.725589 44.2186 0.0567313 43.5498 0.0566406 42.7246V41.9141C0.0567005 41.0888 0.72557 40.4201 1.55078 40.4199H28.6865C28.0044 39.4838 27.4606 38.4417 27.083 37.3223H4.22754V21.2617H37.9697V22.0947ZM38.0166 24.6719C36.9554 24.6719 35.9243 24.8524 34.9443 25.21L34.5273 25.374C33.4611 25.8243 32.5022 26.4705 31.6777 27.2949C30.9562 28.0164 30.3712 28.8407 29.9346 29.75L29.7568 30.1445C29.2902 31.2482 29.0518 32.4197 29.0518 33.6318C29.0519 34.8438 29.2904 36.0168 29.7568 37.1201V37.1211C30.2071 38.1871 30.8534 39.1464 31.6777 39.9707C32.5021 40.7949 33.4613 41.4414 34.5273 41.8916H34.5283C35.6318 42.3605 36.8052 42.6006 38.0166 42.6006C39.2287 42.6005 40.4024 42.3631 41.5059 41.8965L41.9004 41.7178C42.8094 41.2812 43.6341 40.6969 44.3555 39.9756C45.1798 39.1512 45.8261 38.1921 46.2764 37.126L46.2773 37.125C46.7458 36.0227 46.9814 34.8494 46.9814 33.6367C46.9814 32.4246 46.7429 31.2509 46.2764 30.1475C45.8261 29.0814 45.1797 28.1222 44.3555 27.2979C43.5311 26.4735 42.5719 25.8273 41.5059 25.377L41.5049 25.376C40.4026 24.9076 39.2294 24.6719 38.0166 24.6719ZM43.707 28.9678L44.8232 30.0811L45.1777 30.4355L44.8232 30.7891L36.7539 38.8594L36.4004 39.2129L36.0469 38.8594L31.21 34.0215L30.8564 33.668L32.6797 31.8447L33.0332 32.1982L36.4004 35.5674L43 28.9678L43.3535 28.6152L43.707 28.9678ZM7.71094 33.2979C7.42607 33.2979 7.15247 33.4107 6.9502 33.6113C6.74787 33.812 6.63323 34.0852 6.63086 34.3701V34.7295C6.63086 35.016 6.74466 35.2915 6.94727 35.4941C7.14978 35.6965 7.42461 35.8105 7.71094 35.8105H26.6855C26.5509 35.1054 26.4776 34.3781 26.4775 33.6338C26.4775 33.5214 26.4792 33.4094 26.4824 33.2979H7.71094ZM7.71094 28.2744C7.42458 28.2745 7.14979 28.3884 6.94727 28.5908C6.74466 28.7934 6.63086 29.0689 6.63086 29.3555V29.7148C6.63323 29.9998 6.74785 30.273 6.9502 30.4736C7.15247 30.6742 7.42609 30.7861 7.71094 30.7861H26.832C27.0561 29.9036 27.3836 29.0626 27.7979 28.2744H7.71094ZM7.73828 23.3408C7.59683 23.3396 7.45622 23.3666 7.3252 23.4199C7.19427 23.4732 7.07499 23.5518 6.97461 23.6514C6.87425 23.7509 6.79463 23.8696 6.74023 24C6.68588 24.1305 6.65825 24.2708 6.6582 24.4121V24.7725C6.66505 25.0496 6.77769 25.3137 6.97363 25.5098C7.16964 25.7058 7.43383 25.8193 7.71094 25.8262H29.5225C30.4538 24.8135 31.5641 23.9696 32.8027 23.3408H7.73828ZM21.0723 0C21.4057 0 21.7276 0.122893 21.9766 0.344727C22.2255 0.566554 22.3845 0.871888 22.4229 1.20312V11.0166H27.8789C28.3692 11.0045 28.8442 11.187 29.2002 11.5244C29.5562 11.8619 29.7642 12.327 29.7783 12.8174C29.7783 13.0364 29.7355 13.2534 29.6523 13.4561H39.3936V13.4648C39.7412 13.4354 40.0917 13.479 40.4219 13.5918C40.7519 13.7047 41.0547 13.8851 41.3115 14.1211C41.5684 14.3571 41.7737 14.6435 41.9141 14.9629C42.0543 15.2823 42.1269 15.6277 42.127 15.9766C42.127 16.3254 42.0543 16.6708 41.9141 16.9902C41.7737 17.3098 41.5685 17.5969 41.3115 17.833C41.0547 18.069 40.7519 18.2495 40.4219 18.3623C40.0917 18.4751 39.7412 18.5177 39.3936 18.4883H2.7334C2.38587 18.5177 2.03611 18.475 1.70605 18.3623C1.37583 18.2495 1.0724 18.0691 0.81543 17.833C0.558458 17.5969 0.353223 17.3098 0.212891 16.9902C0.072646 16.6708 0 16.3254 0 15.9766C5.47852e-05 15.6277 0.0726117 15.2823 0.212891 14.9629C0.353205 14.6435 0.55859 14.3571 0.81543 14.1211C1.0724 13.885 1.37583 13.7046 1.70605 13.5918C2.0361 13.4791 2.38587 13.4354 2.7334 13.4648H12.4932C12.41 13.2621 12.3672 13.0453 12.3672 12.8262C12.3813 12.3359 12.5884 11.8707 12.9443 11.5332C13.3004 11.1957 13.7762 11.0133 14.2666 11.0254H19.7217V1.20312C19.76 0.871975 19.9191 0.566549 20.168 0.344727C20.4169 0.122925 20.7389 6.2332e-05 21.0723 0Z" fill="url(#paint0_linear_440_353)"/>
<defs>
<linearGradient id="paint0_linear_440_353" x1="37.9788" y1="0.146081" x2="37.9788" y2="45.0771" gradientUnits="userSpaceOnUse">
<stop offset="0.07" stop-color="#F5F5F5"/>
<stop offset="0.66" stop-color="#A5A2A3"/>
</linearGradient>
</defs>
</svg>
