<svg width="44" height="47" viewBox="0 0 44 47" fill="none" xmlns="http://www.w3.org/2000/svg">
<path fill-rule="evenodd" clip-rule="evenodd" d="M28.0475 20.6077L25.2011 25.8358H19.2178L16.7781 21.1886C17.1847 21.0724 17.5332 20.7239 17.8237 20.2592C17.998 20.143 18.4627 20.0268 18.9855 20.3172C19.0297 20.3393 19.0783 20.3641 19.1311 20.3911C19.7721 20.7183 21.0351 21.3629 22.6451 21.3629C23.7488 21.3629 25.0268 21.0143 26.3629 20.0849C26.5371 19.9687 26.8857 19.9106 27.3504 20.2011C27.4483 20.2663 27.5644 20.3316 27.6989 20.4071C27.8039 20.466 27.9201 20.5313 28.0475 20.6077ZM30.5453 8.87359C30.3711 8.69932 30.1968 8.64123 30.0225 8.64123H27.6408V8.69932H26.5371L26.5952 19.7364C26.8276 19.7364 27.118 19.7944 27.4085 19.9687C28.1056 20.4334 29.4416 21.0143 30.4872 19.9106L30.5453 19.7944C30.559 19.767 30.576 19.7364 30.5939 19.704L30.5939 19.704C30.6518 19.5992 30.7196 19.4766 30.7196 19.3878V9.33831C30.7196 9.16404 30.6615 9.04786 30.5453 8.87359ZM16.4295 21.2467C15.8486 21.3048 15.2677 21.0724 14.803 20.782C15.37 21.5694 16.2444 22.6984 16.9817 23.6505L16.9818 23.6506L16.9818 23.6507C17.6042 24.4543 18.1289 25.1317 18.2884 25.371C18.4627 25.6034 18.7531 25.7777 19.0436 25.8939L16.6038 21.1886C16.5748 21.1886 16.5457 21.2031 16.5167 21.2176C16.4876 21.2322 16.4586 21.2467 16.4295 21.2467ZM28.2217 20.6077L25.3753 25.8358H25.5496C26.479 25.6615 26.7695 25.2549 26.7695 25.2549L29.6159 21.1305C29.6159 21.1305 29.6159 21.0724 29.674 21.0724L30.0225 20.6077C29.3835 20.8981 28.7445 20.8401 28.2217 20.6077ZM17.5913 20.0849C17.6021 20.0741 17.613 20.0613 17.6245 20.0475C17.6751 19.9876 17.74 19.9106 17.8818 19.9106L17.8237 8.75741H17.3009L14.8611 8.69932C14.6869 8.69932 14.4545 8.75741 14.3383 8.93168L14.2802 8.98977C14.2665 9.01719 14.2496 9.04786 14.2317 9.08023C14.1738 9.18499 14.106 9.30764 14.106 9.3964V19.5621C14.106 19.7364 14.164 19.8525 14.2221 19.9687C14.2802 20.0849 14.2802 20.0849 14.3383 20.143C14.803 20.5496 15.6163 21.0724 16.4295 21.0143C16.9523 20.9562 17.1847 20.6658 17.5913 20.0849ZM27.3504 2.33441C27.3504 1.22984 26.455 0.334412 25.3504 0.334412H19.3009C18.1963 0.334412 17.3009 1.22984 17.3009 2.33441V6.11842C17.3009 7.22299 18.1963 8.11842 19.3009 8.11842H25.3504C26.455 8.11842 27.3504 7.22299 27.3504 6.11842V2.33441ZM20.1588 8.68513L26.3048 8.64123L26.305 8.68513H26.32V11.5435L26.3629 19.7364C26.3374 19.7618 26.3008 19.7761 26.2676 19.7891C26.2252 19.8056 26.1886 19.8199 26.1886 19.8525C23.0518 22.2342 20.2054 20.782 19.0436 20.0849C18.7531 19.9106 18.4627 19.8525 18.2303 19.8525L18.2285 19.4979H18.2007V14.1703L18.1722 8.69932L18.2007 8.69912V8.68513H20.1588ZM19.3339 26.0098C19.5082 26.0679 19.6244 26.184 19.7405 26.3002L20.8442 28.101C20.9604 28.2753 21.1347 28.3914 21.4251 28.3914H23.1097C23.3421 28.3914 23.5745 28.2753 23.6906 28.101C23.8359 27.8686 23.9811 27.5782 24.1263 27.2878L24.1263 27.2877C24.2715 26.9973 24.4168 26.7069 24.562 26.4745C24.6201 26.3002 24.9025 26.0679 25.0768 26.0098L19.3339 26.0098Z" fill="url(#paint0_linear_35_476)"/>
<path d="M36.0437 13.7123C38.2623 16.3874 39.6721 19.6397 40.1079 23.0877C40.5436 26.5357 39.9871 30.0364 38.5037 33.1793C37.0203 36.3222 34.6714 38.977 31.7326 40.8323C28.7938 42.6875 25.387 43.6664 21.9116 43.654C18.4362 43.6415 15.0364 42.6384 12.111 40.7622C9.18549 38.886 6.85567 36.2145 5.39474 33.0611C3.93381 29.9076 3.40235 26.403 3.86268 22.9582C4.32302 19.5134 5.75606 16.2713 7.99375 13.6122" stroke="#D0CECF" stroke-width="2"/>
<path d="M32.9441 20.8903C33.6989 22.7347 33.9764 24.7397 33.7508 26.7197C33.5253 28.6998 32.8041 30.591 31.6538 32.2183C30.5036 33.8457 28.9615 35.1568 27.1702 36.0301C25.3789 36.9035 23.3963 37.311 21.4058 37.215C19.4152 37.1189 17.481 36.5224 15.7822 35.4807C14.0833 34.4389 12.6746 32.9855 11.6863 31.2549C10.6981 29.5244 10.1623 27.5725 10.1284 25.58C10.0946 23.5874 10.5638 21.6185 11.4926 19.8553" stroke="#D0CECF" stroke-width="2"/>
<path d="M22.4127 45.9058L22.4127 37.9058" stroke="url(#paint1_linear_35_476)" stroke-width="1.9" stroke-linecap="round"/>
<path d="M42.8739 25.3902L34.6739 25.3676" stroke="url(#paint2_linear_35_476)" stroke-width="1.9" stroke-linecap="round"/>
<path d="M1.02307 25.356L9.22304 25.3786" stroke="url(#paint3_linear_35_476)" stroke-width="1.9" stroke-linecap="round"/>
<defs>
<linearGradient id="paint0_linear_35_476" x1="22.2604" y1="8.68515" x2="22.2604" y2="19.498" gradientUnits="userSpaceOnUse">
<stop stop-color="#D0CECF"/>
<stop offset="1" stop-color="#A5A2A3"/>
</linearGradient>
<linearGradient id="paint1_linear_35_476" x1="21.9127" y1="45.9058" x2="21.9127" y2="37.9058" gradientUnits="userSpaceOnUse">
<stop stop-color="#E8E8E8"/>
<stop offset="1" stop-color="#D8D3D3"/>
</linearGradient>
<linearGradient id="paint2_linear_35_476" x1="42.8753" y1="24.8902" x2="34.6753" y2="24.8676" gradientUnits="userSpaceOnUse">
<stop stop-color="#E8E8E8"/>
<stop offset="1" stop-color="#D8D3D3"/>
</linearGradient>
<linearGradient id="paint3_linear_35_476" x1="1.02445" y1="24.856" x2="9.22442" y2="24.8786" gradientUnits="userSpaceOnUse">
<stop stop-color="#E8E8E8"/>
<stop offset="1" stop-color="#D8D3D3"/>
</linearGradient>
</defs>
</svg>
