<svg width="32" height="32" viewBox="0 0 32 32" fill="none" xmlns="http://www.w3.org/2000/svg">
<path d="M16 2C19.713 2 23.274 3.475 25.8995 6.1005C28.525 8.72601 30 12.287 30 16C30 19.713 28.525 23.274 25.8995 25.8995C23.274 28.525 19.713 30 16 30C12.287 30 8.72601 28.525 6.1005 25.8995C3.475 23.274 2 19.713 2 16C2 12.287 3.475 8.72601 6.1005 6.1005C8.72601 3.475 12.287 2 16 2ZM16 4C14.4241 4 12.8637 4.31039 11.4078 4.91345C9.95189 5.5165 8.62902 6.40042 7.51472 7.51472C6.40042 8.62902 5.5165 9.95189 4.91345 11.4078C4.31039 12.8637 4 14.4241 4 16C4 17.5759 4.31039 19.1363 4.91345 20.5922C5.5165 22.0481 6.40042 23.371 7.51472 24.4853C8.62902 25.5996 9.95189 26.4835 11.4078 27.0866C12.8637 27.6896 14.4241 28 16 28C19.1826 28 22.2348 26.7357 24.4853 24.4853C26.7357 22.2348 28 19.1826 28 16C28 12.8174 26.7357 9.76515 24.4853 7.51472C22.2348 5.26428 19.1826 4 16 4ZM8.832 19.1H10.98C12.09 20.988 13.546 22.104 16 22.104C18.31 22.104 19.684 21.258 20.844 19.45L21.058 19.1H23.168C22.6175 20.5111 21.6627 21.7283 20.4233 22.5991C19.1839 23.4698 17.7151 23.9554 16.2009 23.9949C14.6867 24.0344 13.1946 23.6261 11.9115 22.8212C10.6284 22.0162 9.61138 20.8505 8.988 19.47L8.832 19.1ZM20.932 11.248C21.3298 11.248 21.7114 11.406 21.9927 11.6873C22.274 11.9686 22.432 12.3502 22.432 12.748C22.432 13.1458 22.274 13.5274 21.9927 13.8087C21.7114 14.09 21.3298 14.248 20.932 14.248C20.5342 14.248 20.1526 14.09 19.8713 13.8087C19.59 13.5274 19.432 13.1458 19.432 12.748C19.432 12.3502 19.59 11.9686 19.8713 11.6873C20.1526 11.406 20.5342 11.248 20.932 11.248ZM11.082 11.248C11.4798 11.248 11.8614 11.406 12.1427 11.6873C12.424 11.9686 12.582 12.3502 12.582 12.748C12.582 13.1458 12.424 13.5274 12.1427 13.8087C11.8614 14.09 11.4798 14.248 11.082 14.248C10.6842 14.248 10.3026 14.09 10.0213 13.8087C9.74004 13.5274 9.582 13.1458 9.582 12.748C9.582 12.3502 9.74004 11.9686 10.0213 11.6873C10.3026 11.406 10.6842 11.248 11.082 11.248Z" fill="#1D8CC6"/>
</svg>
