<svg width="28" height="28" viewBox="0 0 28 28" fill="none" xmlns="http://www.w3.org/2000/svg">
<g clip-path="url(#clip0_11_513)">
<path d="M14 0C6.28064 0 0 6.28064 0 14C0 21.7194 6.28064 28 14 28C21.7194 28 28 21.7194 28 14C28 6.28064 21.7194 0 14 0ZM14 26.3529C7.18736 26.3529 1.64705 20.8131 1.64705 14C1.64705 7.18695 7.18695 1.64705 14 1.64705C20.8131 1.64705 26.3529 7.18736 26.3529 14C26.3529 20.8126 20.8126 26.3529 14 26.3529Z" fill="#FF3E3E"/>
<path d="M17.5 10.5C17.5 10.9641 17.6844 11.4092 18.0126 11.7374C18.3408 12.0656 18.7859 12.25 19.25 12.25C19.7141 12.25 20.1592 12.0656 20.4874 11.7374C20.8156 11.4092 21 10.9641 21 10.5C21 10.0359 20.8156 9.59075 20.4874 9.26256C20.1592 8.93437 19.7141 8.75 19.25 8.75C18.7859 8.75 18.3408 8.93437 18.0126 9.26256C17.6844 9.59075 17.5 10.0359 17.5 10.5ZM7 10.5C7 10.9641 7.18437 11.4092 7.51256 11.7374C7.84075 12.0656 8.28587 12.25 8.75 12.25C9.21413 12.25 9.65925 12.0656 9.98744 11.7374C10.3156 11.4092 10.5 10.9641 10.5 10.5C10.5 10.0359 10.3156 9.59075 9.98744 9.26256C9.65925 8.93437 9.21413 8.75 8.75 8.75C8.28587 8.75 7.84075 8.93437 7.51256 9.26256C7.18437 9.59075 7 10.0359 7 10.5ZM14.112 16.3256C12.8784 16.3039 11.6594 16.596 10.5696 17.1746C9.47988 17.7532 8.55504 18.5993 7.882 19.6334C7.81586 19.7296 7.76964 19.8381 7.74604 19.9524C7.72244 20.0668 7.72194 20.1847 7.74458 20.2992C7.76721 20.4138 7.81253 20.5226 7.87785 20.6194C7.94318 20.7162 8.0272 20.799 8.12497 20.8628C8.22273 20.9266 8.33228 20.9703 8.44716 20.9911C8.56204 21.012 8.67994 21.0097 8.79392 20.9844C8.9079 20.959 9.01566 20.9111 9.11086 20.8435C9.20606 20.7759 9.28678 20.69 9.34828 20.5907C9.85898 19.8036 10.5617 19.1595 11.3903 18.7192C12.2188 18.2789 13.1459 18.0568 14.084 18.074C14.983 18.0897 15.8647 18.323 16.6538 18.754C17.4428 19.185 18.1157 19.8008 18.6146 20.5487C18.6777 20.645 18.7593 20.7278 18.8547 20.7923C18.95 20.8568 19.0572 20.9017 19.1701 20.9244C19.2829 20.9472 19.3992 20.9473 19.5121 20.9248C19.6249 20.9023 19.7322 20.8576 19.8277 20.7933C20.0204 20.664 20.154 20.4636 20.1992 20.236C20.2444 20.0084 20.1976 19.7721 20.069 19.579C19.4132 18.5954 18.5286 17.7856 17.4911 17.219C16.4535 16.6524 15.294 16.346 14.112 16.3261V16.3256Z" fill="#FF3E3E"/>
</g>
<defs>
<clipPath id="clip0_11_513">
<rect width="28" height="28" fill="white"/>
</clipPath>
</defs>
</svg>
