<svg width="32" height="32" viewBox="0 0 32 32" fill="none" xmlns="http://www.w3.org/2000/svg">
<path d="M16 30C8.3 30 2 23.7 2 16C2 8.3 8.3 2 16 2C23.7 2 30 8.3 30 16C30 23.7 23.7 30 16 30ZM16 4C9.4 4 4 9.4 4 16C4 22.6 9.4 28 16 28C22.6 28 28 22.6 28 16C28 9.4 22.6 4 16 4Z" fill="white"/>
<path d="M14.6 21.5C14.35 21.5 14.1 21.4 13.9 21.2L9.4 16.7C9 16.3 9 15.7 9.4 15.3C9.8 14.9 10.4 14.9 10.8 15.3L14.6 19.1L21.4 12.3C21.8 11.9 22.4 11.9 22.8 12.3C23.2 12.7 23.2 13.3 22.8 13.7L15.3 21.2C15.1 21.4 14.85 21.5 14.6 21.5Z" fill="white"/>
</svg>
