<svg width="63" height="63" viewBox="0 0 63 63" fill="none" xmlns="http://www.w3.org/2000/svg">
<path d="M21.9541 14.7958C21.9541 12.2641 22.9598 9.83609 24.75 8.0459C26.5402 6.25572 28.9682 5.25 31.4999 5.25C34.0316 5.25 36.4597 6.25572 38.2498 8.0459C40.04 9.83609 41.0457 12.2641 41.0457 14.7958V27.3354C43.9644 29.3677 46.1584 32.2784 47.3082 35.6439C48.4581 39.0094 48.5039 42.6541 47.4389 46.0474C46.3739 49.4407 44.2537 52.4056 41.3869 54.5105C38.5202 56.6154 35.0565 57.7505 31.4999 57.7505C27.9434 57.7505 24.4797 56.6154 21.6129 54.5105C18.7462 52.4056 16.626 49.4407 15.561 46.0474C14.496 42.6541 14.5418 39.0094 15.6916 35.6439C16.8415 32.2784 19.0354 29.3677 21.9541 27.3354V14.7958ZM24.6841 31.2493C22.5989 32.7005 21.0313 34.7794 20.2095 37.1833C19.3877 39.5872 19.3546 42.1906 20.1151 44.6147C20.8756 47.0387 22.3899 49.1567 24.4376 50.6604C26.4853 52.1641 28.9594 52.9749 31.4999 52.9749C34.0404 52.9749 36.5146 52.1641 38.5623 50.6604C40.61 49.1567 42.1243 47.0387 42.8848 44.6147C43.6452 42.1906 43.6122 39.5872 42.7904 37.1833C41.9686 34.7794 40.401 32.7005 38.3157 31.2493L36.2722 29.8252V14.7958C36.2722 13.5301 35.7694 12.3163 34.8744 11.4213C33.9795 10.5264 32.7656 10.0236 31.4999 10.0236C30.2343 10.0236 29.0204 10.5264 28.1254 11.4213C27.2305 12.3163 26.7277 13.5301 26.7277 14.7958V29.8239L24.6841 31.2493ZM29.1138 31.8006V14.7958H33.8861V31.8006C36.1307 32.3866 38.0853 33.7696 39.3847 35.6914C40.6842 37.6132 41.2396 39.9423 40.9474 42.2437C40.6551 44.5451 39.5351 46.6614 37.7966 48.1973C36.058 49.7333 33.8198 50.5839 31.4999 50.5903C29.1757 50.5914 26.931 49.7445 25.1867 48.2085C23.4424 46.6724 22.3185 44.5528 22.0257 42.2471C21.7329 39.9414 22.2913 37.6081 23.5963 35.6848C24.9013 33.7615 26.8631 32.3804 29.1138 31.8006Z" fill="white"/>
<path d="M43.9688 8.53125H51.8438V12.4688H43.9688V8.53125ZM43.9688 15.0938H51.8438V19.0313H43.9688V15.0938ZM43.9688 21.6563H51.8438V25.5938H43.9688V21.6563Z" fill="white"/>
</svg>
