<svg width="38" height="53" viewBox="0 0 38 53" fill="none" xmlns="http://www.w3.org/2000/svg">
<path d="M7.95412 9.79581C7.95412 7.2641 8.95984 4.83609 10.75 3.0459C12.5402 1.25572 14.9682 0.25 17.4999 0.25C20.0316 0.25 22.4597 1.25572 24.2498 3.0459C26.04 4.83609 27.0457 7.2641 27.0457 9.79581V22.3354C29.9644 24.3677 32.1584 27.2784 33.3082 30.6439C34.4581 34.0094 34.5039 37.6541 33.4389 41.0474C32.3739 44.4408 30.2537 47.4056 27.3869 49.5105C24.5202 51.6154 21.0565 52.7505 17.4999 52.7505C13.9434 52.7505 10.4797 51.6154 7.61294 49.5105C4.74619 47.4056 2.62602 44.4408 1.56102 41.0474C0.496014 37.6541 0.541772 34.0094 1.69163 30.6439C2.84149 27.2784 5.03543 24.3677 7.95412 22.3354V9.79581ZM10.6841 26.2493C8.5989 27.7005 7.03129 29.7794 6.2095 32.1833C5.38771 34.5872 5.35464 37.1906 6.11511 39.6147C6.87557 42.0387 8.38987 44.1567 10.4376 45.6604C12.4853 47.1641 14.9594 47.9749 17.4999 47.9749C20.0404 47.9749 22.5146 47.1641 24.5623 45.6604C26.61 44.1567 28.1243 42.0387 28.8848 39.6147C29.6452 37.1906 29.6122 34.5872 28.7904 32.1833C27.9686 29.7794 26.401 27.7005 24.3157 26.2493L22.2722 24.8252V9.79581C22.2722 8.53013 21.7694 7.31629 20.8744 6.42132C19.9795 5.52635 18.7656 5.02356 17.4999 5.02356C16.2343 5.02356 15.0204 5.52635 14.1254 6.42132C13.2305 7.31629 12.7277 8.53013 12.7277 9.79581V24.8239L10.6841 26.2493ZM15.1138 26.8006V9.79581H19.8861V26.8006C22.1307 27.3866 24.0853 28.7696 25.3847 30.6914C26.6842 32.6132 27.2396 34.9423 26.9474 37.2437C26.6551 39.5451 25.5351 41.6614 23.7966 43.1973C22.058 44.7333 19.8198 45.5839 17.4999 45.5903C15.1757 45.5914 12.931 44.7445 11.1867 43.2085C9.44242 41.6724 8.31847 39.5528 8.02567 37.2471C7.73287 34.9414 8.29133 32.6081 9.5963 30.6848C10.9013 28.7615 12.8631 27.3804 15.1138 26.8006Z" fill="#3397CC"/>
<path d="M29.9688 3.53125H37.8438V7.46875H29.9688V3.53125ZM29.9688 10.0938H37.8438V14.0313H29.9688V10.0938ZM29.9688 16.6563H37.8438V20.5938H29.9688V16.6563Z" fill="#3397CC"/>
</svg>
