<svg width="34" height="45" viewBox="0 0 34 45" fill="none" xmlns="http://www.w3.org/2000/svg">
<path d="M29.75 16.8752H8.85417C8.65937 16.8752 8.5 16.717 8.5 16.5236V11.2502C8.5 8.99581 9.38542 6.87765 10.988 5.28244C12.5951 3.69162 14.7289 2.81272 17 2.81272C19.2711 2.81272 22 3.50012 23.5 5.00012C23.7481 5.24827 25.2408 6.33948 25.2408 8.59387V8.68176C25.2408 9.41125 26.088 10.0001 26.8229 10.0001H27C27.7349 10.0001 28.5 9.22961 28.5 8.50012C28.5 5.40198 27 4.00012 26 3.00012C23.5 0.500122 20.0945 -0.0129612 16.9557 0.000222351C10.718 0.022195 5.66667 5.04953 5.66667 11.2502V16.5236C5.66667 16.717 5.50729 16.8752 5.3125 16.8752H4.25C1.90365 16.8752 0 18.7648 0 21.0939V40.7814C0 43.1105 1.90365 45.0001 4.25 45.0001H29.75C32.0964 45.0001 34 43.1105 34 40.7814V21.0939C34 18.7648 32.0964 16.8752 29.75 16.8752ZM19.5544 32.902C18.8461 33.4337 18.4167 34.2511 18.4167 35.1344V37.9689C18.4167 38.7379 17.788 39.3663 17.0177 39.3751C16.2297 39.3839 15.5833 38.7247 15.5833 37.9381V35.1564C15.5833 34.2687 15.1583 33.4381 14.4411 32.902C13.4141 32.133 12.75 30.9069 12.75 29.5314C12.75 27.2375 14.6271 25.3434 16.938 25.3127C19.3154 25.2775 21.25 27.1803 21.25 29.5314C21.25 30.9069 20.5859 32.133 19.5544 32.902Z" fill="url(#paint0_linear_436_260)"/>
<path d="M15.5833 29.5314C15.5833 29.9044 15.7326 30.2621 15.9983 30.5258C16.2639 30.7895 16.6243 30.9377 17 30.9377C17.3757 30.9377 17.7361 30.7895 18.0017 30.5258C18.2674 30.2621 18.4167 29.9044 18.4167 29.5314C18.4167 29.1584 18.2674 28.8008 18.0017 28.537C17.7361 28.2733 17.3757 28.1252 17 28.1252C16.6243 28.1252 16.2639 28.2733 15.9983 28.537C15.7326 28.8008 15.5833 29.1584 15.5833 29.5314Z" fill="url(#paint1_linear_436_260)"/>
<defs>
<linearGradient id="paint0_linear_436_260" x1="17" y1="0.00012207" x2="17" y2="45.0001" gradientUnits="userSpaceOnUse">
<stop offset="0.07" stop-color="#F5F5F5"/>
<stop offset="0.66" stop-color="#A5A2A3"/>
</linearGradient>
<linearGradient id="paint1_linear_436_260" x1="17" y1="0.00012207" x2="17" y2="45.0001" gradientUnits="userSpaceOnUse">
<stop offset="0.07" stop-color="#F5F5F5"/>
<stop offset="0.66" stop-color="#A5A2A3"/>
</linearGradient>
</defs>
</svg>
