<svg width="228" height="196" viewBox="0 0 228 196" fill="none" xmlns="http://www.w3.org/2000/svg">
<path d="M141.342 144.138L177.855 179.103L190.865 165.48L161.58 137.425L161.716 137.273L142.572 118.946L142.147 118.793L110.265 88.258H110.493L88.024 66.734L87.827 66.764L64.28 44.2202L64.431 44.1594L45.5605 26.0907L45.4087 26.1516L18.1422 0L5.1466 13.639L27.5549 35.1479L25.2018 36.5179C16.4064 41.7746 8.0059 47.7822 0 54.541L14.9389 73.036C22.0541 66.987 29.5235 61.629 37.3472 56.961C40.0495 55.348 42.7823 53.825 45.5453 52.395L66.618 72.564L65.449 73.005C57.878 75.816 50.5199 79.287 43.3743 83.417C38.8704 86.025 34.4829 88.877 30.2117 91.972L45.1506 110.482C48.44 108.148 51.8002 105.992 55.2313 104.013C61.2231 100.552 67.377 97.645 73.692 95.29C77.842 93.748 82.042 92.454 86.293 91.409L110.432 114.531C107.042 114.694 103.661 115.049 100.291 115.597C95.595 116.358 90.989 117.479 86.475 118.961C81.891 120.463 77.483 122.31 73.252 124.502C69.315 126.531 65.58 128.84 62.0479 131.428L77.002 149.938C79.259 148.365 81.637 146.929 84.137 145.63C87.245 144.027 90.483 142.672 93.854 141.566C97.194 140.47 100.605 139.638 104.086 139.069C107.558 138.501 111.029 138.212 114.501 138.202C117.983 138.181 121.404 138.435 124.764 138.963C128.134 139.48 131.393 140.272 134.541 141.337C136.899 142.129 139.161 143.063 141.327 144.138H141.342ZM87.599 37.9335L85.473 38.3293L65.206 18.9059C71.177 17.1198 77.225 15.6636 83.348 14.5371C93.388 12.7105 103.494 11.7971 113.666 11.7971C123.848 11.7971 133.959 12.7105 143.999 14.5371C154.1 16.3942 163.999 19.1494 173.695 22.8027C183.492 26.4966 192.96 31.0734 202.1 36.5331C211.158 41.9319 219.792 48.132 228 55.135L213.076 73.629C205.749 67.338 198.046 61.782 189.97 56.961C182.035 52.222 173.821 48.254 165.33 45.0575C156.97 41.9014 148.437 39.5268 139.733 37.9335C131.1 36.3504 122.411 35.5589 113.666 35.5589C104.921 35.5589 96.232 36.3504 87.599 37.9335ZM150.618 95.047C147.683 93.981 144.733 93.038 141.767 92.216L112.77 64.45C120.402 64.471 127.993 65.146 135.543 66.475C143.407 67.855 151.14 69.935 158.741 72.716C166.423 75.517 173.887 79.003 181.134 83.174C186.559 86.289 191.827 89.77 196.938 93.616L182.014 112.111C177.895 109.066 173.664 106.296 169.322 103.8C163.25 100.299 157.015 97.381 150.618 95.047ZM134.647 170.67L114.182 196L96.495 174.08L93.884 170.64L95.008 169.955C101.404 166.078 107.816 164.14 114.243 164.14C120.67 164.14 127.082 166.078 133.478 169.955L134.647 170.67Z" fill="url(#paint0_linear_2317_568)"/>
<defs>
<linearGradient id="paint0_linear_2317_568" x1="114" y1="0" x2="114" y2="196" gradientUnits="userSpaceOnUse">
<stop offset="0.34" stop-color="#BD3124"/>
<stop offset="0.93" stop-color="#BD3124"/>
</linearGradient>
</defs>
</svg>
