<svg width="42" height="42" viewBox="0 0 42 42" fill="none" xmlns="http://www.w3.org/2000/svg">
<path d="M21 28.875H35.4375V32.8125H31.5L22.3125 42H19.6875L10.5 32.8125H6.5625V28.875H21Z" fill="url(#paint0_linear_470_285)"/>
<path d="M35.4375 0V2.625H42V6.5625H35.4375V10.5H42V14.4375H35.4375V18.375H42V22.3125H35.4375V26.25H6.5625V22.3125H0V18.375H6.5625V14.4375H0V10.5H6.5625V6.5625H0V2.625H6.5625V0H35.4375ZM16.9541 7.36328V8.61328H23.2959L17.0225 17.9775V19H25.0459V17.75H18.7041L24.9775 8.38672V7.36328H16.9541Z" fill="url(#paint1_linear_470_285)"/>
<defs>
<linearGradient id="paint0_linear_470_285" x1="21" y1="28.875" x2="21" y2="42" gradientUnits="userSpaceOnUse">
<stop stop-color="white"/>
<stop offset="1" stop-color="#999999"/>
</linearGradient>
<linearGradient id="paint1_linear_470_285" x1="21" y1="0" x2="21" y2="10.1877" gradientUnits="userSpaceOnUse">
<stop stop-color="white"/>
<stop offset="1" stop-color="#999999"/>
</linearGradient>
</defs>
</svg>
